# Blender v3.2.2 OBJ File: ''
# www.blender.org
mtllib env.mtl
o Cube.001
v -6.641921 -1.572614 6.641922
v 6.641923 -1.572614 6.641922
v 6.641923 -1.572612 -6.641922
v -6.641921 -1.572612 -6.641922
v -6.641921 4.714165 -6.641920
v 6.641923 4.714165 -6.641920
v 6.641923 4.714163 6.641923
v -6.641921 4.714163 6.641923
v -6.641921 1.728645 -2.233746
v -6.641921 -1.572613 0.946071
v -6.641921 -1.572613 -2.233746
v -11.265814 -1.572613 -2.233746
v -11.265814 -1.572613 0.946071
v -6.641921 1.728645 0.946071
v -11.265814 1.728645 -2.233746
v -11.265814 1.728645 0.946071
v -8.003566 -0.160424 -2.233746
v -8.042094 -0.659715 -2.233746
v -8.828435 0.604107 -5.336986
v -9.318853 1.117411 -5.336986
v -8.949397 -0.150994 -5.928579
v -10.361103 0.157226 -2.233746
v -9.611572 0.359999 -2.233746
v -8.360938 0.359675 -2.233746
v -8.282112 -0.400380 -5.336986
v -9.598896 -0.962724 -2.233746
v -9.761975 -0.210464 -5.336986
v -8.543600 -0.914682 -5.336986
v -8.961404 -1.101954 -5.336986
vn 0.0000 1.0000 0.0000
vn 0.0000 -0.0000 1.0000
vn -1.0000 -0.0000 0.0000
vn 0.0000 -1.0000 -0.0000
vn 0.0000 0.0000 -1.0000
vn -0.5038 -0.4813 0.7173
vn -0.8746 -0.4757 0.0943
vn 0.9263 -0.3091 0.2155
vn -0.4090 0.9125 -0.0089
vn -0.7220 -0.6898 0.0544
vn 0.7385 0.6632 0.1219
vn -0.0003 -0.9715 -0.2371
vn 0.8232 0.5602 0.0925
vn 0.2555 -0.9445 -0.2064
vn -0.1904 0.9782 -0.0830
vn -0.8185 -0.5624 0.1170
vn 0.5032 0.4519 0.7366
vn -0.5716 0.2906 0.7673
vn -0.6895 -0.3750 0.6196
vn 0.5865 -0.1957 0.7859
vn -0.2313 0.5160 0.8248
vn 1.0000 0.0000 0.0000
vn -0.9936 0.0767 0.0833
vn -0.8864 0.4507 0.1062
usemtl Default_OBJ
s off
f 1//1 2//1 3//1 4//1
f 5//2 4//2 3//2 6//2
f 6//3 3//3 2//3 7//3
f 7//4 8//4 5//4 6//4
f 7//5 2//5 1//5 8//5
f 10//1 11//1 12//1 13//1
f 11//2 9//2 17//2 18//2
f 19//6 20//6 21//6
f 15//2 22//2 23//2
f 24//7 19//7 25//7
f 12//2 26//2 22//2 15//2
f 18//2 26//2 12//2 11//2
f 15//2 23//2 24//2 9//2
f 22//8 27//8 20//8
f 18//9 28//9 29//9
f 20//10 19//10 24//10
f 26//11 29//11 27//11
f 23//12 20//12 24//12
f 22//13 26//13 27//13
f 23//14 22//14 20//14
f 26//15 18//15 29//15
f 17//16 24//16 25//16
f 27//17 29//17 21//17
f 28//18 25//18 21//18
f 25//19 19//19 21//19
f 20//20 27//20 21//20
f 29//21 28//21 21//21
f 14//22 1//22 10//22
f 14//22 8//22 1//22
f 16//22 13//22 12//22 15//22
f 9//2 24//2 17//2
f 9//22 11//22 4//22
f 9//22 4//22 5//22
f 14//4 16//4 15//4 9//4
f 13//5 16//5 14//5 10//5
f 9//22 5//22 8//22 14//22
f 25//23 18//23 17//23
f 18//24 25//24 28//24
