# Blender v3.2.2 OBJ File: ''
# www.blender.org
mtllib env2.mtl
o Cube.006
v -6.226803 -1.572611 6.226801
v -6.641923 -1.572611 6.226801
v -6.641923 -1.572611 6.641922
v -6.226803 -1.572611 6.641922
v 6.641921 4.714166 6.641919
v 6.641921 -1.572611 6.641922
v 6.226801 -1.572611 6.641922
v 5.811681 -1.572611 6.641922
v 5.396561 -1.572611 6.641922
v 4.981441 -1.572611 6.641922
v 4.566320 -1.572611 6.641922
v 4.151200 -1.572611 6.641922
v 3.736080 -1.572611 6.641922
v 3.320960 -1.572611 6.641922
v 2.905840 -1.572611 6.641922
v 2.490720 -1.572611 6.641922
v 2.075600 -1.572611 6.641922
v 1.660480 -1.572611 6.641922
v 1.245359 -1.572611 6.641922
v 0.830239 -1.572611 6.641922
v 0.415119 -1.572611 6.641922
v -0.000001 -1.572611 6.641922
v -0.415121 -1.572611 6.641922
v -0.830241 -1.572611 6.641922
v -1.245361 -1.572611 6.641922
v -1.660481 -1.572611 6.641922
v -2.075602 -1.572611 6.641922
v -2.490722 -1.572611 6.641922
v -2.905842 -1.572611 6.641922
v -3.320962 -1.572611 6.641922
v -3.736082 -1.572611 6.641922
v -4.151202 -1.572611 6.641922
v -4.566322 -1.572611 6.641922
v -4.981442 -1.572611 6.641922
v -5.396563 -1.572611 6.641922
v -5.811683 -1.572611 6.641922
v -6.641923 4.714166 6.641919
v -6.641923 -1.572611 5.811681
v -6.641923 -1.572611 5.396562
v -6.641923 -1.572611 4.981441
v -6.641923 -1.572611 4.566321
v -6.641923 -1.572611 4.151201
v -6.641923 -1.572611 3.736080
v -6.641923 -1.572611 3.320961
v -6.641923 -1.572613 2.905840
v -6.641923 -1.572613 2.490720
v -6.641923 -1.572613 2.075600
v -6.641923 -1.572613 1.660480
v -6.641923 -1.572613 1.245360
v -6.641923 -1.572613 0.830240
v -6.641923 -1.572613 0.415120
v -6.641923 -1.572613 0.000000
v -6.641923 -1.572613 -0.415120
v -6.641923 -1.572613 -0.830240
v -6.641923 -1.572613 -1.245360
v -6.641923 -1.572613 -1.660481
v -6.641923 -1.572613 -2.075601
v -6.641923 -1.572613 -2.490721
v -6.641923 -1.572613 -2.905841
v -6.641923 -1.572615 -3.320961
v -6.641923 -1.572615 -3.736081
v -6.641923 -1.572615 -4.151200
v -6.641923 -1.572615 -4.566320
v -6.641923 -1.572615 -4.981441
v -6.641923 -1.572615 -5.396561
v -6.641923 -1.572615 -5.811680
v -6.641923 -1.572615 -6.226800
v -6.641923 -1.572615 -6.641922
v -6.641923 4.714162 -6.641924
v 6.641921 4.714162 -6.641924
v 11.265815 1.510945 1.364343
v 11.265814 1.728645 0.904347
v 11.265814 1.728645 0.383329
v -6.226803 -1.572615 -6.641922
v -5.811683 -1.572615 -6.641922
v -5.396563 -1.572615 -6.641922
v -4.981442 -1.572615 -6.641922
v -4.566322 -1.572615 -6.641922
v -4.151202 -1.572615 -6.641922
v -3.736082 -1.572615 -6.641922
v -3.320962 -1.572615 -6.641922
v -2.905842 -1.572615 -6.641922
v -2.490722 -1.572615 -6.641922
v -2.075602 -1.572615 -6.641922
v -1.660481 -1.572615 -6.641922
v -1.245361 -1.572615 -6.641922
v -0.830241 -1.572615 -6.641922
v -0.415121 -1.572615 -6.641922
v -0.000001 -1.572615 -6.641922
v 0.415119 -1.572615 -6.641922
v 0.830239 -1.572615 -6.641922
v 1.245359 -1.572615 -6.641922
v 1.660480 -1.572615 -6.641922
v 2.075600 -1.572615 -6.641922
v 2.490720 -1.572615 -6.641922
v 2.905840 -1.572615 -6.641922
v 3.320960 -1.572615 -6.641922
v 3.736080 -1.572615 -6.641922
v 4.151200 -1.572615 -6.641922
v 4.566320 -1.572615 -6.641922
v 4.981441 -1.572615 -6.641922
v 5.396561 -1.572615 -6.641922
v 5.811681 -1.572615 -6.641922
v 6.226801 -1.572615 -6.641922
v 6.641921 -1.572615 -6.641922
v 6.641921 1.495635 2.497229
v 6.823946 1.593465 2.228713
v 7.101915 1.317186 2.233746
v 11.265814 1.510945 -0.076667
v 11.265815 1.317187 -0.486075
v 11.265815 1.317187 1.773751
v 6.641921 1.907093 1.627824
v 6.641921 2.065917 2.271740
v 6.641921 2.034038 -1.068712
v 6.641921 1.890226 -0.384935
v 6.641921 1.848217 2.731735
v 6.641921 1.728645 0.383329
v 6.641921 1.728645 0.904347
v 6.641921 -1.572613 -0.946071
v 6.641921 -1.572613 2.233746
v 11.265814 -1.572613 2.233746
v 11.265814 -1.572613 -0.946071
v 6.641921 1.099487 2.233746
v 6.703431 1.807599 2.274731
v 6.641921 2.244366 2.995218
v 7.101915 1.728645 1.364342
v 7.511324 1.728645 1.773751
v 6.831851 1.755588 1.894055
v 7.511324 1.510945 2.233746
v 7.971320 1.728645 2.233746
v 7.096349 1.665450 2.074489
v 7.101915 1.728645 -0.076667
v 6.703341 1.788910 -1.036679
v 6.828646 1.746084 -0.628333
v 6.641921 1.816338 -1.528707
v 6.641921 2.195619 -1.836976
v 6.641921 1.478768 -1.254339
v 7.101915 1.317187 -0.946071
v 6.641921 1.099487 -0.946071
v 7.511324 1.510945 -0.946071
v 6.826338 1.585738 -0.964835
v 7.511324 1.728645 -0.486075
v 7.971320 1.728645 -0.946071
v 7.095623 1.661629 -0.796958
v 10.396411 1.728645 1.773751
v 10.396411 1.510945 2.233746
v 9.936415 1.728645 2.233746
v 10.996649 1.601259 1.663399
v 10.695467 1.601259 1.964581
v 10.805820 1.728645 1.364343
v 10.805820 1.317186 2.233746
v 11.265814 1.099487 2.233746
v 10.996649 1.458720 1.964581
v 10.396411 1.510945 -0.946071
v 10.396410 1.728645 -0.486075
v 9.936415 1.728645 -0.946071
v 10.996649 1.458720 -0.676906
v 10.695468 1.601259 -0.676906
v 10.805820 1.317187 -0.946071
v 11.265814 1.099487 -0.946071
v 10.805819 1.728645 -0.076667
v 10.996649 1.601259 -0.375724
v 8.003566 -0.160424 2.233746
v 8.042094 -0.659715 2.233746
v 8.828435 0.604108 5.336986
v 9.318853 1.117412 5.336986
v 8.949397 -0.150993 5.928579
v 10.361103 0.157226 2.233746
v 9.611572 0.359999 2.233746
v 8.360938 0.359675 2.233746
v 8.282112 -0.400379 5.336986
v 9.317100 -0.962724 2.233746
v 9.761975 -0.210463 5.336986
v 8.543600 -0.914681 5.336986
v 8.961404 -1.101953 5.336986
v 0.415119 -1.572611 6.226801
v -0.000001 -1.572611 6.226801
v 0.415119 -1.572613 -0.415120
v -0.000001 -1.572613 -0.415120
v -0.000001 -1.572613 0.000000
v 0.415119 -1.572613 0.000000
v -6.226803 -1.572613 -0.415120
v -6.226803 -1.572613 0.000000
v -2.905842 -1.572613 -0.415120
v -3.320962 -1.572613 -0.415120
v -3.320962 -1.572613 0.000000
v -2.905842 -1.572613 0.000000
v -2.905842 -1.572615 -3.736081
v -3.320962 -1.572615 -3.736081
v -3.320962 -1.572615 -3.320961
v -2.905842 -1.572615 -3.320961
v -6.226803 -1.572615 -3.736081
v -6.226803 -1.572615 -3.320961
v 3.736080 -1.572613 -0.415120
v 3.320960 -1.572613 -0.415120
v 3.320960 -1.572613 0.000000
v 3.736080 -1.572613 0.000000
v 3.736080 -1.572615 -3.736081
v 3.320960 -1.572615 -3.736081
v 3.320960 -1.572615 -3.320961
v 3.736080 -1.572615 -3.320961
v 0.415119 -1.572615 -3.736081
v -0.000001 -1.572615 -3.736081
v -0.000001 -1.572615 -3.320961
v 0.415119 -1.572615 -3.320961
v 3.736080 -1.572611 6.226801
v 3.320960 -1.572611 6.226801
v 3.736080 -1.572613 2.905840
v 3.320960 -1.572613 2.905840
v 3.320960 -1.572611 3.320961
v 3.736080 -1.572611 3.320961
v 0.415119 -1.572613 2.905840
v -0.000001 -1.572613 2.905840
v -0.000001 -1.572611 3.320961
v 0.415119 -1.572611 3.320961
v -2.905842 -1.572611 6.226801
v -3.320962 -1.572611 6.226801
v -2.905842 -1.572613 2.905840
v -3.320962 -1.572613 2.905840
v -3.320962 -1.572611 3.320961
v -2.905842 -1.572611 3.320961
v -6.226803 -1.572613 2.905840
v -6.226803 -1.572611 3.320961
v -4.566322 -1.572613 2.905840
v -4.981442 -1.572613 2.905840
v -4.981442 -1.572611 3.320961
v -4.566322 -1.572611 3.320961
v -4.566322 -1.572613 1.245360
v -4.981442 -1.572613 1.245360
v -4.981442 -1.572613 1.660480
v -4.566322 -1.572613 1.660480
v -6.226803 -1.572613 1.245360
v -6.226803 -1.572613 1.660480
v -1.245361 -1.572613 2.905840
v -1.660481 -1.572613 2.905840
v -1.660481 -1.572611 3.320961
v -1.245361 -1.572611 3.320961
v -1.245361 -1.572613 1.245360
v -1.660481 -1.572613 1.245360
v -1.660481 -1.572613 1.660480
v -1.245361 -1.572613 1.660480
v -2.905842 -1.572613 1.245360
v -3.320962 -1.572613 1.245360
v -3.320962 -1.572613 1.660480
v -2.905842 -1.572613 1.660480
v -1.245361 -1.572611 6.226801
v -1.660481 -1.572611 6.226801
v -1.245361 -1.572611 4.566321
v -1.660481 -1.572611 4.566321
v -1.660481 -1.572611 4.981441
v -1.245361 -1.572611 4.981441
v -2.905842 -1.572611 4.566321
v -3.320962 -1.572611 4.566321
v -3.320962 -1.572611 4.981441
v -2.905842 -1.572611 4.981441
v 2.075600 -1.572613 2.905840
v 1.660480 -1.572613 2.905840
v 1.660480 -1.572611 3.320961
v 2.075600 -1.572611 3.320961
v 2.075600 -1.572613 1.245360
v 1.660480 -1.572613 1.245360
v 1.660480 -1.572613 1.660480
v 2.075600 -1.572613 1.660480
v 0.415119 -1.572613 1.245360
v -0.000001 -1.572613 1.245360
v -0.000001 -1.572613 1.660480
v 0.415119 -1.572613 1.660480
v 5.396561 -1.572613 2.905840
v 4.981441 -1.572613 2.905840
v 4.981441 -1.572611 3.320961
v 5.396561 -1.572611 3.320961
v 5.396561 -1.572613 1.245360
v 4.981441 -1.572613 1.245360
v 4.981441 -1.572613 1.660480
v 5.396561 -1.572613 1.660480
v 3.736080 -1.572613 1.245360
v 3.320960 -1.572613 1.245360
v 3.320960 -1.572613 1.660480
v 3.736080 -1.572613 1.660480
v 5.396561 -1.572611 6.226801
v 4.981441 -1.572611 6.226801
v 5.396561 -1.572611 4.566321
v 4.981441 -1.572611 4.566321
v 4.981441 -1.572611 4.981441
v 5.396561 -1.572611 4.981441
v 3.736080 -1.572611 4.566321
v 3.320960 -1.572611 4.566321
v 3.320960 -1.572611 4.981441
v 3.736080 -1.572611 4.981441
v 2.075600 -1.572615 -3.736081
v 1.660480 -1.572615 -3.736081
v 1.660480 -1.572615 -3.320961
v 2.075600 -1.572615 -3.320961
v 2.075600 -1.572615 -5.396561
v 1.660480 -1.572615 -5.396561
v 1.660480 -1.572615 -4.981441
v 2.075600 -1.572615 -4.981441
v 0.415119 -1.572615 -5.396561
v -0.000001 -1.572615 -5.396561
v -0.000001 -1.572615 -4.981441
v 0.415119 -1.572615 -4.981441
v 5.396561 -1.572615 -3.736081
v 4.981441 -1.572615 -3.736081
v 4.981441 -1.572615 -3.320961
v 5.396561 -1.572615 -3.320961
v 5.396561 -1.572615 -5.396561
v 4.981441 -1.572615 -5.396561
v 4.981441 -1.572615 -4.981441
v 5.396561 -1.572615 -4.981441
v 3.736080 -1.572615 -5.396561
v 3.320960 -1.572615 -5.396561
v 3.320960 -1.572615 -4.981441
v 3.736080 -1.572615 -4.981441
v 5.396561 -1.572613 -0.415120
v 4.981441 -1.572613 -0.415120
v 4.981441 -1.572613 0.000000
v 5.396561 -1.572613 0.000000
v 5.396561 -1.572613 -2.075601
v 4.981441 -1.572613 -2.075601
v 4.981441 -1.572613 -1.660481
v 5.396561 -1.572613 -1.660481
v 3.736080 -1.572613 -2.075601
v 3.320960 -1.572613 -2.075601
v 3.320960 -1.572613 -1.660481
v 3.736080 -1.572613 -1.660481
v -4.566322 -1.572615 -3.736081
v -4.981442 -1.572615 -3.736081
v -4.981442 -1.572615 -3.320961
v -4.566322 -1.572615 -3.320961
v -4.566322 -1.572615 -5.396561
v -4.981442 -1.572615 -5.396561
v -4.981442 -1.572615 -4.981441
v -4.566322 -1.572615 -4.981441
v -6.226803 -1.572615 -5.396561
v -6.226803 -1.572615 -4.981441
v -1.245361 -1.572615 -3.736081
v -1.660481 -1.572615 -3.736081
v -1.660481 -1.572615 -3.320961
v -1.245361 -1.572615 -3.320961
v -1.245361 -1.572615 -5.396561
v -1.660481 -1.572615 -5.396561
v -1.660481 -1.572615 -4.981441
v -1.245361 -1.572615 -4.981441
v -2.905842 -1.572615 -5.396561
v -3.320962 -1.572615 -5.396561
v -3.320962 -1.572615 -4.981441
v -2.905842 -1.572615 -4.981441
v -1.245361 -1.572613 -0.415120
v -1.660481 -1.572613 -0.415120
v -1.660481 -1.572613 0.000000
v -1.245361 -1.572613 0.000000
v -1.245361 -1.572613 -2.075601
v -1.660481 -1.572613 -2.075601
v -1.660481 -1.572613 -1.660481
v -1.245361 -1.572613 -1.660481
v -2.905842 -1.572613 -2.075601
v -3.320962 -1.572613 -2.075601
v -3.320962 -1.572613 -1.660481
v -2.905842 -1.572613 -1.660481
v -4.566322 -1.572613 -0.415120
v -4.981442 -1.572613 -0.415120
v -4.981442 -1.572613 0.000000
v -4.566322 -1.572613 0.000000
v -4.566322 -1.572613 -2.075601
v -4.981442 -1.572613 -2.075601
v -4.981442 -1.572613 -1.660481
v -4.566322 -1.572613 -1.660481
v -6.226803 -1.572613 -2.075601
v -6.226803 -1.572613 -1.660481
v 2.075600 -1.572613 -0.415120
v 1.660480 -1.572613 -0.415120
v 1.660480 -1.572613 0.000000
v 2.075600 -1.572613 0.000000
v 2.075600 -1.572613 -2.075601
v 1.660480 -1.572613 -2.075601
v 1.660480 -1.572613 -1.660481
v 2.075600 -1.572613 -1.660481
v 0.415119 -1.572613 -2.075601
v -0.000001 -1.572613 -2.075601
v -0.000001 -1.572613 -1.660481
v 0.415119 -1.572613 -1.660481
v 2.075600 -1.572611 6.226801
v 1.660480 -1.572611 6.226801
v 2.075600 -1.572611 4.566321
v 1.660480 -1.572611 4.566321
v 1.660480 -1.572611 4.981441
v 2.075600 -1.572611 4.981441
v 0.415119 -1.572611 4.566321
v -0.000001 -1.572611 4.566321
v -0.000001 -1.572611 4.981441
v 0.415119 -1.572611 4.981441
v -4.566322 -1.572611 6.226801
v -4.981442 -1.572611 6.226801
v -4.566322 -1.572611 4.566321
v -4.981442 -1.572611 4.566321
v -4.981442 -1.572611 4.981441
v -4.566322 -1.572611 4.981441
v -6.226803 -1.572611 4.566321
v -6.226803 -1.572611 4.981441
v -5.396563 -1.572611 4.566321
v -5.811683 -1.572611 4.566321
v -5.811683 -1.572611 4.981441
v -5.396563 -1.572611 4.981441
v -5.396563 -1.572611 3.736080
v -5.811683 -1.572611 3.736080
v -5.811683 -1.572611 4.151201
v -5.396563 -1.572611 4.151201
v -6.226803 -1.572611 3.736080
v -6.226803 -1.572611 4.151201
v -3.736082 -1.572611 4.566321
v -4.151202 -1.572611 4.566321
v -4.151202 -1.572611 4.981441
v -3.736082 -1.572611 4.981441
v -3.736082 -1.572611 3.736080
v -4.151202 -1.572611 3.736080
v -4.151202 -1.572611 4.151201
v -3.736082 -1.572611 4.151201
v -4.566322 -1.572611 3.736080
v -4.981442 -1.572611 3.736080
v -4.981442 -1.572611 4.151201
v -4.566322 -1.572611 4.151201
v -3.736082 -1.572611 6.226801
v -4.151202 -1.572611 6.226801
v -3.736082 -1.572611 5.396562
v -4.151202 -1.572611 5.396562
v -4.151202 -1.572611 5.811681
v -3.736082 -1.572611 5.811681
v -4.566322 -1.572611 5.396562
v -4.981442 -1.572611 5.396562
v -4.981442 -1.572611 5.811681
v -4.566322 -1.572611 5.811681
v 1.245359 -1.572611 4.566321
v 0.830239 -1.572611 4.566321
v 0.830239 -1.572611 4.981441
v 1.245359 -1.572611 4.981441
v 1.245359 -1.572611 3.736080
v 0.830239 -1.572611 3.736080
v 0.830239 -1.572611 4.151201
v 1.245359 -1.572611 4.151201
v 0.415119 -1.572611 3.736080
v -0.000001 -1.572611 3.736080
v -0.000001 -1.572611 4.151201
v 0.415119 -1.572611 4.151201
v 2.905840 -1.572611 4.566321
v 2.490720 -1.572611 4.566321
v 2.490720 -1.572611 4.981441
v 2.905840 -1.572611 4.981441
v 2.905840 -1.572611 3.736080
v 2.490720 -1.572611 3.736080
v 2.490720 -1.572611 4.151201
v 2.905840 -1.572611 4.151201
v 2.075600 -1.572611 3.736080
v 1.660480 -1.572611 3.736080
v 1.660480 -1.572611 4.151201
v 2.075600 -1.572611 4.151201
v 2.905840 -1.572611 6.226801
v 2.490720 -1.572611 6.226801
v 2.905840 -1.572611 5.396562
v 2.490720 -1.572611 5.396562
v 2.490720 -1.572611 5.811681
v 2.905840 -1.572611 5.811681
v 2.075600 -1.572611 5.396562
v 1.660480 -1.572611 5.396562
v 1.660480 -1.572611 5.811681
v 2.075600 -1.572611 5.811681
v 1.245359 -1.572613 -2.075601
v 0.830239 -1.572613 -2.075601
v 0.830239 -1.572613 -1.660481
v 1.245359 -1.572613 -1.660481
v 1.245359 -1.572613 -2.905841
v 0.830239 -1.572613 -2.905841
v 0.830239 -1.572613 -2.490721
v 1.245359 -1.572613 -2.490721
v 0.415119 -1.572613 -2.905841
v -0.000001 -1.572613 -2.905841
v -0.000001 -1.572613 -2.490721
v 0.415119 -1.572613 -2.490721
v 2.905840 -1.572613 -2.075601
v 2.490720 -1.572613 -2.075601
v 2.490720 -1.572613 -1.660481
v 2.905840 -1.572613 -1.660481
v 2.905840 -1.572613 -2.905841
v 2.490720 -1.572613 -2.905841
v 2.490720 -1.572613 -2.490721
v 2.905840 -1.572613 -2.490721
v 2.075600 -1.572613 -2.905841
v 1.660480 -1.572613 -2.905841
v 1.660480 -1.572613 -2.490721
v 2.075600 -1.572613 -2.490721
v 2.905840 -1.572613 -0.415120
v 2.490720 -1.572613 -0.415120
v 2.490720 -1.572613 0.000000
v 2.905840 -1.572613 0.000000
v 2.905840 -1.572613 -1.245360
v 2.490720 -1.572613 -1.245360
v 2.490720 -1.572613 -0.830240
v 2.905840 -1.572613 -0.830240
v 2.075600 -1.572613 -1.245360
v 1.660480 -1.572613 -1.245360
v 1.660480 -1.572613 -0.830240
v 2.075600 -1.572613 -0.830240
v -5.396563 -1.572613 -2.075601
v -5.811683 -1.572613 -2.075601
v -5.811683 -1.572613 -1.660481
v -5.396563 -1.572613 -1.660481
v -5.396563 -1.572613 -2.905841
v -5.811683 -1.572613 -2.905841
v -5.811683 -1.572613 -2.490721
v -5.396563 -1.572613 -2.490721
v -6.226803 -1.572613 -2.905841
v -6.226803 -1.572613 -2.490721
v -3.736082 -1.572613 -2.075601
v -4.151202 -1.572613 -2.075601
v -4.151202 -1.572613 -1.660481
v -3.736082 -1.572613 -1.660481
v -3.736082 -1.572613 -2.905841
v -4.151202 -1.572613 -2.905841
v -4.151202 -1.572613 -2.490721
v -3.736082 -1.572613 -2.490721
v -4.566322 -1.572613 -2.905841
v -4.981442 -1.572613 -2.905841
v -4.981442 -1.572613 -2.490721
v -4.566322 -1.572613 -2.490721
v -3.736082 -1.572613 -0.415120
v -4.151202 -1.572613 -0.415120
v -4.151202 -1.572613 0.000000
v -3.736082 -1.572613 0.000000
v -3.736082 -1.572613 -1.245360
v -4.151202 -1.572613 -1.245360
v -4.151202 -1.572613 -0.830240
v -3.736082 -1.572613 -0.830240
v -4.566322 -1.572613 -1.245360
v -4.981442 -1.572613 -1.245360
v -4.981442 -1.572613 -0.830240
v -4.566322 -1.572613 -0.830240
v -2.075602 -1.572613 -2.075601
v -2.490722 -1.572613 -2.075601
v -2.490722 -1.572613 -1.660481
v -2.075602 -1.572613 -1.660481
v -2.075602 -1.572613 -2.905841
v -2.490722 -1.572613 -2.905841
v -2.490722 -1.572613 -2.490721
v -2.075602 -1.572613 -2.490721
v -2.905842 -1.572613 -2.905841
v -3.320962 -1.572613 -2.905841
v -3.320962 -1.572613 -2.490721
v -2.905842 -1.572613 -2.490721
v -0.415121 -1.572613 -2.075601
v -0.830241 -1.572613 -2.075601
v -0.830241 -1.572613 -1.660481
v -0.415121 -1.572613 -1.660481
v -0.415121 -1.572613 -2.905841
v -0.830241 -1.572613 -2.905841
v -0.830241 -1.572613 -2.490721
v -0.415121 -1.572613 -2.490721
v -1.245361 -1.572613 -2.905841
v -1.660481 -1.572613 -2.905841
v -1.660481 -1.572613 -2.490721
v -1.245361 -1.572613 -2.490721
v -0.415121 -1.572613 -0.415120
v -0.830241 -1.572613 -0.415120
v -0.830241 -1.572613 0.000000
v -0.415121 -1.572613 0.000000
v -0.415121 -1.572613 -1.245360
v -0.830241 -1.572613 -1.245360
v -0.830241 -1.572613 -0.830240
v -0.415121 -1.572613 -0.830240
v -1.245361 -1.572613 -1.245360
v -1.660481 -1.572613 -1.245360
v -1.660481 -1.572613 -0.830240
v -1.245361 -1.572613 -0.830240
v -2.075602 -1.572615 -5.396561
v -2.490722 -1.572615 -5.396561
v -2.490722 -1.572615 -4.981441
v -2.075602 -1.572615 -4.981441
v -2.075602 -1.572615 -6.226800
v -2.490722 -1.572615 -6.226800
v -2.490722 -1.572615 -5.811680
v -2.075602 -1.572615 -5.811680
v -2.905842 -1.572615 -6.226800
v -3.320962 -1.572615 -6.226800
v -3.320962 -1.572615 -5.811680
v -2.905842 -1.572615 -5.811680
v -0.415121 -1.572615 -5.396561
v -0.830241 -1.572615 -5.396561
v -0.830241 -1.572615 -4.981441
v -0.415121 -1.572615 -4.981441
v -0.415121 -1.572615 -6.226800
v -0.830241 -1.572615 -6.226800
v -0.830241 -1.572615 -5.811680
v -0.415121 -1.572615 -5.811680
v -1.245361 -1.572615 -6.226800
v -1.660481 -1.572615 -6.226800
v -1.660481 -1.572615 -5.811680
v -1.245361 -1.572615 -5.811680
v -0.415121 -1.572615 -3.736081
v -0.830241 -1.572615 -3.736081
v -0.830241 -1.572615 -3.320961
v -0.415121 -1.572615 -3.320961
v -0.415121 -1.572615 -4.566320
v -0.830241 -1.572615 -4.566320
v -0.830241 -1.572615 -4.151200
v -0.415121 -1.572615 -4.151200
v -1.245361 -1.572615 -4.566320
v -1.660481 -1.572615 -4.566320
v -1.660481 -1.572615 -4.151200
v -1.245361 -1.572615 -4.151200
v -5.396563 -1.572615 -5.396561
v -5.811683 -1.572615 -5.396561
v -5.811683 -1.572615 -4.981441
v -5.396563 -1.572615 -4.981441
v -5.396563 -1.572615 -6.226800
v -5.811683 -1.572615 -6.226800
v -5.811683 -1.572615 -5.811680
v -5.396563 -1.572615 -5.811680
v -6.226803 -1.572615 -6.226800
v -6.226803 -1.572615 -5.811680
v -3.736082 -1.572615 -5.396561
v -4.151202 -1.572615 -5.396561
v -4.151202 -1.572615 -4.981441
v -3.736082 -1.572615 -4.981441
v -3.736082 -1.572615 -6.226800
v -4.151202 -1.572615 -6.226800
v -4.151202 -1.572615 -5.811680
v -3.736082 -1.572615 -5.811680
v -4.566322 -1.572615 -6.226800
v -4.981442 -1.572615 -6.226800
v -4.981442 -1.572615 -5.811680
v -4.566322 -1.572615 -5.811680
v -3.736082 -1.572615 -3.736081
v -4.151202 -1.572615 -3.736081
v -4.151202 -1.572615 -3.320961
v -3.736082 -1.572615 -3.320961
v -3.736082 -1.572615 -4.566320
v -4.151202 -1.572615 -4.566320
v -4.151202 -1.572615 -4.151200
v -3.736082 -1.572615 -4.151200
v -4.566322 -1.572615 -4.566320
v -4.981442 -1.572615 -4.566320
v -4.981442 -1.572615 -4.151200
v -4.566322 -1.572615 -4.151200
v 4.566320 -1.572613 -2.075601
v 4.151200 -1.572613 -2.075601
v 4.151200 -1.572613 -1.660481
v 4.566320 -1.572613 -1.660481
v 4.566320 -1.572613 -2.905841
v 4.151200 -1.572613 -2.905841
v 4.151200 -1.572613 -2.490721
v 4.566320 -1.572613 -2.490721
v 3.736080 -1.572613 -2.905841
v 3.320960 -1.572613 -2.905841
v 3.320960 -1.572613 -2.490721
v 3.736080 -1.572613 -2.490721
v 6.226801 -1.572613 -2.075601
v 5.811681 -1.572613 -2.075601
v 5.811681 -1.572613 -1.660481
v 6.226801 -1.572613 -1.660481
v 6.226801 -1.572613 -2.905841
v 5.811681 -1.572613 -2.905841
v 5.811681 -1.572613 -2.490721
v 6.226801 -1.572613 -2.490721
v 5.396561 -1.572613 -2.905841
v 4.981441 -1.572613 -2.905841
v 4.981441 -1.572613 -2.490721
v 5.396561 -1.572613 -2.490721
v 6.226801 -1.572613 -0.415120
v 5.811681 -1.572613 -0.415120
v 5.811681 -1.572613 0.000000
v 6.226801 -1.572613 0.000000
v 6.226801 -1.572613 -1.245360
v 5.811681 -1.572613 -1.245360
v 5.811681 -1.572613 -0.830240
v 6.226801 -1.572613 -0.830240
v 5.396561 -1.572613 -1.245360
v 4.981441 -1.572613 -1.245360
v 4.981441 -1.572613 -0.830240
v 5.396561 -1.572613 -0.830240
v 4.566320 -1.572615 -5.396561
v 4.151200 -1.572615 -5.396561
v 4.151200 -1.572615 -4.981441
v 4.566320 -1.572615 -4.981441
v 4.566320 -1.572615 -6.226800
v 4.151200 -1.572615 -6.226800
v 4.151200 -1.572615 -5.811680
v 4.566320 -1.572615 -5.811680
v 3.736080 -1.572615 -6.226800
v 3.320960 -1.572615 -6.226800
v 3.320960 -1.572615 -5.811680
v 3.736080 -1.572615 -5.811680
v 6.226801 -1.572615 -5.396561
v 5.811681 -1.572615 -5.396561
v 5.811681 -1.572615 -4.981441
v 6.226801 -1.572615 -4.981441
v 6.226801 -1.572615 -6.226800
v 5.811681 -1.572615 -6.226800
v 5.811681 -1.572615 -5.811680
v 6.226801 -1.572615 -5.811680
v 5.396561 -1.572615 -6.226800
v 4.981441 -1.572615 -6.226800
v 4.981441 -1.572615 -5.811680
v 5.396561 -1.572615 -5.811680
v 6.226801 -1.572615 -3.736081
v 5.811681 -1.572615 -3.736081
v 5.811681 -1.572615 -3.320961
v 6.226801 -1.572615 -3.320961
v 6.226801 -1.572615 -4.566320
v 5.811681 -1.572615 -4.566320
v 5.811681 -1.572615 -4.151200
v 6.226801 -1.572615 -4.151200
v 5.396561 -1.572615 -4.566320
v 4.981441 -1.572615 -4.566320
v 4.981441 -1.572615 -4.151200
v 5.396561 -1.572615 -4.151200
v 1.245359 -1.572615 -5.396561
v 0.830239 -1.572615 -5.396561
v 0.830239 -1.572615 -4.981441
v 1.245359 -1.572615 -4.981441
v 1.245359 -1.572615 -6.226800
v 0.830239 -1.572615 -6.226800
v 0.830239 -1.572615 -5.811680
v 1.245359 -1.572615 -5.811680
v 0.415119 -1.572615 -6.226800
v -0.000001 -1.572615 -6.226800
v -0.000001 -1.572615 -5.811680
v 0.415119 -1.572615 -5.811680
v 2.905840 -1.572615 -5.396561
v 2.490720 -1.572615 -5.396561
v 2.490720 -1.572615 -4.981441
v 2.905840 -1.572615 -4.981441
v 2.905840 -1.572615 -6.226800
v 2.490720 -1.572615 -6.226800
v 2.490720 -1.572615 -5.811680
v 2.905840 -1.572615 -5.811680
v 2.075600 -1.572615 -6.226800
v 1.660480 -1.572615 -6.226800
v 1.660480 -1.572615 -5.811680
v 2.075600 -1.572615 -5.811680
v 2.905840 -1.572615 -3.736081
v 2.490720 -1.572615 -3.736081
v 2.490720 -1.572615 -3.320961
v 2.905840 -1.572615 -3.320961
v 2.905840 -1.572615 -4.566320
v 2.490720 -1.572615 -4.566320
v 2.490720 -1.572615 -4.151200
v 2.905840 -1.572615 -4.151200
v 2.075600 -1.572615 -4.566320
v 1.660480 -1.572615 -4.566320
v 1.660480 -1.572615 -4.151200
v 2.075600 -1.572615 -4.151200
v 4.566320 -1.572611 4.566321
v 4.151200 -1.572611 4.566321
v 4.151200 -1.572611 4.981441
v 4.566320 -1.572611 4.981441
v 4.566320 -1.572611 3.736080
v 4.151200 -1.572611 3.736080
v 4.151200 -1.572611 4.151201
v 4.566320 -1.572611 4.151201
v 3.736080 -1.572611 3.736080
v 3.320960 -1.572611 3.736080
v 3.320960 -1.572611 4.151201
v 3.736080 -1.572611 4.151201
v 6.226801 -1.572611 4.566321
v 5.811681 -1.572611 4.566321
v 5.811681 -1.572611 4.981441
v 6.226801 -1.572611 4.981441
v 6.226801 -1.572611 3.736080
v 5.811681 -1.572611 3.736080
v 5.811681 -1.572611 4.151201
v 6.226801 -1.572611 4.151201
v 5.396561 -1.572611 3.736080
v 4.981441 -1.572611 3.736080
v 4.981441 -1.572611 4.151201
v 5.396561 -1.572611 4.151201
v 6.226801 -1.572611 6.226801
v 5.811681 -1.572611 6.226801
v 6.226801 -1.572611 5.396562
v 5.811681 -1.572611 5.396562
v 5.811681 -1.572611 5.811681
v 6.226801 -1.572611 5.811681
v 5.396561 -1.572611 5.396562
v 4.981441 -1.572611 5.396562
v 4.981441 -1.572611 5.811681
v 5.396561 -1.572611 5.811681
v 4.566320 -1.572613 1.245360
v 4.151200 -1.572613 1.245360
v 4.151200 -1.572613 1.660480
v 4.566320 -1.572613 1.660480
v 4.566320 -1.572613 0.415120
v 4.151200 -1.572613 0.415120
v 4.151200 -1.572613 0.830240
v 4.566320 -1.572613 0.830240
v 3.736080 -1.572613 0.415120
v 3.320960 -1.572613 0.415120
v 3.320960 -1.572613 0.830240
v 3.736080 -1.572613 0.830240
v 6.226801 -1.572613 1.245360
v 5.811681 -1.572613 1.245360
v 5.811681 -1.572613 1.660480
v 6.226801 -1.572613 1.660480
v 6.226801 -1.572613 0.415120
v 5.811681 -1.572613 0.415120
v 5.811681 -1.572613 0.830240
v 6.226801 -1.572613 0.830240
v 5.396561 -1.572613 0.415120
v 4.981441 -1.572613 0.415120
v 4.981441 -1.572613 0.830240
v 5.396561 -1.572613 0.830240
v 6.226801 -1.572613 2.905840
v 5.811681 -1.572613 2.905840
v 5.811681 -1.572611 3.320961
v 6.226801 -1.572611 3.320961
v 6.226801 -1.572613 2.075600
v 5.811681 -1.572613 2.075600
v 5.811681 -1.572613 2.490720
v 6.226801 -1.572613 2.490720
v 5.396561 -1.572613 2.075600
v 4.981441 -1.572613 2.075600
v 4.981441 -1.572613 2.490720
v 5.396561 -1.572613 2.490720
v 1.245359 -1.572613 1.245360
v 0.830239 -1.572613 1.245360
v 0.830239 -1.572613 1.660480
v 1.245359 -1.572613 1.660480
v 1.245359 -1.572613 0.415120
v 0.830239 -1.572613 0.415120
v 0.830239 -1.572613 0.830240
v 1.245359 -1.572613 0.830240
v 0.415119 -1.572613 0.415120
v -0.000001 -1.572613 0.415120
v -0.000001 -1.572613 0.830240
v 0.415119 -1.572613 0.830240
v 2.905840 -1.572613 1.245360
v 2.490720 -1.572613 1.245360
v 2.490720 -1.572613 1.660480
v 2.905840 -1.572613 1.660480
v 2.905840 -1.572613 0.415120
v 2.490720 -1.572613 0.415120
v 2.490720 -1.572613 0.830240
v 2.905840 -1.572613 0.830240
v 2.075600 -1.572613 0.415120
v 1.660480 -1.572613 0.415120
v 1.660480 -1.572613 0.830240
v 2.075600 -1.572613 0.830240
v 2.905840 -1.572613 2.905840
v 2.490720 -1.572613 2.905840
v 2.490720 -1.572611 3.320961
v 2.905840 -1.572611 3.320961
v 2.905840 -1.572613 2.075600
v 2.490720 -1.572613 2.075600
v 2.490720 -1.572613 2.490720
v 2.905840 -1.572613 2.490720
v 2.075600 -1.572613 2.075600
v 1.660480 -1.572613 2.075600
v 1.660480 -1.572613 2.490720
v 2.075600 -1.572613 2.490720
v -2.075602 -1.572611 4.566321
v -2.490722 -1.572611 4.566321
v -2.490722 -1.572611 4.981441
v -2.075602 -1.572611 4.981441
v -2.075602 -1.572611 3.736080
v -2.490722 -1.572611 3.736080
v -2.490722 -1.572611 4.151201
v -2.075602 -1.572611 4.151201
v -2.905842 -1.572611 3.736080
v -3.320962 -1.572611 3.736080
v -3.320962 -1.572611 4.151201
v -2.905842 -1.572611 4.151201
v -0.415121 -1.572611 4.566321
v -0.830241 -1.572611 4.566321
v -0.830241 -1.572611 4.981441
v -0.415121 -1.572611 4.981441
v -0.415121 -1.572611 3.736080
v -0.830241 -1.572611 3.736080
v -0.830241 -1.572611 4.151201
v -0.415121 -1.572611 4.151201
v -1.245361 -1.572611 3.736080
v -1.660481 -1.572611 3.736080
v -1.660481 -1.572611 4.151201
v -1.245361 -1.572611 4.151201
v -0.415121 -1.572611 6.226801
v -0.830241 -1.572611 6.226801
v -0.415121 -1.572611 5.396562
v -0.830241 -1.572611 5.396562
v -0.830241 -1.572611 5.811681
v -0.415121 -1.572611 5.811681
v -1.245361 -1.572611 5.396562
v -1.660481 -1.572611 5.396562
v -1.660481 -1.572611 5.811681
v -1.245361 -1.572611 5.811681
v -2.075602 -1.572613 1.245360
v -2.490722 -1.572613 1.245360
v -2.490722 -1.572613 1.660480
v -2.075602 -1.572613 1.660480
v -2.075602 -1.572613 0.415120
v -2.490722 -1.572613 0.415120
v -2.490722 -1.572613 0.830240
v -2.075602 -1.572613 0.830240
v -2.905842 -1.572613 0.415120
v -3.320962 -1.572613 0.415120
v -3.320962 -1.572613 0.830240
v -2.905842 -1.572613 0.830240
v -0.415121 -1.572613 1.245360
v -0.830241 -1.572613 1.245360
v -0.830241 -1.572613 1.660480
v -0.415121 -1.572613 1.660480
v -0.415121 -1.572613 0.415120
v -0.830241 -1.572613 0.415120
v -0.830241 -1.572613 0.830240
v -0.415121 -1.572613 0.830240
v -1.245361 -1.572613 0.415120
v -1.660481 -1.572613 0.415120
v -1.660481 -1.572613 0.830240
v -1.245361 -1.572613 0.830240
v -0.415121 -1.572613 2.905840
v -0.830241 -1.572613 2.905840
v -0.830241 -1.572611 3.320961
v -0.415121 -1.572611 3.320961
v -0.415121 -1.572613 2.075600
v -0.830241 -1.572613 2.075600
v -0.830241 -1.572613 2.490720
v -0.415121 -1.572613 2.490720
v -1.245361 -1.572613 2.075600
v -1.660481 -1.572613 2.075600
v -1.660481 -1.572613 2.490720
v -1.245361 -1.572613 2.490720
v -5.396563 -1.572613 1.245360
v -5.811683 -1.572613 1.245360
v -5.811683 -1.572613 1.660480
v -5.396563 -1.572613 1.660480
v -5.396563 -1.572613 0.415120
v -5.811683 -1.572613 0.415120
v -5.811683 -1.572613 0.830240
v -5.396563 -1.572613 0.830240
v -6.226803 -1.572613 0.415120
v -6.226803 -1.572613 0.830240
v -3.736082 -1.572613 1.245360
v -4.151202 -1.572613 1.245360
v -4.151202 -1.572613 1.660480
v -3.736082 -1.572613 1.660480
v -3.736082 -1.572613 0.415120
v -4.151202 -1.572613 0.415120
v -4.151202 -1.572613 0.830240
v -3.736082 -1.572613 0.830240
v -4.566322 -1.572613 0.415120
v -4.981442 -1.572613 0.415120
v -4.981442 -1.572613 0.830240
v -4.566322 -1.572613 0.830240
v -3.736082 -1.572613 2.905840
v -4.151202 -1.572613 2.905840
v -4.151202 -1.572611 3.320961
v -3.736082 -1.572611 3.320961
v -3.736082 -1.572613 2.075600
v -4.151202 -1.572613 2.075600
v -4.151202 -1.572613 2.490720
v -3.736082 -1.572613 2.490720
v -4.566322 -1.572613 2.075600
v -4.981442 -1.572613 2.075600
v -4.981442 -1.572613 2.490720
v -4.566322 -1.572613 2.490720
v -5.396563 -1.572613 2.905840
v -5.811683 -1.572613 2.905840
v -5.811683 -1.572611 3.320961
v -5.396563 -1.572611 3.320961
v -5.396563 -1.572613 2.075600
v -5.811683 -1.572613 2.075600
v -5.811683 -1.572613 2.490720
v -5.396563 -1.572613 2.490720
v -6.226803 -1.572613 2.075600
v -6.226803 -1.572613 2.490720
v -2.075602 -1.572613 2.905840
v -2.490722 -1.572613 2.905840
v -2.490722 -1.572611 3.320961
v -2.075602 -1.572611 3.320961
v -2.075602 -1.572613 2.075600
v -2.490722 -1.572613 2.075600
v -2.490722 -1.572613 2.490720
v -2.075602 -1.572613 2.490720
v -2.905842 -1.572613 2.075600
v -3.320962 -1.572613 2.075600
v -3.320962 -1.572613 2.490720
v -2.905842 -1.572613 2.490720
v -2.075602 -1.572611 6.226801
v -2.490722 -1.572611 6.226801
v -2.075602 -1.572611 5.396562
v -2.490722 -1.572611 5.396562
v -2.490722 -1.572611 5.811681
v -2.075602 -1.572611 5.811681
v -2.905842 -1.572611 5.396562
v -3.320962 -1.572611 5.396562
v -3.320962 -1.572611 5.811681
v -2.905842 -1.572611 5.811681
v 1.245359 -1.572613 2.905840
v 0.830239 -1.572613 2.905840
v 0.830239 -1.572611 3.320961
v 1.245359 -1.572611 3.320961
v 1.245359 -1.572613 2.075600
v 0.830239 -1.572613 2.075600
v 0.830239 -1.572613 2.490720
v 1.245359 -1.572613 2.490720
v 0.415119 -1.572613 2.075600
v -0.000001 -1.572613 2.075600
v -0.000001 -1.572613 2.490720
v 0.415119 -1.572613 2.490720
v 4.566320 -1.572613 2.905840
v 4.151200 -1.572613 2.905840
v 4.151200 -1.572611 3.320961
v 4.566320 -1.572611 3.320961
v 4.566320 -1.572613 2.075600
v 4.151200 -1.572613 2.075600
v 4.151200 -1.572613 2.490720
v 4.566320 -1.572613 2.490720
v 3.736080 -1.572613 2.075600
v 3.320960 -1.572613 2.075600
v 3.320960 -1.572613 2.490720
v 3.736080 -1.572613 2.490720
v 4.566320 -1.572611 6.226801
v 4.151200 -1.572611 6.226801
v 4.566320 -1.572611 5.396562
v 4.151200 -1.572611 5.396562
v 4.151200 -1.572611 5.811681
v 4.566320 -1.572611 5.811681
v 3.736080 -1.572611 5.396562
v 3.320960 -1.572611 5.396562
v 3.320960 -1.572611 5.811681
v 3.736080 -1.572611 5.811681
v 1.245359 -1.572615 -3.736081
v 0.830239 -1.572615 -3.736081
v 0.830239 -1.572615 -3.320961
v 1.245359 -1.572615 -3.320961
v 1.245359 -1.572615 -4.566320
v 0.830239 -1.572615 -4.566320
v 0.830239 -1.572615 -4.151200
v 1.245359 -1.572615 -4.151200
v 0.415119 -1.572615 -4.566320
v -0.000001 -1.572615 -4.566320
v -0.000001 -1.572615 -4.151200
v 0.415119 -1.572615 -4.151200
v 4.566320 -1.572615 -3.736081
v 4.151200 -1.572615 -3.736081
v 4.151200 -1.572615 -3.320961
v 4.566320 -1.572615 -3.320961
v 4.566320 -1.572615 -4.566320
v 4.151200 -1.572615 -4.566320
v 4.151200 -1.572615 -4.151200
v 4.566320 -1.572615 -4.151200
v 3.736080 -1.572615 -4.566320
v 3.320960 -1.572615 -4.566320
v 3.320960 -1.572615 -4.151200
v 3.736080 -1.572615 -4.151200
v 4.566320 -1.572613 -0.415120
v 4.151200 -1.572613 -0.415120
v 4.151200 -1.572613 0.000000
v 4.566320 -1.572613 0.000000
v 4.566320 -1.572613 -1.245360
v 4.151200 -1.572613 -1.245360
v 4.151200 -1.572613 -0.830240
v 4.566320 -1.572613 -0.830240
v 3.736080 -1.572613 -1.245360
v 3.320960 -1.572613 -1.245360
v 3.320960 -1.572613 -0.830240
v 3.736080 -1.572613 -0.830240
v -5.396563 -1.572615 -3.736081
v -5.811683 -1.572615 -3.736081
v -5.811683 -1.572615 -3.320961
v -5.396563 -1.572615 -3.320961
v -5.396563 -1.572615 -4.566320
v -5.811683 -1.572615 -4.566320
v -5.811683 -1.572615 -4.151200
v -5.396563 -1.572615 -4.151200
v -6.226803 -1.572615 -4.566320
v -6.226803 -1.572615 -4.151200
v -2.075602 -1.572615 -3.736081
v -2.490722 -1.572615 -3.736081
v -2.490722 -1.572615 -3.320961
v -2.075602 -1.572615 -3.320961
v -2.075602 -1.572615 -4.566320
v -2.490722 -1.572615 -4.566320
v -2.490722 -1.572615 -4.151200
v -2.075602 -1.572615 -4.151200
v -2.905842 -1.572615 -4.566320
v -3.320962 -1.572615 -4.566320
v -3.320962 -1.572615 -4.151200
v -2.905842 -1.572615 -4.151200
v -2.075602 -1.572613 -0.415120
v -2.490722 -1.572613 -0.415120
v -2.490722 -1.572613 0.000000
v -2.075602 -1.572613 0.000000
v -2.075602 -1.572613 -1.245360
v -2.490722 -1.572613 -1.245360
v -2.490722 -1.572613 -0.830240
v -2.075602 -1.572613 -0.830240
v -2.905842 -1.572613 -1.245360
v -3.320962 -1.572613 -1.245360
v -3.320962 -1.572613 -0.830240
v -2.905842 -1.572613 -0.830240
v -5.396563 -1.572613 -0.415120
v -5.811683 -1.572613 -0.415120
v -5.811683 -1.572613 0.000000
v -5.396563 -1.572613 0.000000
v -5.396563 -1.572613 -1.245360
v -5.811683 -1.572613 -1.245360
v -5.811683 -1.572613 -0.830240
v -5.396563 -1.572613 -0.830240
v -6.226803 -1.572613 -1.245360
v -6.226803 -1.572613 -0.830240
v 1.245359 -1.572613 -0.415120
v 0.830239 -1.572613 -0.415120
v 0.830239 -1.572613 0.000000
v 1.245359 -1.572613 0.000000
v 1.245359 -1.572613 -1.245360
v 0.830239 -1.572613 -1.245360
v 0.830239 -1.572613 -0.830240
v 1.245359 -1.572613 -0.830240
v 0.415119 -1.572613 -1.245360
v -0.000001 -1.572613 -1.245360
v -0.000001 -1.572613 -0.830240
v 0.415119 -1.572613 -0.830240
v 1.245359 -1.572611 6.226801
v 0.830239 -1.572611 6.226801
v 1.245359 -1.572611 5.396562
v 0.830239 -1.572611 5.396562
v 0.830239 -1.572611 5.811681
v 1.245359 -1.572611 5.811681
v 0.415119 -1.572611 5.396562
v -0.000001 -1.572611 5.396562
v -0.000001 -1.572611 5.811681
v 0.415119 -1.572611 5.811681
v -5.396563 -1.572611 6.226801
v -5.811683 -1.572611 6.226801
v -5.396563 -1.572611 5.396562
v -5.811683 -1.572611 5.396562
v -5.811683 -1.572611 5.811681
v -5.396563 -1.572611 5.811681
v -6.226803 -1.572611 5.396562
v -6.226803 -1.572611 5.811681
v 6.641921 -1.572613 2.075600
v 6.641921 -1.572613 2.490720
v 6.641921 -1.572613 1.660480
v 6.641921 -1.572613 2.905840
v 6.641921 -1.572611 3.320961
v 6.641921 -1.572613 0.415120
v 6.641921 -1.572613 0.830240
v 6.641921 -1.572613 0.000000
v 6.641921 -1.572613 1.245360
v 6.641921 -1.572611 5.396562
v 6.641921 -1.572611 5.811681
v 6.641921 -1.572611 4.981441
v 6.641921 -1.572611 6.226801
v 6.641921 -1.572611 3.736080
v 6.641921 -1.572611 4.151201
v 6.641921 -1.572611 4.566321
v 6.641921 -1.572615 -4.566320
v 6.641921 -1.572615 -4.151200
v 6.641921 -1.572615 -4.981441
v 6.641921 -1.572615 -3.736081
v 6.641921 -1.572615 -3.320961
v 6.641921 -1.572615 -6.226800
v 6.641921 -1.572615 -5.811680
v 6.641921 -1.572615 -5.396561
v 6.641921 -1.572613 -1.245360
v 6.641921 -1.572613 -0.830240
v 6.641921 -1.572613 -1.660481
v 6.641921 -1.572613 -0.415120
v 6.641921 -1.572613 -2.905841
v 6.641921 -1.572613 -2.490721
v 6.641921 -1.572613 -2.075601
vn 0.0000 1.0000 0.0000
vn 0.0000 -0.0000 -1.0000
vn 1.0000 0.0000 0.0000
vn 0.0000 -1.0000 0.0000
vn -1.0000 0.0000 0.0000
vn 0.0000 0.0000 1.0000
vn -0.5628 -0.5771 -0.5918
vn -0.2535 0.5357 -0.8054
vn -0.7412 -0.2867 -0.6069
vn -0.9714 -0.2306 0.0569
vn -0.2329 -0.9442 0.2329
vn -0.0337 -0.9989 0.0337
vn 0.3933 -0.8310 -0.3933
vn -0.0952 -0.8269 -0.5542
vn -0.0091 -0.8998 -0.4361
vn -0.2016 -0.9585 -0.2016
vn -0.5427 -0.8362 0.0788
vn -0.9861 0.1048 0.1289
vn -0.2860 0.6044 0.7436
vn -0.0222 0.0470 0.9986
vn 0.3933 -0.8310 0.3933
vn -0.0919 -0.9410 0.3258
vn -0.0138 -0.9026 0.4302
vn -0.3933 -0.8310 -0.3933
vn -0.2441 -0.9386 -0.2441
vn -0.6143 -0.7132 -0.3375
vn -0.3375 -0.7132 -0.6143
vn -0.3933 -0.8310 0.3933
vn -0.3375 -0.7132 0.6143
vn -0.6143 -0.7132 0.3375
vn -0.2441 -0.9386 0.2441
vn -0.9856 0.0938 -0.1410
vn -0.9667 -0.2314 -0.1095
vn -0.5560 -0.8278 -0.0745
vn -0.4445 -0.8771 -0.1820
vn -0.0955 -0.9394 -0.3292
vn -0.1699 -0.8907 -0.4216
vn 0.0058 -0.0123 -0.9999
vn -0.8680 -0.4385 -0.2329
vn -0.4351 -0.8806 0.1877
vn -0.9670 -0.2492 -0.0524
vn -0.9676 -0.2283 0.1081
vn -0.7687 -0.2584 0.5851
vn -0.5875 -0.5622 0.5820
vn -0.1057 -0.8314 0.5455
vn -0.1716 -0.8905 0.4214
vn -0.0211 -0.9996 -0.0211
vn -0.8671 -0.4474 0.2191
vn -0.1114 -0.8983 -0.4251
vn -0.2441 -0.9385 -0.2441
vn -0.4251 -0.8983 -0.1114
vn -0.6585 -0.3645 -0.6585
vn -0.1114 -0.8983 0.4251
vn -0.6585 -0.3645 0.6585
vn -0.4251 -0.8983 0.1114
vn 0.5038 -0.4813 -0.7173
vn 0.8746 -0.4757 -0.0943
vn -0.9263 -0.3091 -0.2155
vn 0.4090 0.9125 0.0089
vn 0.7220 -0.6898 -0.0544
vn -0.7429 0.6671 -0.0552
vn 0.8905 0.4528 -0.0449
vn 0.0003 -0.9715 0.2371
vn -0.7301 0.6806 -0.0603
vn 0.9853 0.0760 -0.1530
vn -0.2555 -0.9445 0.2064
vn 0.2306 0.9705 0.0700
vn 0.8185 -0.5624 -0.1170
vn -0.5032 0.4519 -0.7366
vn 0.5716 0.2906 -0.7673
vn 0.6895 -0.3750 -0.6196
vn -0.5865 -0.1957 -0.7859
vn 0.2313 0.5160 -0.8248
usemtl Default_OBJ
s off
f 1//1 2//1 3//1 4//1
f 5//2 6//2 7//2 8//2 9//2 10//2 11//2 12//2 13//2 14//2 15//2 16//2 17//2 18//2 19//2 20//2 21//2 22//2 23//2 24//2 25//2 26//2 27//2 28//2 29//2 30//2 31//2 32//2 33//2 34//2 35//2 36//2 4//2 3//2 37//2
f 37//3 3//3 2//3 38//3 39//3 40//3 41//3 42//3 43//3 44//3 45//3 46//3 47//3 48//3 49//3 50//3 51//3 52//3 53//3 54//3 55//3 56//3 57//3 58//3 59//3 60//3 61//3 62//3 63//3 64//3 65//3 66//3 67//3 68//3 69//3
f 69//4 70//4 5//4 37//4
f 71//5 72//5 73//5
f 69//6 68//6 74//6 75//6 76//6 77//6 78//6 79//6 80//6 81//6 82//6 83//6 84//6 85//6 86//6 87//6 88//6 89//6 90//6 91//6 92//6 93//6 94//6 95//6 96//6 97//6 98//6 99//6 100//6 101//6 102//6 103//6 104//6 105//6 70//6
f 106//7 107//7 108//7
f 109//5 110//5 111//5
f 112//5 113//5 114//5 115//5
f 116//5 106//5 6//5
f 117//5 118//5 112//5 115//5
f 119//1 120//1 121//1 122//1
f 106//8 108//8 123//8
f 106//9 124//9 107//9
f 113//5 116//5 125//5
f 112//10 124//10 113//10
f 126//11 112//11 118//11
f 127//12 128//12 126//12
f 129//13 127//13 130//13
f 129//14 107//14 131//14
f 107//15 128//15 131//15
f 115//16 132//16 117//16
f 115//17 133//17 134//17
f 135//5 114//5 136//5
f 137//18 133//18 135//18
f 138//19 137//19 139//19
f 140//20 141//20 138//20
f 142//21 140//21 143//21
f 142//22 134//22 144//22
f 134//23 141//23 144//23
f 145//24 146//24 147//24
f 145//25 148//25 149//25
f 71//24 150//24 72//24
f 111//26 148//26 71//26
f 151//24 111//24 152//24
f 146//27 153//27 151//27
f 149//24 148//24 153//24
f 154//28 155//28 156//28
f 154//29 157//29 158//29
f 110//28 159//28 160//28
f 109//30 157//30 110//30
f 161//28 109//28 73//28
f 155//31 162//31 161//31
f 158//28 157//28 162//28
f 120//2 123//2 163//2 164//2
f 106//32 116//32 124//32
f 113//33 124//33 116//33
f 112//34 128//34 124//34
f 126//35 128//35 112//35
f 127//36 131//36 128//36
f 129//37 131//37 127//37
f 129//38 108//38 107//38
f 107//39 124//39 128//39
f 115//40 134//40 132//40
f 115//41 114//41 133//41
f 135//42 133//42 114//42
f 137//43 141//43 133//43
f 138//44 141//44 137//44
f 140//45 144//45 141//45
f 142//46 144//46 140//46
f 142//47 132//47 134//47
f 134//48 133//48 141//48
f 145//49 149//49 146//49
f 145//50 150//50 148//50
f 71//51 148//51 150//51
f 111//26 153//26 148//26
f 151//52 153//52 111//52
f 146//27 149//27 153//27
f 154//53 158//53 155//53
f 154//29 159//29 157//29
f 110//54 157//54 159//54
f 109//30 162//30 157//30
f 161//55 162//55 109//55
f 155//31 158//31 162//31
f 165//56 166//56 167//56
f 152//2 168//2 169//2 147//2 146//2 151//2
f 170//57 165//57 171//57
f 121//2 172//2 168//2 152//2
f 164//2 172//2 121//2 120//2
f 108//2 129//2 170//2
f 147//2 169//2 170//2 130//2
f 168//58 173//58 166//58
f 164//59 174//59 175//59
f 166//60 165//60 170//60
f 172//61 175//61 173//61
f 163//62 171//62 174//62
f 169//63 166//63 170//63
f 168//64 172//64 173//64
f 164//65 163//65 174//65
f 169//66 168//66 166//66
f 172//67 164//67 175//67
f 163//68 170//68 171//68
f 173//69 175//69 167//69
f 174//70 171//70 167//70
f 171//71 165//71 167//71
f 166//72 173//72 167//72
f 175//73 174//73 167//73
f 161//4 73//4 72//4 150//4
f 154//6 156//6 143//6 140//6
f 137//5 135//5 105//5
f 139//5 137//5 105//5 119//5
f 136//5 70//5 105//5 135//5
f 129//2 130//2 170//2
f 160//5 122//5 121//5 152//5 111//5 110//5
f 73//5 109//5 111//5 71//5
f 118//4 117//4 132//4 126//4
f 155//4 161//4 150//4 145//4
f 123//2 108//2 170//2 163//2
f 123//5 120//5 6//5 106//5
f 126//4 132//4 142//4 127//4
f 125//5 116//5 6//5 5//5
f 143//4 156//4 155//4 145//4 147//4 130//4 127//4 142//4
f 122//6 160//6 159//6 138//6 139//6 119//6
f 159//6 154//6 140//6 138//6
f 125//5 5//5 70//5 136//5 114//5 113//5
f 176//1 177//1 22//1 21//1
f 178//1 179//1 180//1 181//1
f 182//1 53//1 52//1 183//1
f 184//1 185//1 186//1 187//1
f 188//1 189//1 190//1 191//1
f 192//1 61//1 60//1 193//1
f 194//1 195//1 196//1 197//1
f 198//1 199//1 200//1 201//1
f 202//1 203//1 204//1 205//1
f 206//1 207//1 14//1 13//1
f 208//1 209//1 210//1 211//1
f 212//1 213//1 214//1 215//1
f 216//1 217//1 30//1 29//1
f 218//1 219//1 220//1 221//1
f 222//1 45//1 44//1 223//1
f 224//1 225//1 226//1 227//1
f 228//1 229//1 230//1 231//1
f 232//1 49//1 48//1 233//1
f 234//1 235//1 236//1 237//1
f 238//1 239//1 240//1 241//1
f 242//1 243//1 244//1 245//1
f 246//1 247//1 26//1 25//1
f 248//1 249//1 250//1 251//1
f 252//1 253//1 254//1 255//1
f 256//1 257//1 258//1 259//1
f 260//1 261//1 262//1 263//1
f 264//1 265//1 266//1 267//1
f 268//1 269//1 270//1 271//1
f 272//1 273//1 274//1 275//1
f 276//1 277//1 278//1 279//1
f 280//1 281//1 10//1 9//1
f 282//1 283//1 284//1 285//1
f 286//1 287//1 288//1 289//1
f 290//1 291//1 292//1 293//1
f 294//1 295//1 296//1 297//1
f 298//1 299//1 300//1 301//1
f 302//1 303//1 304//1 305//1
f 306//1 307//1 308//1 309//1
f 310//1 311//1 312//1 313//1
f 314//1 315//1 316//1 317//1
f 318//1 319//1 320//1 321//1
f 322//1 323//1 324//1 325//1
f 326//1 327//1 328//1 329//1
f 330//1 331//1 332//1 333//1
f 334//1 65//1 64//1 335//1
f 336//1 337//1 338//1 339//1
f 340//1 341//1 342//1 343//1
f 344//1 345//1 346//1 347//1
f 348//1 349//1 350//1 351//1
f 352//1 353//1 354//1 355//1
f 356//1 357//1 358//1 359//1
f 360//1 361//1 362//1 363//1
f 364//1 365//1 366//1 367//1
f 368//1 57//1 56//1 369//1
f 370//1 371//1 372//1 373//1
f 374//1 375//1 376//1 377//1
f 378//1 379//1 380//1 381//1
f 382//1 383//1 18//1 17//1
f 384//1 385//1 386//1 387//1
f 388//1 389//1 390//1 391//1
f 392//1 393//1 34//1 33//1
f 394//1 395//1 396//1 397//1
f 398//1 41//1 40//1 399//1
f 400//1 401//1 402//1 403//1
f 404//1 405//1 406//1 407//1
f 408//1 43//1 42//1 409//1
f 410//1 411//1 412//1 413//1
f 414//1 415//1 416//1 417//1
f 418//1 419//1 420//1 421//1
f 422//1 423//1 32//1 31//1
f 424//1 425//1 426//1 427//1
f 428//1 429//1 430//1 431//1
f 432//1 433//1 434//1 435//1
f 436//1 437//1 438//1 439//1
f 440//1 441//1 442//1 443//1
f 444//1 445//1 446//1 447//1
f 448//1 449//1 450//1 451//1
f 452//1 453//1 454//1 455//1
f 456//1 457//1 16//1 15//1
f 458//1 459//1 460//1 461//1
f 462//1 463//1 464//1 465//1
f 466//1 467//1 468//1 469//1
f 470//1 471//1 472//1 473//1
f 474//1 475//1 476//1 477//1
f 478//1 479//1 480//1 481//1
f 482//1 483//1 484//1 485//1
f 486//1 487//1 488//1 489//1
f 490//1 491//1 492//1 493//1
f 494//1 495//1 496//1 497//1
f 498//1 499//1 500//1 501//1
f 502//1 503//1 504//1 505//1
f 506//1 507//1 508//1 509//1
f 510//1 59//1 58//1 511//1
f 512//1 513//1 514//1 515//1
f 516//1 517//1 518//1 519//1
f 520//1 521//1 522//1 523//1
f 524//1 525//1 526//1 527//1
f 528//1 529//1 530//1 531//1
f 532//1 533//1 534//1 535//1
f 536//1 537//1 538//1 539//1
f 540//1 541//1 542//1 543//1
f 544//1 545//1 546//1 547//1
f 548//1 549//1 550//1 551//1
f 552//1 553//1 554//1 555//1
f 556//1 557//1 558//1 559//1
f 560//1 561//1 562//1 563//1
f 564//1 565//1 566//1 567//1
f 568//1 569//1 570//1 571//1
f 572//1 573//1 574//1 575//1
f 576//1 577//1 578//1 579//1
f 580//1 581//1 582//1 583//1
f 584//1 585//1 586//1 587//1
f 588//1 589//1 590//1 591//1
f 592//1 593//1 594//1 595//1
f 596//1 597//1 598//1 599//1
f 600//1 601//1 602//1 603//1
f 604//1 605//1 606//1 607//1
f 608//1 609//1 610//1 611//1
f 612//1 613//1 614//1 615//1
f 616//1 67//1 66//1 617//1
f 618//1 619//1 620//1 621//1
f 622//1 623//1 624//1 625//1
f 626//1 627//1 628//1 629//1
f 630//1 631//1 632//1 633//1
f 634//1 635//1 636//1 637//1
f 638//1 639//1 640//1 641//1
f 642//1 643//1 644//1 645//1
f 646//1 647//1 648//1 649//1
f 650//1 651//1 652//1 653//1
f 654//1 655//1 656//1 657//1
f 658//1 659//1 660//1 661//1
f 662//1 663//1 664//1 665//1
f 666//1 667//1 668//1 669//1
f 670//1 671//1 672//1 673//1
f 674//1 675//1 676//1 677//1
f 678//1 679//1 680//1 681//1
f 682//1 683//1 684//1 685//1
f 686//1 687//1 688//1 689//1
f 690//1 691//1 692//1 693//1
f 694//1 695//1 696//1 697//1
f 698//1 699//1 700//1 701//1
f 702//1 703//1 704//1 705//1
f 706//1 707//1 708//1 709//1
f 710//1 711//1 712//1 713//1
f 714//1 715//1 716//1 717//1
f 718//1 719//1 720//1 721//1
f 722//1 723//1 724//1 725//1
f 726//1 727//1 728//1 729//1
f 730//1 731//1 732//1 733//1
f 734//1 735//1 736//1 737//1
f 738//1 739//1 740//1 741//1
f 742//1 743//1 744//1 745//1
f 746//1 747//1 748//1 749//1
f 750//1 751//1 752//1 753//1
f 754//1 755//1 756//1 757//1
f 758//1 759//1 760//1 761//1
f 762//1 763//1 764//1 765//1
f 766//1 767//1 768//1 769//1
f 770//1 771//1 772//1 773//1
f 774//1 775//1 8//1 7//1
f 776//1 777//1 778//1 779//1
f 780//1 781//1 782//1 783//1
f 784//1 785//1 786//1 787//1
f 788//1 789//1 790//1 791//1
f 792//1 793//1 794//1 795//1
f 796//1 797//1 798//1 799//1
f 800//1 801//1 802//1 803//1
f 804//1 805//1 806//1 807//1
f 808//1 809//1 810//1 811//1
f 812//1 813//1 814//1 815//1
f 816//1 817//1 818//1 819//1
f 820//1 821//1 822//1 823//1
f 824//1 825//1 826//1 827//1
f 828//1 829//1 830//1 831//1
f 832//1 833//1 834//1 835//1
f 836//1 837//1 838//1 839//1
f 840//1 841//1 842//1 843//1
f 844//1 845//1 846//1 847//1
f 848//1 849//1 850//1 851//1
f 852//1 853//1 854//1 855//1
f 856//1 857//1 858//1 859//1
f 860//1 861//1 862//1 863//1
f 864//1 865//1 866//1 867//1
f 868//1 869//1 870//1 871//1
f 872//1 873//1 874//1 875//1
f 876//1 877//1 878//1 879//1
f 880//1 881//1 24//1 23//1
f 882//1 883//1 884//1 885//1
f 886//1 887//1 888//1 889//1
f 890//1 891//1 892//1 893//1
f 894//1 895//1 896//1 897//1
f 898//1 899//1 900//1 901//1
f 902//1 903//1 904//1 905//1
f 906//1 907//1 908//1 909//1
f 910//1 911//1 912//1 913//1
f 914//1 915//1 916//1 917//1
f 918//1 919//1 920//1 921//1
f 922//1 923//1 924//1 925//1
f 926//1 927//1 928//1 929//1
f 930//1 931//1 932//1 933//1
f 934//1 51//1 50//1 935//1
f 936//1 937//1 938//1 939//1
f 940//1 941//1 942//1 943//1
f 944//1 945//1 946//1 947//1
f 948//1 949//1 950//1 951//1
f 952//1 953//1 954//1 955//1
f 956//1 957//1 958//1 959//1
f 960//1 961//1 962//1 963//1
f 964//1 965//1 966//1 967//1
f 968//1 47//1 46//1 969//1
f 970//1 971//1 972//1 973//1
f 974//1 975//1 976//1 977//1
f 978//1 979//1 980//1 981//1
f 982//1 983//1 28//1 27//1
f 984//1 985//1 986//1 987//1
f 988//1 989//1 990//1 991//1
f 992//1 993//1 994//1 995//1
f 996//1 997//1 998//1 999//1
f 1000//1 1001//1 1002//1 1003//1
f 1004//1 1005//1 1006//1 1007//1
f 1008//1 1009//1 1010//1 1011//1
f 1012//1 1013//1 1014//1 1015//1
f 1016//1 1017//1 12//1 11//1
f 1018//1 1019//1 1020//1 1021//1
f 1022//1 1023//1 1024//1 1025//1
f 1026//1 1027//1 1028//1 1029//1
f 1030//1 1031//1 1032//1 1033//1
f 1034//1 1035//1 1036//1 1037//1
f 1038//1 1039//1 1040//1 1041//1
f 1042//1 1043//1 1044//1 1045//1
f 1046//1 1047//1 1048//1 1049//1
f 1050//1 1051//1 1052//1 1053//1
f 1054//1 1055//1 1056//1 1057//1
f 1058//1 1059//1 1060//1 1061//1
f 1062//1 1063//1 1064//1 1065//1
f 1066//1 1067//1 1068//1 1069//1
f 1070//1 63//1 62//1 1071//1
f 1072//1 1073//1 1074//1 1075//1
f 1076//1 1077//1 1078//1 1079//1
f 1080//1 1081//1 1082//1 1083//1
f 1084//1 1085//1 1086//1 1087//1
f 1088//1 1089//1 1090//1 1091//1
f 1092//1 1093//1 1094//1 1095//1
f 1096//1 1097//1 1098//1 1099//1
f 1100//1 1101//1 1102//1 1103//1
f 1104//1 55//1 54//1 1105//1
f 1106//1 1107//1 1108//1 1109//1
f 1110//1 1111//1 1112//1 1113//1
f 1114//1 1115//1 1116//1 1117//1
f 1118//1 1119//1 20//1 19//1
f 1120//1 1121//1 1122//1 1123//1
f 1124//1 1125//1 1126//1 1127//1
f 1128//1 1129//1 36//1 35//1
f 1130//1 1131//1 1132//1 1133//1
f 1134//1 39//1 38//1 1135//1
f 1131//1 1134//1 1135//1 1132//1
f 402//1 399//1 1134//1 1131//1
f 399//1 40//1 39//1 1134//1
f 429//1 1130//1 1133//1 430//1
f 396//1 403//1 1130//1 429//1
f 403//1 402//1 1131//1 1130//1
f 393//1 1128//1 35//1 34//1
f 430//1 1133//1 1128//1 393//1
f 1133//1 1132//1 1129//1 1128//1
f 1121//1 1124//1 1127//1 1122//1
f 434//1 391//1 1124//1 1121//1
f 391//1 390//1 1125//1 1124//1
f 463//1 1120//1 1123//1 464//1
f 386//1 435//1 1120//1 463//1
f 435//1 434//1 1121//1 1120//1
f 383//1 1118//1 19//1 18//1
f 464//1 1123//1 1118//1 383//1
f 1123//1 1122//1 1119//1 1118//1
f 1111//1 1114//1 1117//1 1112//1
f 468//1 381//1 1114//1 1111//1
f 381//1 380//1 1115//1 1114//1
f 499//1 1110//1 1113//1 500//1
f 376//1 469//1 1110//1 499//1
f 469//1 468//1 1111//1 1110//1
f 371//1 1106//1 1109//1 372//1
f 500//1 1113//1 1106//1 371//1
f 1113//1 1112//1 1107//1 1106//1
f 1101//1 1104//1 1105//1 1102//1
f 504//1 369//1 1104//1 1101//1
f 369//1 56//1 55//1 1104//1
f 533//1 1100//1 1103//1 534//1
f 366//1 505//1 1100//1 533//1
f 505//1 504//1 1101//1 1100//1
f 361//1 1096//1 1099//1 362//1
f 534//1 1103//1 1096//1 361//1
f 1103//1 1102//1 1097//1 1096//1
f 1089//1 1092//1 1095//1 1090//1
f 538//1 359//1 1092//1 1089//1
f 359//1 358//1 1093//1 1092//1
f 569//1 1088//1 1091//1 570//1
f 354//1 539//1 1088//1 569//1
f 539//1 538//1 1089//1 1088//1
f 349//1 1084//1 1087//1 350//1
f 570//1 1091//1 1084//1 349//1
f 1091//1 1090//1 1085//1 1084//1
f 1077//1 1080//1 1083//1 1078//1
f 574//1 347//1 1080//1 1077//1
f 347//1 346//1 1081//1 1080//1
f 605//1 1076//1 1079//1 606//1
f 342//1 575//1 1076//1 605//1
f 575//1 574//1 1077//1 1076//1
f 337//1 1072//1 1075//1 338//1
f 606//1 1079//1 1072//1 337//1
f 1079//1 1078//1 1073//1 1072//1
f 1067//1 1070//1 1071//1 1068//1
f 610//1 335//1 1070//1 1067//1
f 335//1 64//1 63//1 1070//1
f 639//1 1066//1 1069//1 640//1
f 332//1 611//1 1066//1 639//1
f 611//1 610//1 1067//1 1066//1
f 327//1 1062//1 1065//1 328//1
f 640//1 1069//1 1062//1 327//1
f 1069//1 1068//1 1063//1 1062//1
f 1055//1 1058//1 1061//1 1056//1
f 644//1 325//1 1058//1 1055//1
f 325//1 324//1 1059//1 1058//1
f 675//1 1054//1 1057//1 676//1
f 320//1 645//1 1054//1 675//1
f 645//1 644//1 1055//1 1054//1
f 315//1 1050//1 1053//1 316//1
f 676//1 1057//1 1050//1 315//1
f 1057//1 1056//1 1051//1 1050//1
f 1043//1 1046//1 1049//1 1044//1
f 680//1 313//1 1046//1 1043//1
f 313//1 312//1 1047//1 1046//1
f 711//1 1042//1 1045//1 712//1
f 308//1 681//1 1042//1 711//1
f 681//1 680//1 1043//1 1042//1
f 303//1 1038//1 1041//1 304//1
f 712//1 1045//1 1038//1 303//1
f 1045//1 1044//1 1039//1 1038//1
f 1031//1 1034//1 1037//1 1032//1
f 716//1 301//1 1034//1 1031//1
f 301//1 300//1 1035//1 1034//1
f 747//1 1030//1 1033//1 748//1
f 296//1 717//1 1030//1 747//1
f 717//1 716//1 1031//1 1030//1
f 291//1 1026//1 1029//1 292//1
f 748//1 1033//1 1026//1 291//1
f 1033//1 1032//1 1027//1 1026//1
f 1019//1 1022//1 1025//1 1020//1
f 752//1 289//1 1022//1 1019//1
f 289//1 288//1 1023//1 1022//1
f 781//1 1018//1 1021//1 782//1
f 284//1 753//1 1018//1 781//1
f 753//1 752//1 1019//1 1018//1
f 281//1 1016//1 11//1 10//1
f 782//1 1021//1 1016//1 281//1
f 1021//1 1020//1 1017//1 1016//1
f 1009//1 1012//1 1015//1 1010//1
f 786//1 279//1 1012//1 1009//1
f 279//1 278//1 1013//1 1012//1
f 817//1 1008//1 1011//1 818//1
f 274//1 787//1 1008//1 817//1
f 787//1 786//1 1009//1 1008//1
f 269//1 1004//1 1007//1 270//1
f 818//1 1011//1 1004//1 269//1
f 1011//1 1010//1 1005//1 1004//1
f 997//1 1000//1 1003//1 998//1
f 822//1 267//1 1000//1 997//1
f 267//1 266//1 1001//1 1000//1
f 853//1 996//1 999//1 854//1
f 262//1 823//1 996//1 853//1
f 823//1 822//1 997//1 996//1
f 257//1 992//1 995//1 258//1
f 854//1 999//1 992//1 257//1
f 999//1 998//1 993//1 992//1
f 985//1 988//1 991//1 986//1
f 858//1 255//1 988//1 985//1
f 255//1 254//1 989//1 988//1
f 887//1 984//1 987//1 888//1
f 250//1 859//1 984//1 887//1
f 859//1 858//1 985//1 984//1
f 247//1 982//1 27//1 26//1
f 888//1 987//1 982//1 247//1
f 987//1 986//1 983//1 982//1
f 975//1 978//1 981//1 976//1
f 892//1 245//1 978//1 975//1
f 245//1 244//1 979//1 978//1
f 923//1 974//1 977//1 924//1
f 240//1 893//1 974//1 923//1
f 893//1 892//1 975//1 974//1
f 235//1 970//1 973//1 236//1
f 924//1 977//1 970//1 235//1
f 977//1 976//1 971//1 970//1
f 965//1 968//1 969//1 966//1
f 928//1 233//1 968//1 965//1
f 233//1 48//1 47//1 968//1
f 957//1 964//1 967//1 958//1
f 230//1 929//1 964//1 957//1
f 929//1 928//1 965//1 964//1
f 225//1 960//1 963//1 226//1
f 958//1 967//1 960//1 225//1
f 967//1 966//1 961//1 960//1
f 953//1 956//1 959//1 954//1
f 938//1 231//1 956//1 953//1
f 231//1 230//1 957//1 956//1
f 979//1 952//1 955//1 980//1
f 244//1 939//1 952//1 979//1
f 939//1 938//1 953//1 952//1
f 219//1 948//1 951//1 220//1
f 980//1 955//1 948//1 219//1
f 955//1 954//1 949//1 948//1
f 941//1 944//1 947//1 942//1
f 526//1 363//1 944//1 941//1
f 363//1 362//1 945//1 944//1
f 899//1 940//1 943//1 900//1
f 186//1 527//1 940//1 899//1
f 527//1 526//1 941//1 940//1
f 243//1 936//1 939//1 244//1
f 900//1 943//1 936//1 243//1
f 943//1 942//1 937//1 936//1
f 931//1 934//1 935//1 932//1
f 1098//1 183//1 934//1 931//1
f 183//1 52//1 51//1 934//1
f 945//1 930//1 933//1 946//1
f 362//1 1099//1 930//1 945//1
f 1099//1 1098//1 931//1 930//1
f 229//1 926//1 929//1 230//1
f 946//1 933//1 926//1 229//1
f 933//1 932//1 927//1 926//1
f 919//1 922//1 925//1 920//1
f 904//1 241//1 922//1 919//1
f 241//1 240//1 923//1 922//1
f 1001//1 918//1 921//1 1002//1
f 266//1 905//1 918//1 1001//1
f 905//1 904//1 919//1 918//1
f 213//1 914//1 917//1 214//1
f 1002//1 921//1 914//1 213//1
f 921//1 920//1 915//1 914//1
f 907//1 910//1 913//1 908//1
f 562//1 351//1 910//1 907//1
f 351//1 350//1 911//1 910//1
f 829//1 906//1 909//1 830//1
f 180//1 563//1 906//1 829//1
f 563//1 562//1 907//1 906//1
f 265//1 902//1 905//1 266//1
f 830//1 909//1 902//1 265//1
f 909//1 908//1 903//1 902//1
f 895//1 898//1 901//1 896//1
f 1086//1 187//1 898//1 895//1
f 187//1 186//1 899//1 898//1
f 911//1 894//1 897//1 912//1
f 350//1 1087//1 894//1 911//1
f 1087//1 1086//1 895//1 894//1
f 239//1 890//1 893//1 240//1
f 912//1 897//1 890//1 239//1
f 897//1 896//1 891//1 890//1
f 883//1 886//1 889//1 884//1
f 870//1 251//1 886//1 883//1
f 251//1 250//1 887//1 886//1
f 1125//1 882//1 885//1 1126//1
f 390//1 871//1 882//1 1125//1
f 871//1 870//1 883//1 882//1
f 177//1 880//1 23//1 22//1
f 1126//1 885//1 880//1 177//1
f 885//1 884//1 881//1 880//1
f 873//1 876//1 879//1 874//1
f 916//1 237//1 876//1 873//1
f 237//1 236//1 877//1 876//1
f 441//1 872//1 875//1 442//1
f 214//1 917//1 872//1 441//1
f 917//1 916//1 873//1 872//1
f 389//1 868//1 871//1 390//1
f 442//1 875//1 868//1 389//1
f 875//1 874//1 869//1 868//1
f 861//1 864//1 867//1 862//1
f 972//1 221//1 864//1 861//1
f 221//1 220//1 865//1 864//1
f 877//1 860//1 863//1 878//1
f 236//1 973//1 860//1 877//1
f 973//1 972//1 861//1 860//1
f 249//1 856//1 859//1 250//1
f 878//1 863//1 856//1 249//1
f 863//1 862//1 857//1 856//1
f 849//1 852//1 855//1 850//1
f 834//1 263//1 852//1 849//1
f 263//1 262//1 853//1 852//1
f 1013//1 848//1 851//1 1014//1
f 278//1 835//1 848//1 1013//1
f 835//1 834//1 849//1 848//1
f 209//1 844//1 847//1 210//1
f 1014//1 851//1 844//1 209//1
f 851//1 850//1 845//1 844//1
f 837//1 840//1 843//1 838//1
f 492//1 373//1 840//1 837//1
f 373//1 372//1 841//1 840//1
f 793//1 836//1 839//1 794//1
f 196//1 493//1 836//1 793//1
f 493//1 492//1 837//1 836//1
f 277//1 832//1 835//1 278//1
f 794//1 839//1 832//1 277//1
f 839//1 838//1 833//1 832//1
f 825//1 828//1 831//1 826//1
f 1108//1 181//1 828//1 825//1
f 181//1 180//1 829//1 828//1
f 841//1 824//1 827//1 842//1
f 372//1 1109//1 824//1 841//1
f 1109//1 1108//1 825//1 824//1
f 261//1 820//1 823//1 262//1
f 842//1 827//1 820//1 261//1
f 827//1 826//1 821//1 820//1
f 813//1 816//1 819//1 814//1
f 798//1 275//1 816//1 813//1
f 275//1 274//1 817//1 816//1
f 1136//1 812//1 815//1 1137//1
f 1138//1 799//1 812//1 1136//1
f 799//1 798//1 813//1 812//1
f 1139//1 808//1 811//1 1140//1
f 1137//1 815//1 808//1 1139//1
f 815//1 814//1 809//1 808//1
f 801//1 804//1 807//1 802//1
f 668//1 317//1 804//1 801//1
f 317//1 316//1 805//1 804//1
f 1141//1 800//1 803//1 1142//1
f 1143//1 669//1 800//1 1141//1
f 669//1 668//1 801//1 800//1
f 1144//1 796//1 799//1 1138//1
f 1142//1 803//1 796//1 1144//1
f 803//1 802//1 797//1 796//1
f 789//1 792//1 795//1 790//1
f 1052//1 197//1 792//1 789//1
f 197//1 196//1 793//1 792//1
f 805//1 788//1 791//1 806//1
f 316//1 1053//1 788//1 805//1
f 1053//1 1052//1 789//1 788//1
f 273//1 784//1 787//1 274//1
f 806//1 791//1 784//1 273//1
f 791//1 790//1 785//1 784//1
f 777//1 780//1 783//1 778//1
f 764//1 285//1 780//1 777//1
f 285//1 284//1 781//1 780//1
f 1145//1 776//1 779//1 1146//1
f 1147//1 765//1 776//1 1145//1
f 765//1 764//1 777//1 776//1
f 1148//1 774//1 7//1 6//1
f 1146//1 779//1 774//1 1148//1
f 779//1 778//1 775//1 774//1
f 767//1 770//1 773//1 768//1
f 810//1 271//1 770//1 767//1
f 271//1 270//1 771//1 770//1
f 1149//1 766//1 769//1 1150//1
f 1140//1 811//1 766//1 1149//1
f 811//1 810//1 767//1 766//1
f 1151//1 762//1 765//1 1147//1
f 1150//1 769//1 762//1 1151//1
f 769//1 768//1 763//1 762//1
f 755//1 758//1 761//1 756//1
f 1006//1 211//1 758//1 755//1
f 211//1 210//1 759//1 758//1
f 771//1 754//1 757//1 772//1
f 270//1 1007//1 754//1 771//1
f 1007//1 1006//1 755//1 754//1
f 283//1 750//1 753//1 284//1
f 772//1 757//1 750//1 283//1
f 757//1 756//1 751//1 750//1
f 743//1 746//1 749//1 744//1
f 728//1 297//1 746//1 743//1
f 297//1 296//1 747//1 746//1
f 1047//1 742//1 745//1 1048//1
f 312//1 729//1 742//1 1047//1
f 729//1 728//1 743//1 742//1
f 199//1 738//1 741//1 200//1
f 1048//1 745//1 738//1 199//1
f 745//1 744//1 739//1 738//1
f 731//1 734//1 737//1 732//1
f 95//1 94//1 734//1 731//1
f 94//1 93//1 735//1 734//1
f 687//1 730//1 733//1 688//1
f 97//1 96//1 730//1 687//1
f 96//1 95//1 731//1 730//1
f 311//1 726//1 729//1 312//1
f 688//1 733//1 726//1 311//1
f 733//1 732//1 727//1 726//1
f 719//1 722//1 725//1 720//1
f 91//1 90//1 722//1 719//1
f 90//1 89//1 723//1 722//1
f 735//1 718//1 721//1 736//1
f 93//1 92//1 718//1 735//1
f 92//1 91//1 719//1 718//1
f 295//1 714//1 717//1 296//1
f 736//1 721//1 714//1 295//1
f 721//1 720//1 715//1 714//1
f 707//1 710//1 713//1 708//1
f 692//1 309//1 710//1 707//1
f 309//1 308//1 711//1 710//1
f 1152//1 706//1 709//1 1153//1
f 1154//1 693//1 706//1 1152//1
f 693//1 692//1 707//1 706//1
f 1155//1 702//1 705//1 1156//1
f 1153//1 709//1 702//1 1155//1
f 709//1 708//1 703//1 702//1
f 695//1 698//1 701//1 696//1
f 103//1 102//1 698//1 695//1
f 102//1 101//1 699//1 698//1
f 1157//1 694//1 697//1 1158//1
f 105//1 104//1 694//1 1157//1
f 104//1 103//1 695//1 694//1
f 1159//1 690//1 693//1 1154//1
f 1158//1 697//1 690//1 1159//1
f 697//1 696//1 691//1 690//1
f 683//1 686//1 689//1 684//1
f 99//1 98//1 686//1 683//1
f 98//1 97//1 687//1 686//1
f 699//1 682//1 685//1 700//1
f 101//1 100//1 682//1 699//1
f 100//1 99//1 683//1 682//1
f 307//1 678//1 681//1 308//1
f 700//1 685//1 678//1 307//1
f 685//1 684//1 679//1 678//1
f 671//1 674//1 677//1 672//1
f 656//1 321//1 674//1 671//1
f 321//1 320//1 675//1 674//1
f 1160//1 670//1 673//1 1161//1
f 1162//1 657//1 670//1 1160//1
f 657//1 656//1 671//1 670//1
f 1163//1 666//1 669//1 1143//1
f 1161//1 673//1 666//1 1163//1
f 673//1 672//1 667//1 666//1
f 659//1 662//1 665//1 660//1
f 704//1 305//1 662//1 659//1
f 305//1 304//1 663//1 662//1
f 1164//1 658//1 661//1 1165//1
f 1156//1 705//1 658//1 1164//1
f 705//1 704//1 659//1 658//1
f 1166//1 654//1 657//1 1162//1
f 1165//1 661//1 654//1 1166//1
f 661//1 660//1 655//1 654//1
f 647//1 650//1 653//1 648//1
f 1040//1 201//1 650//1 647//1
f 201//1 200//1 651//1 650//1
f 663//1 646//1 649//1 664//1
f 304//1 1041//1 646//1 663//1
f 1041//1 1040//1 647//1 646//1
f 319//1 642//1 645//1 320//1
f 664//1 649//1 642//1 319//1
f 649//1 648//1 643//1 642//1
f 635//1 638//1 641//1 636//1
f 620//1 333//1 638//1 635//1
f 333//1 332//1 639//1 638//1
f 1081//1 634//1 637//1 1082//1
f 346//1 621//1 634//1 1081//1
f 621//1 620//1 635//1 634//1
f 189//1 630//1 633//1 190//1
f 1082//1 637//1 630//1 189//1
f 637//1 636//1 631//1 630//1
f 623//1 626//1 629//1 624//1
f 79//1 78//1 626//1 623//1
f 78//1 77//1 627//1 626//1
f 581//1 622//1 625//1 582//1
f 81//1 80//1 622//1 581//1
f 80//1 79//1 623//1 622//1
f 345//1 618//1 621//1 346//1
f 582//1 625//1 618//1 345//1
f 625//1 624//1 619//1 618//1
f 613//1 616//1 617//1 614//1
f 75//1 74//1 616//1 613//1
f 74//1 68//1 67//1 616//1
f 627//1 612//1 615//1 628//1
f 77//1 76//1 612//1 627//1
f 76//1 75//1 613//1 612//1
f 331//1 608//1 611//1 332//1
f 628//1 615//1 608//1 331//1
f 615//1 614//1 609//1 608//1
f 601//1 604//1 607//1 602//1
f 586//1 343//1 604//1 601//1
f 343//1 342//1 605//1 604//1
f 1035//1 600//1 603//1 1036//1
f 300//1 587//1 600//1 1035//1
f 587//1 586//1 601//1 600//1
f 203//1 596//1 599//1 204//1
f 1036//1 603//1 596//1 203//1
f 603//1 602//1 597//1 596//1
f 589//1 592//1 595//1 590//1
f 87//1 86//1 592//1 589//1
f 86//1 85//1 593//1 592//1
f 723//1 588//1 591//1 724//1
f 89//1 88//1 588//1 723//1
f 88//1 87//1 589//1 588//1
f 299//1 584//1 587//1 300//1
f 724//1 591//1 584//1 299//1
f 591//1 590//1 585//1 584//1
f 577//1 580//1 583//1 578//1
f 83//1 82//1 580//1 577//1
f 82//1 81//1 581//1 580//1
f 593//1 576//1 579//1 594//1
f 85//1 84//1 576//1 593//1
f 84//1 83//1 577//1 576//1
f 341//1 572//1 575//1 342//1
f 594//1 579//1 572//1 341//1
f 579//1 578//1 573//1 572//1
f 565//1 568//1 571//1 566//1
f 550//1 355//1 568//1 565//1
f 355//1 354//1 569//1 568//1
f 1115//1 564//1 567//1 1116//1
f 380//1 551//1 564//1 1115//1
f 551//1 550//1 565//1 564//1
f 179//1 560//1 563//1 180//1
f 1116//1 567//1 560//1 179//1
f 567//1 566//1 561//1 560//1
f 553//1 556//1 559//1 554//1
f 598//1 339//1 556//1 553//1
f 339//1 338//1 557//1 556//1
f 475//1 552//1 555//1 476//1
f 204//1 599//1 552//1 475//1
f 599//1 598//1 553//1 552//1
f 379//1 548//1 551//1 380//1
f 476//1 555//1 548//1 379//1
f 555//1 554//1 549//1 548//1
f 541//1 544//1 547//1 542//1
f 1074//1 191//1 544//1 541//1
f 191//1 190//1 545//1 544//1
f 557//1 540//1 543//1 558//1
f 338//1 1075//1 540//1 557//1
f 1075//1 1074//1 541//1 540//1
f 353//1 536//1 539//1 354//1
f 558//1 543//1 536//1 353//1
f 543//1 542//1 537//1 536//1
f 529//1 532//1 535//1 530//1
f 514//1 367//1 532//1 529//1
f 367//1 366//1 533//1 532//1
f 1093//1 528//1 531//1 1094//1
f 358//1 515//1 528//1 1093//1
f 515//1 514//1 529//1 528//1
f 185//1 524//1 527//1 186//1
f 1094//1 531//1 524//1 185//1
f 531//1 530//1 525//1 524//1
f 517//1 520//1 523//1 518//1
f 632//1 329//1 520//1 517//1
f 329//1 328//1 521//1 520//1
f 545//1 516//1 519//1 546//1
f 190//1 633//1 516//1 545//1
f 633//1 632//1 517//1 516//1
f 357//1 512//1 515//1 358//1
f 546//1 519//1 512//1 357//1
f 519//1 518//1 513//1 512//1
f 507//1 510//1 511//1 508//1
f 1064//1 193//1 510//1 507//1
f 193//1 60//1 59//1 510//1
f 521//1 506//1 509//1 522//1
f 328//1 1065//1 506//1 521//1
f 1065//1 1064//1 507//1 506//1
f 365//1 502//1 505//1 366//1
f 522//1 509//1 502//1 365//1
f 509//1 508//1 503//1 502//1
f 495//1 498//1 501//1 496//1
f 480//1 377//1 498//1 495//1
f 377//1 376//1 499//1 498//1
f 1059//1 494//1 497//1 1060//1
f 324//1 481//1 494//1 1059//1
f 481//1 480//1 495//1 494//1
f 195//1 490//1 493//1 196//1
f 1060//1 497//1 490//1 195//1
f 497//1 496//1 491//1 490//1
f 483//1 486//1 489//1 484//1
f 740//1 293//1 486//1 483//1
f 293//1 292//1 487//1 486//1
f 651//1 482//1 485//1 652//1
f 200//1 741//1 482//1 651//1
f 741//1 740//1 483//1 482//1
f 323//1 478//1 481//1 324//1
f 652//1 485//1 478//1 323//1
f 485//1 484//1 479//1 478//1
f 471//1 474//1 477//1 472//1
f 1028//1 205//1 474//1 471//1
f 205//1 204//1 475//1 474//1
f 487//1 470//1 473//1 488//1
f 292//1 1029//1 470//1 487//1
f 1029//1 1028//1 471//1 470//1
f 375//1 466//1 469//1 376//1
f 488//1 473//1 466//1 375//1
f 473//1 472//1 467//1 466//1
f 459//1 462//1 465//1 460//1
f 446//1 387//1 462//1 459//1
f 387//1 386//1 463//1 462//1
f 1023//1 458//1 461//1 1024//1
f 288//1 447//1 458//1 1023//1
f 447//1 446//1 459//1 458//1
f 207//1 456//1 15//1 14//1
f 1024//1 461//1 456//1 207//1
f 461//1 460//1 457//1 456//1
f 449//1 452//1 455//1 450//1
f 846//1 259//1 452//1 449//1
f 259//1 258//1 453//1 452//1
f 759//1 448//1 451//1 760//1
f 210//1 847//1 448//1 759//1
f 847//1 846//1 449//1 448//1
f 287//1 444//1 447//1 288//1
f 760//1 451//1 444//1 287//1
f 451//1 450//1 445//1 444//1
f 437//1 440//1 443//1 438//1
f 994//1 215//1 440//1 437//1
f 215//1 214//1 441//1 440//1
f 453//1 436//1 439//1 454//1
f 258//1 995//1 436//1 453//1
f 995//1 994//1 437//1 436//1
f 385//1 432//1 435//1 386//1
f 454//1 439//1 432//1 385//1
f 439//1 438//1 433//1 432//1
f 425//1 428//1 431//1 426//1
f 412//1 397//1 428//1 425//1
f 397//1 396//1 429//1 428//1
f 989//1 424//1 427//1 990//1
f 254//1 413//1 424//1 989//1
f 413//1 412//1 425//1 424//1
f 217//1 422//1 31//1 30//1
f 990//1 427//1 422//1 217//1
f 427//1 426//1 423//1 422//1
f 415//1 418//1 421//1 416//1
f 950//1 227//1 418//1 415//1
f 227//1 226//1 419//1 418//1
f 865//1 414//1 417//1 866//1
f 220//1 951//1 414//1 865//1
f 951//1 950//1 415//1 414//1
f 253//1 410//1 413//1 254//1
f 866//1 417//1 410//1 253//1
f 417//1 416//1 411//1 410//1
f 405//1 408//1 409//1 406//1
f 962//1 223//1 408//1 405//1
f 223//1 44//1 43//1 408//1
f 419//1 404//1 407//1 420//1
f 226//1 963//1 404//1 419//1
f 963//1 962//1 405//1 404//1
f 395//1 400//1 403//1 396//1
f 420//1 407//1 400//1 395//1
f 407//1 406//1 401//1 400//1
f 401//1 398//1 399//1 402//1
f 406//1 409//1 398//1 401//1
f 409//1 42//1 41//1 398//1
f 411//1 394//1 397//1 412//1
f 416//1 421//1 394//1 411//1
f 421//1 420//1 395//1 394//1
f 423//1 392//1 33//1 32//1
f 426//1 431//1 392//1 423//1
f 431//1 430//1 393//1 392//1
f 433//1 388//1 391//1 434//1
f 438//1 443//1 388//1 433//1
f 443//1 442//1 389//1 388//1
f 445//1 384//1 387//1 446//1
f 450//1 455//1 384//1 445//1
f 455//1 454//1 385//1 384//1
f 457//1 382//1 17//1 16//1
f 460//1 465//1 382//1 457//1
f 465//1 464//1 383//1 382//1
f 467//1 378//1 381//1 468//1
f 472//1 477//1 378//1 467//1
f 477//1 476//1 379//1 378//1
f 479//1 374//1 377//1 480//1
f 484//1 489//1 374//1 479//1
f 489//1 488//1 375//1 374//1
f 491//1 370//1 373//1 492//1
f 496//1 501//1 370//1 491//1
f 501//1 500//1 371//1 370//1
f 503//1 368//1 369//1 504//1
f 508//1 511//1 368//1 503//1
f 511//1 58//1 57//1 368//1
f 513//1 364//1 367//1 514//1
f 518//1 523//1 364//1 513//1
f 523//1 522//1 365//1 364//1
f 525//1 360//1 363//1 526//1
f 530//1 535//1 360//1 525//1
f 535//1 534//1 361//1 360//1
f 537//1 356//1 359//1 538//1
f 542//1 547//1 356//1 537//1
f 547//1 546//1 357//1 356//1
f 549//1 352//1 355//1 550//1
f 554//1 559//1 352//1 549//1
f 559//1 558//1 353//1 352//1
f 561//1 348//1 351//1 562//1
f 566//1 571//1 348//1 561//1
f 571//1 570//1 349//1 348//1
f 573//1 344//1 347//1 574//1
f 578//1 583//1 344//1 573//1
f 583//1 582//1 345//1 344//1
f 585//1 340//1 343//1 586//1
f 590//1 595//1 340//1 585//1
f 595//1 594//1 341//1 340//1
f 597//1 336//1 339//1 598//1
f 602//1 607//1 336//1 597//1
f 607//1 606//1 337//1 336//1
f 609//1 334//1 335//1 610//1
f 614//1 617//1 334//1 609//1
f 617//1 66//1 65//1 334//1
f 619//1 330//1 333//1 620//1
f 624//1 629//1 330//1 619//1
f 629//1 628//1 331//1 330//1
f 631//1 326//1 329//1 632//1
f 636//1 641//1 326//1 631//1
f 641//1 640//1 327//1 326//1
f 643//1 322//1 325//1 644//1
f 648//1 653//1 322//1 643//1
f 653//1 652//1 323//1 322//1
f 655//1 318//1 321//1 656//1
f 660//1 665//1 318//1 655//1
f 665//1 664//1 319//1 318//1
f 667//1 314//1 317//1 668//1
f 672//1 677//1 314//1 667//1
f 677//1 676//1 315//1 314//1
f 679//1 310//1 313//1 680//1
f 684//1 689//1 310//1 679//1
f 689//1 688//1 311//1 310//1
f 691//1 306//1 309//1 692//1
f 696//1 701//1 306//1 691//1
f 701//1 700//1 307//1 306//1
f 703//1 302//1 305//1 704//1
f 708//1 713//1 302//1 703//1
f 713//1 712//1 303//1 302//1
f 715//1 298//1 301//1 716//1
f 720//1 725//1 298//1 715//1
f 725//1 724//1 299//1 298//1
f 727//1 294//1 297//1 728//1
f 732//1 737//1 294//1 727//1
f 737//1 736//1 295//1 294//1
f 739//1 290//1 293//1 740//1
f 744//1 749//1 290//1 739//1
f 749//1 748//1 291//1 290//1
f 751//1 286//1 289//1 752//1
f 756//1 761//1 286//1 751//1
f 761//1 760//1 287//1 286//1
f 763//1 282//1 285//1 764//1
f 768//1 773//1 282//1 763//1
f 773//1 772//1 283//1 282//1
f 775//1 280//1 9//1 8//1
f 778//1 783//1 280//1 775//1
f 783//1 782//1 281//1 280//1
f 785//1 276//1 279//1 786//1
f 790//1 795//1 276//1 785//1
f 795//1 794//1 277//1 276//1
f 797//1 272//1 275//1 798//1
f 802//1 807//1 272//1 797//1
f 807//1 806//1 273//1 272//1
f 809//1 268//1 271//1 810//1
f 814//1 819//1 268//1 809//1
f 819//1 818//1 269//1 268//1
f 821//1 264//1 267//1 822//1
f 826//1 831//1 264//1 821//1
f 831//1 830//1 265//1 264//1
f 833//1 260//1 263//1 834//1
f 838//1 843//1 260//1 833//1
f 843//1 842//1 261//1 260//1
f 845//1 256//1 259//1 846//1
f 850//1 855//1 256//1 845//1
f 855//1 854//1 257//1 256//1
f 857//1 252//1 255//1 858//1
f 862//1 867//1 252//1 857//1
f 867//1 866//1 253//1 252//1
f 869//1 248//1 251//1 870//1
f 874//1 879//1 248//1 869//1
f 879//1 878//1 249//1 248//1
f 881//1 246//1 25//1 24//1
f 884//1 889//1 246//1 881//1
f 889//1 888//1 247//1 246//1
f 891//1 242//1 245//1 892//1
f 896//1 901//1 242//1 891//1
f 901//1 900//1 243//1 242//1
f 903//1 238//1 241//1 904//1
f 908//1 913//1 238//1 903//1
f 913//1 912//1 239//1 238//1
f 915//1 234//1 237//1 916//1
f 920//1 925//1 234//1 915//1
f 925//1 924//1 235//1 234//1
f 927//1 232//1 233//1 928//1
f 932//1 935//1 232//1 927//1
f 935//1 50//1 49//1 232//1
f 937//1 228//1 231//1 938//1
f 942//1 947//1 228//1 937//1
f 947//1 946//1 229//1 228//1
f 949//1 224//1 227//1 950//1
f 954//1 959//1 224//1 949//1
f 959//1 958//1 225//1 224//1
f 961//1 222//1 223//1 962//1
f 966//1 969//1 222//1 961//1
f 969//1 46//1 45//1 222//1
f 971//1 218//1 221//1 972//1
f 976//1 981//1 218//1 971//1
f 981//1 980//1 219//1 218//1
f 983//1 216//1 29//1 28//1
f 986//1 991//1 216//1 983//1
f 991//1 990//1 217//1 216//1
f 993//1 212//1 215//1 994//1
f 998//1 1003//1 212//1 993//1
f 1003//1 1002//1 213//1 212//1
f 1005//1 208//1 211//1 1006//1
f 1010//1 1015//1 208//1 1005//1
f 1015//1 1014//1 209//1 208//1
f 1017//1 206//1 13//1 12//1
f 1020//1 1025//1 206//1 1017//1
f 1025//1 1024//1 207//1 206//1
f 1027//1 202//1 205//1 1028//1
f 1032//1 1037//1 202//1 1027//1
f 1037//1 1036//1 203//1 202//1
f 1039//1 198//1 201//1 1040//1
f 1044//1 1049//1 198//1 1039//1
f 1049//1 1048//1 199//1 198//1
f 1051//1 194//1 197//1 1052//1
f 1056//1 1061//1 194//1 1051//1
f 1061//1 1060//1 195//1 194//1
f 1063//1 192//1 193//1 1064//1
f 1068//1 1071//1 192//1 1063//1
f 1071//1 62//1 61//1 192//1
f 1073//1 188//1 191//1 1074//1
f 1078//1 1083//1 188//1 1073//1
f 1083//1 1082//1 189//1 188//1
f 1085//1 184//1 187//1 1086//1
f 1090//1 1095//1 184//1 1085//1
f 1095//1 1094//1 185//1 184//1
f 1097//1 182//1 183//1 1098//1
f 1102//1 1105//1 182//1 1097//1
f 1105//1 54//1 53//1 182//1
f 1107//1 178//1 181//1 1108//1
f 1112//1 1117//1 178//1 1107//1
f 1117//1 1116//1 179//1 178//1
f 1119//1 176//1 21//1 20//1
f 1122//1 1127//1 176//1 1119//1
f 1127//1 1126//1 177//1 176//1
f 1129//1 1//1 4//1 36//1
f 1132//1 1135//1 1//1 1129//1
f 1135//1 38//1 2//1 1//1
