# Blender v3.2.2 OBJ File: ''
# www.blender.org
o Circle
v 0.000000 0.773271 0.000000
v 0.735425 0.238954 0.000000
v 0.454517 -0.625590 -0.000000
v -0.454517 -0.625590 -0.000000
v -0.735424 0.238954 0.000000
v 0.118454 0.759187 0.000000
v 0.234342 0.728973 0.000000
v 0.345095 0.680896 0.000000
v 0.448147 0.616821 0.000000
v 0.540931 0.538613 0.000000
v 0.620879 0.448137 0.000000
v 0.685425 0.347258 0.000000
v 0.758634 0.121945 0.000000
v 0.765710 0.002393 0.000000
v 0.754211 -0.117796 -0.000000
v 0.725116 -0.235605 -0.000000
v 0.679408 -0.348015 -0.000000
v 0.618066 -0.452009 -0.000000
v 0.542070 -0.544569 -0.000000
v 0.350407 -0.683820 -0.000000
v 0.238893 -0.727494 -0.000000
v 0.121033 -0.753698 -0.000000
v 0.000000 -0.762432 -0.000000
v -0.121033 -0.753698 -0.000000
v -0.238893 -0.727494 -0.000000
v -0.350407 -0.683820 -0.000000
v -0.118454 0.759187 0.000000
v -0.234341 0.728973 0.000000
v -0.345094 0.680896 0.000000
v -0.448146 0.616821 0.000000
v -0.540930 0.538613 0.000000
v -0.620878 0.448137 0.000000
v -0.685425 0.347258 0.000000
v -0.542070 -0.544569 -0.000000
v -0.618065 -0.452009 -0.000000
v -0.679407 -0.348015 -0.000000
v -0.725116 -0.235605 -0.000000
v -0.754210 -0.117796 -0.000000
v -0.765709 0.002393 0.000000
v -0.758633 0.121945 0.000000
vt 0.000000 0.000000
vt 0.000000 0.000000
vt 0.000000 0.000000
vt 0.000000 0.000000
vt 0.000000 0.000000
vt 0.000000 0.000000
vt 0.000000 0.000000
vt 0.000000 0.000000
vt 0.000000 0.000000
vt 0.000000 0.000000
vt 0.000000 0.000000
vt 0.000000 0.000000
vt 0.000000 0.000000
vt 0.000000 0.000000
vt 0.000000 0.000000
vt 0.000000 0.000000
vt 0.000000 0.000000
vt 0.000000 0.000000
vt 0.000000 0.000000
vt 0.000000 0.000000
vt 0.000000 0.000000
vt 0.000000 0.000000
vt 0.000000 0.000000
vt 0.000000 0.000000
vt 0.000000 0.000000
vt 0.000000 0.000000
vt 0.000000 0.000000
vt 0.000000 0.000000
vt 0.000000 0.000000
vt 0.000000 0.000000
vt 0.000000 0.000000
vt 0.000000 0.000000
vt 0.000000 0.000000
vt 0.000000 0.000000
vt 0.000000 0.000000
vt 0.000000 0.000000
vt 0.000000 0.000000
vt 0.000000 0.000000
vt 0.000000 0.000000
vt 0.000000 0.000000
vn 0.0000 0.0000 -1.0000
s off
f 6/1/1 7/2/1 8/3/1 9/4/1 10/5/1 11/6/1 12/7/1 2/8/1 13/9/1 14/10/1 15/11/1 16/12/1 17/13/1 18/14/1 19/15/1 3/16/1 20/17/1 21/18/1 22/19/1 23/20/1 24/21/1 25/22/1 26/23/1 4/24/1 34/25/1 35/26/1 36/27/1 37/28/1 38/29/1 39/30/1 40/31/1 5/32/1 33/33/1 32/34/1 31/35/1 30/36/1 29/37/1 28/38/1 27/39/1 1/40/1
