# Blender v3.2.2 OBJ File: ''
# www.blender.org
o face2
v 0.000000 1.000000 0.000000
v -0.951057 0.309017 0.000000
v -0.587785 -0.809017 -0.000000
v 0.587785 -0.809017 -0.000000
v 0.951056 0.309017 0.000000
v 0.572473 0.787942 0.000000
v 0.926281 -0.300967 -0.000000
v 0.000000 -0.973950 -0.000000
v -0.926281 -0.300967 -0.000000
v -0.572474 0.787942 0.000000
v 0.588531 -0.807898 -0.000000
v 0.581322 -0.810831 -0.000000
vt 0.950969 0.191043
vt 0.950969 0.500000
vt 0.002095 0.502748
vt 0.000098 0.500000
vt 0.000498 0.499449
vt 0.181698 0.250049
vt 0.363298 0.000098
vt 0.657133 0.095571
vt 0.181698 0.749951
vt 0.950969 0.808957
vt 0.363298 0.999902
vt 0.657133 0.904429
vn 0.0000 -0.0000 1.0000
s 1
f 1/1/1 10/2/1 12/3/1 4/4/1 11/5/1
f 11/5/1 7/6/1 1/1/1
f 7/6/1 5/7/1 6/8/1
f 6/8/1 1/1/1 7/6/1
f 12/3/1 10/2/1 8/9/1
f 8/9/1 2/10/1 3/11/1
f 3/11/1 2/10/1 9/12/1
f 2/10/1 8/9/1 10/2/1
