# Blender v3.2.2 OBJ File: ''
# www.blender.org
mtllib learning3.mtl
o Cube_Cube.001
v 1.000000 -1.000000 -1.000000
v 1.000000 -1.000000 1.000000
v 1.000000 1.000000 1.000000
v -1.000000 -1.000000 -1.000000
v -1.000000 -1.000000 1.000000
v -1.000000 1.000000 1.000000
v 1.000000 0.606585 -1.000000
v 1.000000 1.000000 -0.606585
v -1.000000 1.000000 -0.606585
v -1.000000 0.606585 -1.000000
vt 0.375000 0.250000
vt 0.625000 0.250000
vt 0.625000 0.500000
vt 0.375000 0.500000
vt 0.375000 0.000000
vt 0.575823 0.000000
vt 0.625000 0.049177
vt 0.125000 0.500000
vt 0.375000 0.750000
vt 0.125000 0.750000
vt 0.625000 0.700823
vt 0.575823 0.750000
vt 0.875000 0.500000
vt 0.875000 0.700823
vt 0.625000 0.750000
vt 0.625000 1.000000
vt 0.575823 1.000000
vt 0.375000 1.000000
vn 0.0000 0.0000 1.0000
vn 1.0000 0.0000 0.0000
vn 0.0000 -1.0000 0.0000
vn -1.0000 0.0000 0.0000
vn -0.5774 0.5774 0.5774
vn 0.5774 0.5774 0.5774
vn 0.6303 0.7173 -0.2971
vn -0.6303 0.7173 -0.2971
vn 0.6303 0.2971 -0.7173
vn -0.6303 0.2971 -0.7173
vn -0.5774 -0.5774 -0.5774
vn 0.5774 -0.5774 -0.5774
usemtl None
s off
f 2/1/1 3/2/1 6/3/1 5/4/1
f 1/5/2 7/6/2 8/7/2 3/2/2 2/1/2
f 2/8/3 5/4/3 4/9/3 1/10/3
f 5/4/4 6/3/4 9/11/4 10/12/4 4/9/4
s 1
f 6/3/5 3/13/6 8/14/7 9/11/8
f 9/15/8 8/16/7 7/17/9 10/12/10
f 4/9/11 10/12/10 7/17/9 1/18/12
