# Blender v3.2.2 OBJ File: ''
# www.blender.org
o learning.001
v 0.000000 1.003365 -0.361949
v 0.000000 1.932841 0.102790
v 0.120283 1.003365 -0.346113
v 0.232369 1.003365 -0.299685
v 0.328620 1.003365 -0.225830
v 0.402475 1.003365 -0.129579
v 0.448903 1.003365 -0.017493
v 0.464738 1.003365 0.102790
v 0.448903 1.003365 0.223073
v 0.402475 1.003365 0.335159
v 0.328620 1.003365 0.431409
v 0.232369 1.003365 0.505265
v 0.120283 1.003365 0.551692
v 0.000000 1.003365 0.567528
v -0.120283 1.003365 0.551692
v -0.232369 1.003365 0.505265
v -0.328619 1.003365 0.431409
v -0.402475 1.003365 0.335159
v -0.448903 1.003365 0.223073
v -0.464738 1.003365 0.102790
v -0.448903 1.003365 -0.017493
v -0.402475 1.003365 -0.129579
v -0.328620 1.003365 -0.225830
v -0.232369 1.003365 -0.299685
v -0.120283 1.003365 -0.346113
vt 6.078387 11.931600
vt 6.078386 6.078386
vt 7.588672 11.714803
vt 8.996014 11.131861
vt 8.999474 11.134153
vt 6.075698 6.074279
vt 10.208082 10.203652
vt 10.204542 10.204542
vt 11.131861 8.996014
vt 11.714803 7.588672
vt 11.913639 6.078387
vt 11.714803 4.568103
vt 11.131861 3.160761
vt 10.204542 1.952232
vt 8.996014 1.024913
vt 7.588672 0.441972
vt 6.078387 0.243135
vt 4.568103 0.441972
vt 3.160761 1.024913
vt 1.952232 1.952232
vt 1.024913 3.160761
vt 0.441972 4.568103
vt 0.243135 6.078387
vt 0.441972 7.588672
vt 1.024913 8.996014
vt 1.952232 10.204542
vt 3.160761 11.131861
vt 18.235161 11.913639
vt 19.745445 11.714803
vt 21.152788 11.131861
vt 22.361317 10.204542
vt 23.288635 8.996014
vt 23.871578 7.588672
vt 24.070414 6.078387
vt 23.871578 4.568103
vt 23.288635 3.160761
vt 22.361317 1.952232
vt 21.152788 1.024913
vt 19.745445 0.441972
vt 18.235161 0.243135
vt 16.724878 0.441972
vt 15.317535 1.024913
vt 14.109007 1.952232
vt 13.181688 3.160761
vt 12.598746 4.568103
vt 12.399910 6.078387
vt 12.598746 7.588672
vt 13.181688 8.996014
vt 14.109007 10.204542
vt 15.317535 11.131861
vt 16.724878 11.714803
vt 4.568103 11.714803
vn 0.1169 0.4441 -0.8883
vn 0.3429 0.4441 -0.8278
vn 0.5454 0.4441 -0.7108
vn 0.7108 0.4441 -0.5454
vn 0.8278 0.4441 -0.3429
vn 0.8883 0.4441 -0.1169
vn 0.8883 0.4441 0.1169
vn 0.8278 0.4441 0.3429
vn 0.7108 0.4441 0.5454
vn 0.5454 0.4441 0.7108
vn 0.3429 0.4441 0.8278
vn 0.1169 0.4441 0.8883
vn -0.1169 0.4441 0.8883
vn -0.3429 0.4441 0.8278
vn -0.5454 0.4441 0.7108
vn -0.7108 0.4441 0.5454
vn -0.8278 0.4441 0.3429
vn -0.8883 0.4441 0.1169
vn -0.8883 0.4441 -0.1169
vn -0.8278 0.4441 -0.3429
vn -0.7108 0.4441 -0.5454
vn -0.5454 0.4441 -0.7108
vn 0.0000 -1.0000 -0.0000
vn -0.3429 0.4441 -0.8278
vn -0.1169 0.4441 -0.8883
usemtl crt4.mat
s off
f 1/1/1 2/2/1 3/3/1
f 3/3/2 2/2/2 4/4/2
f 4/5/3 2/6/3 5/7/3
f 5/8/4 2/2/4 6/9/4
f 6/9/5 2/2/5 7/10/5
f 7/10/6 2/2/6 8/11/6
f 8/11/7 2/2/7 9/12/7
f 9/12/8 2/2/8 10/13/8
f 10/13/9 2/2/9 11/14/9
f 11/14/10 2/2/10 12/15/10
f 12/15/11 2/2/11 13/16/11
f 13/16/12 2/2/12 14/17/12
f 14/17/13 2/2/13 15/18/13
f 15/18/14 2/2/14 16/19/14
f 16/19/15 2/2/15 17/20/15
f 17/20/16 2/2/16 18/21/16
f 18/21/17 2/2/17 19/22/17
f 19/22/18 2/2/18 20/23/18
f 20/23/19 2/2/19 21/24/19
f 21/24/20 2/2/20 22/25/20
f 22/25/21 2/2/21 23/26/21
f 23/26/22 2/2/22 24/27/22
f 1/28/23 3/29/23 4/30/23 5/31/23 6/32/23 7/33/23 8/34/23 9/35/23 10/36/23 11/37/23 12/38/23 13/39/23 14/40/23 15/41/23 16/42/23 17/43/23 18/44/23 19/45/23 20/46/23 21/47/23 22/48/23 23/49/23 24/50/23 25/51/23
f 24/27/24 2/2/24 25/52/24
f 25/52/25 2/2/25 1/1/25
o learning.002
v 1.000000 -1.000000 1.000000
v 1.000000 1.000000 1.000000
v -1.000000 1.000000 1.000000
v -1.000000 -1.000000 1.000000
v 1.000000 -1.000000 -1.000000
v 1.000000 0.606585 -1.000000
v 1.000000 1.000000 -0.606585
v -1.000000 -1.000000 -1.000000
v -1.000000 1.000000 -0.606585
v -1.000000 0.606585 -1.000000
vt 9.117580 6.078387
vt 15.195969 6.078387
vt 15.195969 12.156775
vt 9.117580 12.156775
vt 9.117580 0.000000
vt 14.000301 0.000000
vt 15.195969 1.195667
vt 3.039194 12.156775
vt 9.117580 18.235161
vt 3.039194 18.235161
vt 15.195969 17.039495
vt 14.000301 18.235161
vt 21.274355 12.156775
vt 21.274355 17.039495
vt 14.151650 21.697298
vt 14.000301 20.851412
vt 14.173093 20.851412
vt 14.000301 24.313549
vt 9.117580 24.313549
vt 14.000301 21.697298
vn 0.0000 -0.0000 1.0000
vn 1.0000 0.0000 0.0000
vn 0.0000 -1.0000 -0.0000
vn -1.0000 -0.0000 0.0000
vn 0.0000 1.0000 0.0000
vn 0.0000 0.9239 -0.3827
vn 0.0656 0.9369 -0.3435
vn 0.0000 0.3827 -0.9239
vn 0.0000 0.0000 -1.0000
usemtl crt4.mat
s off
f 26/53/26 27/54/26 28/55/26 29/56/26
f 30/57/27 31/58/27 32/59/27 27/54/27 26/53/27
f 26/60/28 29/56/28 33/61/28 30/62/28
f 29/56/29 28/55/29 34/63/29 35/64/29 33/61/29
s 1
f 28/55/30 27/65/30 32/66/31 34/63/32
f 32/67/31 35/68/33 34/69/32
f 33/61/34 35/64/33 31/70/33 30/71/34
f 32/67/31 31/72/33 35/68/33
