# Blender v2.79 (sub 0) OBJ File: 'load_bot.blend'
# www.blender.org
# mtllib loader_.mtl
g loader
v -6.102400 4.179400 -1.523399
v -6.102400 5.482700 -2.877599
v -6.102400 6.307400 0.000601
v -3.140200 6.308800 0.000601
v -3.459400 5.484000 -2.877599
v -3.812400 4.180800 -1.523399
v -3.812500 4.180799 1.524601
v -3.506700 5.781000 1.143601
v -6.102400 5.779600 1.143601
v -6.102400 4.179399 1.524601
v -3.913200 2.812800 1.066700
v -6.027200 2.812800 1.066700
v -6.027200 3.257100 1.066700
v -6.027200 3.257100 -1.047300
v -6.027200 2.812800 -1.047300
v -3.913200 2.812800 -1.047300
v -4.065600 2.660400 -0.894900
v -5.874800 2.660400 -0.894900
v -5.874800 2.660400 0.914300
v -3.913200 3.257100 -1.047300
v -4.065600 3.409500 0.914301
v -5.874800 3.409500 0.914301
v -5.874800 3.409500 -0.894899
v -3.913200 3.257100 1.066700
v -4.065600 3.409500 -0.894899
v -6.027200 -0.387600 1.524600
v -6.027200 1.809400 1.524600
v -3.913200 1.809400 1.524600
v -3.913200 1.809400 -1.523400
v -6.027200 1.809400 -1.523400
v -6.027200 -0.387600 -1.523400
v -3.913200 -0.387600 -1.523400
v -3.913200 -0.387600 1.524600
v -4.065600 2.660400 0.914300
v -5.537000 -0.297600 0.605900
v -5.537000 -0.297600 -0.585500
v -5.537000 5.763800 -0.585499
v -4.390600 -0.297600 -0.585500
v -4.390600 5.763800 -0.585499
v -4.390600 5.763800 0.605901
v -5.537000 5.763800 0.605901
v -4.390600 -0.297600 0.605900
v -2.286000 5.209500 -0.532799
v -3.810000 5.209500 -0.532799
v -3.810000 4.747500 -0.266099
v -3.810000 4.747500 0.267301
v -2.286000 4.747500 0.267301
v -2.286000 4.747500 -0.266099
v -3.810000 5.209500 0.534001
v -2.286000 5.209500 0.534001
v -3.810000 5.671400 0.267301
v -2.286000 5.671400 0.267301
v -3.810000 5.671400 -0.266099
v -2.286000 5.671400 -0.266099
vt 0.634891 0.622165
vt 0.769819 0.710461
vt 0.787892 0.622159
vt 0.634906 0.547956
vt 0.809509 0.547955
vt 0.790670 0.371476
vt 0.769825 0.260703
vt 0.634882 0.371476
vt 0.634844 0.710476
vt 0.634844 0.260692
vt 0.636802 0.030305
vt 0.728976 0.052667
vt 0.728839 0.029822
vt 0.393125 0.054885
vt 0.534989 0.025879
vt 0.394941 0.014832
vt 0.849461 0.026825
vt 0.892968 0.136599
vt 0.999610 0.243240
vt 0.999610 0.136599
vt 0.535444 0.051647
vt 0.892968 0.029177
vt 0.999610 0.135819
vt 0.999610 0.029177
vt 0.728988 0.017168
vt 0.636397 0.066644
vt 0.636818 0.054454
vt 0.406748 0.073127
vt 0.535944 0.011182
vt 0.728318 0.063802
vt 0.847373 0.060953
vt 0.838008 0.011354
vt 0.534985 0.066014
vt 0.000390 0.618755
vt 0.129890 0.743363
vt 0.129890 0.618755
vt 0.309551 0.743363
vt 0.439051 0.618755
vt 0.309551 0.618755
vt 0.522624 0.080251
vt 0.393125 0.259912
vt 0.522624 0.259912
vt 0.266912 0.080251
vt 0.392344 0.170081
vt 0.343733 0.000429
vt 0.000390 0.170084
vt 0.131930 0.080251
vt 0.052385 0.000390
vt 0.035581 0.238898
vt 0.131936 0.259912
vt 0.892968 0.243240
vt 0.892968 0.135819
vt 0.637068 0.019788
vt 0.407081 0.000390
vt 0.837099 0.073127
vt 0.000390 0.743363
vt 0.439051 0.743363
vt 0.393125 0.080251
vt 0.361234 0.237454
vt 0.266911 0.259912
vt 0.276781 0.330918
vt 0.634063 0.262614
vt 0.276781 0.262614
vt 0.276781 0.534369
vt 0.634063 0.468717
vt 0.276781 0.468717
vt 0.634063 0.398491
vt 0.634063 0.330918
vt 0.276781 0.398491
vt 0.634063 0.534369
vt 0.647232 0.259912
vt 0.776731 0.080251
vt 0.647232 0.080251
vt 0.776731 0.259912
vt 0.869448 0.719904
vt 0.959279 0.751348
vt 0.959279 0.719904
vt 0.959279 0.782788
vt 0.869448 0.751348
vt 0.869448 0.782788
vt 0.959279 0.814232
vt 0.869448 0.814232
vt 0.959279 0.845671
vt 0.869448 0.845671
vt 0.959279 0.877112
vt 0.869448 0.877112
vt 0.959279 0.908550
vt 0.869448 0.908550
vn -0.6208 0.4966 0.6067
vn 0.4833 -0.5606 0.6724
vn 0.5609 0.4467 0.6970
vn -0.6365 0.7690 0.0591
vn 0.7536 0.6522 0.0814
vn 0.5730 0.1697 -0.8018
vn 0.5164 -0.8068 -0.2870
vn -0.5543 0.2005 -0.8078
vn -0.5657 -0.5113 0.6470
vn -0.6317 -0.7189 -0.2901
vn 0.6507 -0.3914 0.6507
vn -0.6507 0.3914 0.6507
vn -0.6507 -0.3914 0.6507
vn -0.6507 0.3914 -0.6507
vn 0.6507 -0.3914 -0.6507
vn -0.6507 -0.3914 -0.6507
vn 0.3002 -0.9054 -0.3002
vn -0.3002 -0.9054 0.3002
vn -0.3002 -0.9054 -0.3002
vn 0.6507 0.3914 -0.6507
vn 0.3002 0.9054 0.3002
vn -0.3002 0.9054 -0.3002
vn -0.3002 0.9054 0.3002
vn 0.6507 0.3914 0.6507
vn 0.3002 0.9054 -0.3002
vn -0.5774 -0.5774 0.5774
vn 0.5774 0.5774 0.5774
vn -0.5774 0.5774 0.5774
vn 0.5774 0.5774 -0.5774
vn -0.5774 -0.5774 -0.5774
vn -0.5774 0.5774 -0.5774
vn 0.5774 -0.5774 -0.5774
vn 0.5774 -0.5774 0.5774
vn 0.3002 -0.9054 0.3002
vn -0.7071 -0.0000 0.7071
vn -0.7071 0.0000 -0.7071
vn 0.7071 0.0000 -0.7071
vn 0.7071 -0.0000 0.7071
vn -0.0000 -0.0001 -1.0000
vn 0.0000 -0.8660 -0.5000
vn -0.0003 -0.0001 -1.0000
vn 0.0000 -0.8660 0.5000
vn 0.0000 0.0000 1.0000
vn 0.0000 0.8660 0.5000
vn -0.0001 0.8661 -0.4999
vn 0.0002 0.8659 -0.5002
# usemtl Material.003
s 1
f 9/1/1 7/2/2 8/3/3
f 3/4/4 8/3/3 4/5/5
f 5/6/6 3/4/4 4/5/5
f 6/7/7 2/8/8 5/6/6
f 9/1/1 10/9/9 7/2/2
f 3/4/4 9/1/1 8/3/3
f 5/6/6 2/8/8 3/4/4
f 6/7/7 1/10/10 2/8/8
f 11/11/11 13/12/12 12/13/13
f 14/14/14 16/15/15 15/16/16
f 13/12/12 15/17/16 12/13/13
f 17/18/17 19/19/18 18/20/19
f 20/21/20 11/11/11 16/15/15
f 21/22/21 23/23/22 22/24/23
f 19/25/18 11/11/11 12/13/13
f 21/26/21 13/12/12 24/27/24
f 23/28/22 20/21/20 14/14/14
f 17/29/17 15/16/16 16/15/15
f 22/30/23 14/31/14 13/12/12
f 18/32/19 12/13/13 15/17/16
f 11/11/11 17/29/17 16/15/15
f 25/33/25 24/27/24 20/21/20
f 26/34/26 28/35/27 27/36/28
f 29/37/29 31/38/30 30/39/31
f 32/40/32 28/41/27 33/42/33
f 1/43/10 3/44/4 2/45/8
f 4/46/5 6/47/7 5/48/6
f 4/46/5 8/49/3 7/50/2
f 7/50/2 1/43/10 6/47/7
f 11/11/11 24/27/24 13/12/12
f 14/14/14 20/21/20 16/15/15
f 13/12/12 14/31/14 15/17/16
f 17/18/17 34/51/34 19/19/18
f 20/21/20 24/27/24 11/11/11
f 21/22/21 25/52/25 23/23/22
f 19/25/18 34/53/34 11/11/11
f 21/26/21 22/30/23 13/12/12
f 23/28/22 25/33/25 20/21/20
f 17/29/17 18/54/19 15/16/16
f 22/30/23 23/55/22 14/31/14
f 18/32/19 19/25/18 12/13/13
f 11/11/11 34/53/34 17/29/17
f 25/33/25 21/26/21 24/27/24
f 26/34/26 33/56/33 28/35/27
f 29/37/29 32/57/32 31/38/30
f 32/40/32 29/58/29 28/41/27
f 1/43/10 9/59/1 3/44/4
f 1/43/10 10/60/9 9/59/1
f 4/46/5 7/50/2 6/47/7
f 7/50/2 10/60/9 1/43/10
f 35/61/35 37/62/36 36/63/36
f 36/64/36 39/65/37 38/66/37
f 40/67/38 38/66/37 39/65/37
f 41/68/35 42/69/38 40/67/38
f 35/61/35 41/68/35 37/62/36
f 36/64/36 37/70/36 39/65/37
f 40/67/38 42/69/38 38/66/37
f 41/68/35 35/61/35 42/69/38
f 26/71/26 30/72/31 31/73/30
f 26/71/26 27/74/28 30/72/31
f 27/36/28 29/37/29 30/39/31
f 31/73/30 33/42/33 26/71/26
f 27/36/28 28/35/27 29/37/29
f 31/73/30 32/40/32 33/42/33
f 43/75/39 45/76/40 44/77/41
f 46/78/42 48/79/40 47/80/42
f 49/81/43 47/80/42 50/82/43
f 51/83/44 50/82/43 52/84/44
f 52/84/44 53/85/45 51/83/44
f 54/86/46 44/87/41 53/85/45
f 43/75/39 48/79/40 45/76/40
f 46/78/42 45/76/40 48/79/40
f 49/81/43 46/78/42 47/80/42
f 51/83/44 49/81/43 50/82/43
f 52/84/44 54/86/46 53/85/45
f 54/86/46 43/88/39 44/87/41
g LB-HAND_L.006_LB-HAND_L.016
v -4.478600 -0.145400 2.543200
v -4.478600 -0.145401 5.129500
v -3.981300 0.716099 5.129500
v -5.473400 -0.145400 2.543200
v -5.473400 -0.145401 5.129500
v -5.970700 0.716100 2.543200
v -5.970700 0.716099 5.129500
v -5.473400 1.577600 2.543200
v -5.473400 1.577599 5.129500
v -4.478600 1.577600 2.543200
v -3.981300 0.716100 2.543200
v -4.478600 1.577599 5.129500
v -3.908700 1.504501 -3.762300
v -6.022700 1.504501 -3.762300
v -6.022700 -0.082799 -3.762300
v -3.908700 -0.082799 -3.762300
v -6.022700 -0.082799 -3.172300
v -6.022700 1.504501 -3.172300
v -3.908700 1.504501 -3.172300
v -3.908700 -0.082799 -3.172300
v -4.398900 0.112901 -3.513300
v -4.398900 0.112900 2.548100
v -4.398900 1.304400 2.548100
v -5.545300 0.112900 2.548100
v -5.545300 0.112901 -3.513300
v -5.545300 1.304401 -3.513300
v -5.545300 1.304400 2.548100
v -4.398900 1.304401 -3.513300
vt 0.546113 0.996838
vt 0.546113 0.895278
vt 0.516800 0.946058
vt 0.839602 0.690399
vt 0.839602 0.588839
vt 0.810290 0.639619
vt 0.604750 0.895278
vt 0.634063 0.946058
vt 0.604750 0.996838
vt 0.898240 0.588839
vt 0.927553 0.639619
vt 0.898240 0.690399
vt 0.509456 0.665410
vt 0.634063 0.758971
vt 0.634063 0.665410
vt 0.509456 0.758971
vt 0.634063 0.537071
vt 0.509456 0.630633
vt 0.634063 0.630633
vt 0.093952 0.897370
vt 0.000390 0.932147
vt 0.093952 0.932147
vt 0.218559 0.897370
vt 0.218559 0.932147
vt 0.312121 0.897370
vt 0.509456 0.537071
vt 0.000390 0.897370
vt 0.312121 0.932147
vt 0.274078 0.260692
vt 0.205768 0.617975
vt 0.274078 0.617975
vt 0.067963 0.617975
vt 0.138195 0.260692
vt 0.067964 0.260692
vt 0.138195 0.617975
vt 0.205768 0.260692
vt 0.000390 0.617975
vt 0.000390 0.260692
vt 0.352198 0.756635
vt 0.293565 0.896590
vt 0.352198 0.896590
vt 0.059028 0.756635
vt 0.000390 0.896590
vt 0.059028 0.896590
vt 0.117661 0.756635
vt 0.117661 0.896590
vt 0.176294 0.756635
vt 0.176294 0.896590
vt 0.234932 0.756635
vt 0.293565 0.756635
vt 0.234932 0.896590
vt 0.000390 0.756635
vn 0.3962 0.6862 0.6100
vn 0.3962 -0.6862 0.6100
vn 0.7924 -0.0000 0.6100
vn 0.3962 -0.6862 -0.6100
vn 0.3962 0.6862 -0.6100
vn 0.7924 0.0000 -0.6100
vn -0.3962 -0.6862 0.6100
vn -0.7924 -0.0000 0.6100
vn -0.3962 0.6862 0.6100
vn -0.3962 0.6862 -0.6100
vn -0.7924 -0.0000 -0.6100
vn -0.3962 -0.6862 -0.6100
vn 0.5774 0.5774 -0.5774
vn -0.5774 -0.5774 -0.5774
vn -0.5774 0.5774 -0.5774
vn 0.5774 -0.5774 -0.5774
vn -0.5774 -0.5774 0.5774
vn 0.5774 0.5774 0.5774
vn -0.5774 0.5774 0.5774
vn 0.5774 -0.5774 0.5774
vn 0.7071 -0.7071 -0.0000
vn 0.7071 0.7071 0.0000
vn -0.7071 -0.7071 -0.0000
vn -0.7071 0.7071 0.0000
# usemtl Material.003
s 1
f 66/89/47 56/90/48 57/91/49
f 55/92/50 64/93/51 65/94/52
f 66/89/47 59/95/53 56/90/48
f 66/89/47 61/96/54 59/95/53
f 66/89/47 63/97/55 61/96/54
f 55/92/50 62/98/56 64/93/51
f 55/92/50 60/99/57 62/98/56
f 55/92/50 58/100/58 60/99/57
f 67/101/59 69/102/60 68/103/61
f 67/101/59 70/104/62 69/102/60
f 71/105/63 73/106/64 72/107/65
f 70/108/62 73/109/64 74/110/66
f 69/111/60 74/110/66 71/112/63
f 71/112/63 68/113/61 69/111/60
f 72/107/65 67/101/59 68/103/61
f 71/105/63 74/114/66 73/106/64
f 70/108/62 67/115/59 73/109/64
f 69/111/60 70/108/62 74/110/66
f 71/112/63 72/116/65 68/113/61
f 72/107/65 73/106/64 67/101/59
f 75/117/67 77/118/68 76/119/67
f 78/120/69 80/121/70 79/122/69
f 81/123/70 82/124/68 80/121/70
f 79/122/69 76/125/67 78/120/69
f 75/117/67 82/124/68 77/118/68
f 78/120/69 81/123/70 80/121/70
f 81/123/70 77/118/68 82/124/68
f 79/122/69 75/126/67 76/125/67
f 55/127/50 57/128/49 56/129/48
f 58/130/58 56/131/48 59/132/53
f 59/132/53 60/133/57 58/130/58
f 61/134/54 62/135/56 60/133/57
f 63/136/55 64/137/51 62/135/56
f 65/138/52 66/139/47 57/128/49
f 55/127/50 65/138/52 57/128/49
f 58/130/58 55/140/50 56/131/48
f 59/132/53 61/134/54 60/133/57
f 61/134/54 63/136/55 62/135/56
f 63/136/55 66/139/47 64/137/51
f 65/138/52 64/137/51 66/139/47
g LB-HAND_L.005_LB-HAND_L.015
v -4.583200 0.319899 6.566800
v -5.344600 0.319899 6.566800
v -5.344600 1.112299 6.566800
v -4.583200 1.112299 6.566800
v -5.230390 0.438759 7.378843
v -4.697410 0.438759 7.378843
v -4.697410 0.993439 7.378843
v -5.230390 0.993439 7.378843
v -5.230390 1.964129 7.110915
v -4.697410 1.964129 7.110915
v -5.230390 1.964129 7.378844
v -4.697410 1.964129 7.378844
v -6.163104 0.438759 7.110915
v -6.163104 0.993439 7.110915
v -6.163104 0.993439 7.378843
v -6.163104 0.438759 7.378843
v -4.697410 -0.531931 7.110915
v -5.230390 -0.531931 7.110915
v -5.230390 -0.531931 7.378844
v -4.697410 -0.531931 7.378844
v -3.764694 0.438759 7.110915
v -3.764694 0.993439 7.110915
v -3.764694 0.438759 7.378843
v -3.764694 0.993439 7.378843
vt 0.763288 0.843323
vt 0.845026 0.843323
vt 0.845026 0.798443
vt 0.763288 0.798443
vt 0.763288 0.719904
vt 0.716581 0.719904
vt 0.716581 0.798443
vt 0.634844 0.798443
vt 0.634844 0.843323
vt 0.716581 0.843323
vt 0.716581 0.921863
vt 0.763288 0.921863
vt 0.276781 0.581951
vt 0.323488 0.537071
vt 0.276781 0.537071
vt 0.323488 0.581951
vt 0.427448 0.744143
vt 0.359884 0.790144
vt 0.368772 0.803198
vt 0.467655 0.803198
vt 0.810290 0.483058
vt 0.906547 0.483058
vt 0.915677 0.470172
vt 0.851593 0.424765
vt 0.922339 0.365692
vt 0.826082 0.365692
vt 0.816952 0.378578
vt 0.881036 0.423985
vt 0.817719 0.243240
vt 0.885283 0.197240
vt 0.876395 0.184186
vt 0.782797 0.184186
vt 0.876395 0.139306
vt 0.892188 0.184186
vt 0.892188 0.139306
vt 0.782797 0.139306
vt 0.885283 0.126251
vt 0.817719 0.080251
vt 0.906547 0.529765
vt 0.922339 0.529765
vt 0.922339 0.483058
vt 0.851593 0.588058
vt 0.915677 0.542651
vt 0.810290 0.529765
vt 0.368772 0.848078
vt 0.352979 0.803198
vt 0.352979 0.848078
vt 0.467655 0.848078
vt 0.359884 0.861132
vt 0.427448 0.907133
vt 0.826082 0.318985
vt 0.810290 0.318985
vt 0.810290 0.365692
vt 0.881036 0.260692
vt 0.816952 0.306099
vt 0.922339 0.318985
vn 0.0000 -0.0000 1.0000
vn -0.4227 -0.4130 -0.8067
vn 0.4227 0.4130 -0.8067
vn 0.4227 -0.4130 -0.8067
vn -0.4227 0.4130 -0.8067
vn 0.6987 -0.6993 0.1509
vn 0.6923 -0.7176 0.0755
vn 0.6033 -0.7225 -0.3376
vn -0.7268 0.6030 -0.3288
vn -0.7185 0.6911 0.0784
vn -0.6987 0.6993 0.1509
vn 0.7268 -0.6030 -0.3288
vn 0.7185 -0.6911 0.0784
vn -0.6923 0.7176 0.0755
vn -0.6033 0.7225 -0.3376
vn 0.6033 0.7225 -0.3376
vn 0.6923 0.7176 0.0755
vn 0.6987 0.6993 0.1509
vn -0.7268 -0.6030 -0.3288
vn -0.7185 -0.6911 0.0784
vn -0.6987 -0.6993 0.1509
vn -0.6033 -0.7225 -0.3376
vn -0.6923 -0.7176 0.0755
vn 0.7268 0.6030 -0.3288
vn 0.7185 0.6911 0.0784
# usemtl Material.003
s off
f 89/141/71 94/142/71 93/143/71 90/144/71
f 90/144/71 97/145/71 98/146/71 87/147/71
f 87/147/71 101/148/71 102/149/71 88/150/71
f 88/150/71 105/151/71 106/152/71 89/141/71
f 89/141/71 90/144/71 87/147/71 88/150/71
s 1
f 84/153/72 86/154/73 83/155/74
f 84/153/72 85/156/75 86/154/73
f 88/157/76 102/158/77 99/159/78 83/160/74
f 85/161/75 96/162/79 97/163/80 90/164/81
f 83/165/74 103/166/82 105/167/83 88/168/76
f 90/169/81 93/170/84 91/171/85 85/172/75
f 92/173/86 91/171/85 93/174/84 94/175/87
f 86/176/73 92/173/86 94/177/87 89/178/88
f 85/172/75 91/171/85 92/173/86 86/176/73
f 96/162/79 95/179/89 98/180/90 97/181/80
f 87/182/91 98/183/90 95/179/89 84/184/72
f 84/184/72 95/179/89 96/162/79 85/161/75
f 100/185/92 99/159/78 102/186/77 101/187/93
f 83/160/74 99/159/78 100/185/92 84/188/72
f 84/188/72 100/185/92 101/189/93 87/190/91
f 103/166/82 104/191/94 106/192/95 105/193/83
f 89/194/88 106/195/95 104/191/94 86/196/73
f 86/196/73 104/191/94 103/166/82 83/165/74
g LB-HAND_L.004_LB-HAND_L.014
v -5.344900 0.716099 6.795400
v -5.154400 0.386099 6.795400
v -5.154400 0.386099 4.509400
v -4.773400 0.386099 4.509400
v -4.582900 0.716099 4.509400
v -4.773400 0.386099 6.795400
v -4.773400 1.046099 4.509400
v -4.582900 0.716099 6.795400
v -4.773400 1.046099 6.795400
v -5.154400 1.046099 6.795400
v -5.154400 1.046099 4.509400
v -5.344900 0.716099 4.509400
vt 0.528973 0.894497
vt 0.506513 0.759752
vt 0.506513 0.894497
vt 0.484056 0.759752
vt 0.596351 0.759752
vt 0.618810 0.894497
vt 0.618810 0.759752
vt 0.573891 0.759752
vt 0.596351 0.894497
vt 0.573891 0.894497
vt 0.551433 0.759752
vt 0.551433 0.894497
vt 0.528973 0.759752
vt 0.484056 0.894497
vn -1.0000 -0.0000 0.0000
vn -0.5000 -0.8660 -0.0000
vn 0.5000 -0.8660 -0.0000
vn 1.0000 0.0000 0.0000
vn 0.5000 0.8660 0.0000
vn -0.5000 0.8660 0.0000
# usemtl Material.003
s 1
f 107/197/96 109/198/97 108/199/97
f 110/200/98 108/199/97 109/198/97
f 111/201/99 112/202/98 110/203/98
f 113/204/100 114/205/99 111/201/99
f 115/206/100 117/207/101 116/208/101
f 116/208/101 118/209/96 107/197/96
f 107/197/96 118/209/96 109/198/97
f 110/200/98 112/210/98 108/199/97
f 111/201/99 114/205/99 112/202/98
f 113/204/100 115/206/100 114/205/99
f 115/206/100 113/204/100 117/207/101
f 116/208/101 117/207/101 118/209/96
g LB_WAIST.001
v 1.516400 -9.497199 -3.055001
v 3.048000 -9.497200 -1.523401
v 1.516400 -9.497201 3.040998
v 3.048000 -9.497200 1.524598
v -1.531600 -9.497201 3.040998
v -3.048000 -9.497200 1.524598
v -3.048000 -9.497200 -1.523401
v -1.531600 -9.497199 -3.055001
v 1.516400 -7.592199 -3.055001
v -1.531600 -7.592199 -3.055001
v -3.048000 -7.592199 -1.523401
v 1.516400 -9.497199 -3.055001
v 3.048000 -7.592199 -1.523401
v 3.048000 -9.497200 -1.523401
v 3.048000 -7.592200 1.524599
v 1.516400 -7.592200 3.040999
v 1.516400 -9.497201 3.040998
v 3.048000 -9.497200 1.524598
v -1.531600 -7.592200 3.040999
v -1.531600 -9.497201 3.040998
v -3.048000 -7.592200 1.524599
v -3.048000 -9.497200 1.524598
v -3.048000 -9.497200 -1.523401
v -1.531600 -9.497199 -3.055001
v 1.516400 -7.592199 -3.055001
v -1.531600 -7.592199 -3.055001
v -3.048000 -7.592199 -1.523401
v 3.048000 -7.592199 -1.523401
v 3.048000 -7.592200 1.524599
v 1.516400 -7.592200 3.040999
v -1.531600 -7.592200 3.040999
v -3.048000 -7.592200 1.524599
vt 0.782597 0.446603
vt 0.712524 0.507744
vt 0.573073 0.507744
vt 0.503695 0.446603
vt 0.503695 0.323709
vt 0.573073 0.261955
vt 0.712524 0.261955
vt 0.782597 0.323709
vt 0.105311 0.913150
vt 0.105311 0.989959
vt 0.006213 0.989959
vt 0.958446 0.913150
vt 0.958446 0.989959
vt 0.818995 0.989959
vt 0.720387 0.989959
vt 0.720387 0.913150
vt 0.818995 0.913150
vt 0.580936 0.989959
vt 0.580936 0.913150
vt 0.482821 0.989959
vt 0.482821 0.913150
vt 0.343370 0.989959
vt 0.343370 0.913150
vt 0.244762 0.989959
vt 0.244762 0.913150
vt 0.006213 0.913150
vt 0.799515 0.174507
vt 0.700909 0.261406
vt 0.602302 0.260973
vt 0.503695 0.174073
vt 0.503695 0.087607
vt 0.602302 0.000708
vt 0.700909 0.000274
vt 0.799515 0.087174
vn -0.0000 -1.0000 -0.0000
vn 0.3827 0.0000 -0.9239
vn 0.9239 0.0000 -0.3827
vn 0.9229 -0.0000 0.3850
vn 0.3804 -0.0000 0.9248
vn -0.3827 -0.0000 0.9239
vn -0.9239 -0.0000 0.3827
vn -0.9248 0.0000 -0.3804
vn -0.3850 0.0000 -0.9229
vn -0.0000 1.0000 0.0000
# usemtl Material.001
s 1
f 122/211/102 121/212/102 123/213/102
f 122/211/102 123/213/102 124/214/102
f 122/211/102 124/214/102 125/215/102
f 122/211/102 125/215/102 126/216/102
f 122/211/102 126/216/102 119/217/102
f 122/211/102 119/217/102 120/218/102
f 130/219/103 127/220/103 131/221/104
f 132/222/104 131/223/104 133/224/105
f 134/225/106 135/226/106 136/227/105
f 137/228/107 138/229/107 135/226/106
f 139/230/108 140/231/108 138/229/107
f 129/232/109 141/233/109 140/231/108
f 128/234/110 142/235/110 141/233/109
f 142/235/110 128/234/110 127/220/103
f 130/219/103 131/221/104 132/236/104
f 132/222/104 133/224/105 136/227/105
f 134/225/106 136/227/105 133/224/105
f 137/228/107 135/226/106 134/225/106
f 139/230/108 138/229/107 137/228/107
f 129/232/109 140/231/108 139/230/108
f 128/234/110 141/233/109 129/232/109
f 142/235/110 127/220/103 130/219/103
f 143/237/111 144/238/111 145/239/111
f 143/237/111 145/239/111 150/240/111
f 143/237/111 150/240/111 149/241/111
f 143/237/111 149/241/111 148/242/111
f 143/237/111 148/242/111 147/243/111
f 143/237/111 147/243/111 146/244/111
g LB_WAIST.000
v -1.441800 -7.592200 2.771399
v 1.426500 -7.592200 2.771399
v 1.135400 -1.420000 1.898000
v 1.135400 -1.420000 -1.912000
v 1.426500 -7.592199 -2.785401
v -1.441800 -7.592199 -2.785401
v 1.905000 -1.420000 -1.142400
v 2.778400 -7.592200 -1.433501
v -2.778400 -7.592200 -1.433501
v -2.778400 -7.592200 1.434799
v 2.778400 -7.592200 1.434799
v 1.905000 -1.420000 1.143600
v -1.150600 -1.420000 1.898000
v -1.905000 -1.420000 1.143600
v -1.150600 -1.420000 -1.912000
v -1.905000 -1.420000 -1.142400
v -1.441800 -7.592200 2.771399
v 1.426500 -7.592200 2.771399
v 1.135400 -1.420000 1.898000
v 1.135400 -1.420000 -1.912000
v 1.426500 -7.592199 -2.785401
v -1.441800 -7.592199 -2.785401
v 1.905000 -1.420000 -1.142400
v 2.778400 -7.592200 -1.433501
v -2.778400 -7.592200 -1.433501
v -2.778400 -7.592200 1.434799
v 2.778400 -7.592200 1.434799
v 1.905000 -1.420000 1.143600
v -1.150600 -1.420000 1.898000
v -1.905000 -1.420000 1.143600
v -1.150600 -1.420000 -1.912000
v -1.905000 -1.420000 -1.142400
vt 0.506005 0.880058
vt 0.331745 0.880058
vt 0.331745 0.638292
vt 0.167765 0.638292
vt 0.167765 0.880058
vt 0.010343 0.880058
vt 0.012226 0.609350
vt 0.012226 0.461087
vt 0.353104 0.461087
vt 0.353104 0.306553
vt 0.012226 0.306553
vt 0.012226 0.156489
vt 0.506005 0.638292
vt 0.010343 0.638292
vt 0.353104 0.609350
vt 0.353104 0.156489
vt 0.353104 0.156489
vt 0.012226 0.156489
vt 0.012226 0.013809
vt 0.012226 0.461087
vt 0.012226 0.306553
vt 0.353104 0.306553
vt 0.331745 0.638292
vt 0.331745 0.880058
vt 0.167765 0.880058
vt 0.674168 0.880058
vt 0.506005 0.880058
vt 0.506005 0.638292
vt 0.353104 0.013809
vt 0.353104 0.461087
vt 0.167765 0.638292
vt 0.674168 0.638292
vn 0.0000 0.1401 0.9901
vn 0.0000 0.1401 -0.9901
vn -0.9901 0.1401 0.0000
vn 0.9901 0.1401 0.0000
vn 0.0000 0.0471 -0.9989
vn 0.0000 0.0471 0.9989
vn 0.9989 0.0471 0.0000
vn -0.9989 0.0471 0.0000
# usemtl Material.001
s 1
f 151/245/112 152/246/112 153/247/112
f 154/248/113 155/249/113 156/250/113
f 159/251/114 160/252/114 164/253/114
f 162/254/115 161/255/115 158/256/115
f 151/245/112 153/247/112 163/257/112
f 154/248/113 156/250/113 165/258/113
f 159/251/114 164/253/114 166/259/114
f 162/254/115 158/256/115 157/260/115
f 173/261/116 174/262/116 175/263/116
f 176/264/117 177/265/117 178/266/117
f 169/267/118 168/268/118 171/269/118
f 172/270/119 167/271/119 179/272/119
f 173/261/116 175/263/116 182/273/116
f 176/264/117 178/266/117 180/274/117
f 169/267/118 171/269/118 170/275/118
f 172/270/119 179/272/119 181/276/119
g LB-NECK.002
v -0.198700 8.445100 -0.336899
v -0.198700 4.457300 -0.336899
v -0.393500 4.457300 0.000601
v 0.191100 8.445100 -0.336899
v 0.191100 4.457300 -0.336899
v 0.385900 8.445100 0.000601
v 0.385900 4.457300 0.000601
v 0.191100 8.445100 0.338101
v -0.198700 8.445100 0.338101
v -0.198700 4.457300 0.338101
v 0.191100 4.457300 0.338101
v -0.393500 8.445100 0.000601
vt 0.300572 0.957807
vt 0.055891 0.957807
vt 0.055891 0.935255
vt 0.300572 0.980365
vt 0.055891 0.845041
vt 0.300572 0.845041
vt 0.300572 0.867593
vt 0.055891 0.867593
vt 0.300572 0.890145
vt 0.300572 0.912703
vt 0.055891 0.912703
vt 0.055891 0.890145
vt 0.300572 0.935255
vt 0.055891 0.980365
vn -0.5001 0.0000 -0.8660
vn -1.0000 0.0000 -0.0000
vn 0.5001 0.0000 -0.8660
vn 1.0000 -0.0000 0.0000
vn 0.5001 -0.0000 0.8660
vn -0.5001 -0.0000 0.8660
# usemtl Material.002
s 1
f 183/277/120 184/278/120 185/279/121
f 184/278/120 183/277/120 186/280/122
f 187/281/122 186/282/122 188/283/123
f 189/284/123 188/283/123 190/285/124
f 191/286/125 192/287/125 193/288/124
f 194/289/121 185/279/121 192/287/125
f 183/277/120 185/279/121 194/289/121
f 184/278/120 186/280/122 187/290/122
f 187/281/122 188/283/123 189/284/123
f 189/284/123 190/285/124 193/288/124
f 191/286/125 193/288/124 190/285/124
f 194/289/121 192/287/125 191/286/125
g LB-HAND_L.003_LB-HAND_L.013
v 5.344900 0.716099 6.795400
v 5.154400 0.386099 6.795400
v 5.154400 0.386099 4.509400
v 4.773400 0.386099 4.509400
v 4.582900 0.716099 4.509400
v 4.773400 0.386099 6.795400
v 4.773400 1.046099 4.509400
v 4.582900 0.716099 6.795400
v 4.773400 1.046099 6.795400
v 5.154400 1.046099 6.795400
v 5.154400 1.046099 4.509400
v 5.344900 0.716099 4.509400
vt 0.528973 0.894497
vt 0.506513 0.894497
vt 0.506513 0.759752
vt 0.484056 0.759752
vt 0.596351 0.759752
vt 0.618810 0.759752
vt 0.618810 0.894497
vt 0.573891 0.759752
vt 0.596351 0.894497
vt 0.573891 0.894497
vt 0.551433 0.894497
vt 0.551433 0.759752
vt 0.528973 0.759752
vt 0.484056 0.894497
vn 1.0000 -0.0000 0.0000
vn 0.5000 -0.8660 -0.0000
vn -0.5000 -0.8660 -0.0000
vn -1.0000 0.0000 0.0000
vn -0.5000 0.8660 0.0000
vn 0.5000 0.8660 0.0000
# usemtl Material.003
s 1
f 195/291/126 196/292/127 197/293/127
f 198/294/128 197/293/127 196/292/127
f 199/295/129 198/296/128 200/297/128
f 201/298/130 199/295/129 202/299/129
f 203/300/130 204/301/131 205/302/131
f 204/301/131 195/291/126 206/303/126
f 195/291/126 197/293/127 206/303/126
f 198/294/128 196/292/127 200/304/128
f 199/295/129 200/297/128 202/299/129
f 201/298/130 202/299/129 203/300/130
f 203/300/130 205/302/131 201/298/130
f 204/301/131 206/303/126 205/302/131
g LB-HAND_L.002_LB-HAND_L.012
v 4.583200 0.319899 6.566800
v 5.344600 0.319899 6.566800
v 5.344600 1.112299 6.566800
v 4.583200 1.112299 6.566800
v 5.230390 0.438759 7.378843
v 4.697410 0.438759 7.378843
v 4.697410 0.993439 7.378843
v 5.230390 0.993439 7.378843
v 5.230390 1.964129 7.110915
v 4.697410 1.964129 7.110915
v 5.230390 1.964129 7.378844
v 4.697410 1.964129 7.378844
v 6.163104 0.438759 7.110915
v 6.163104 0.993439 7.110915
v 6.163104 0.993439 7.378843
v 6.163104 0.438759 7.378843
v 4.697410 -0.531931 7.110915
v 5.230390 -0.531931 7.110915
v 5.230390 -0.531931 7.378844
v 4.697410 -0.531931 7.378844
v 3.764694 0.438759 7.110915
v 3.764694 0.993439 7.110915
v 3.764694 0.438759 7.378843
v 3.764694 0.993439 7.378843
vt 0.763288 0.843323
vt 0.763288 0.798443
vt 0.845026 0.798443
vt 0.845026 0.843323
vt 0.716581 0.798443
vt 0.716581 0.719904
vt 0.763288 0.719904
vt 0.716581 0.843323
vt 0.634844 0.843323
vt 0.634844 0.798443
vt 0.763288 0.921863
vt 0.716581 0.921863
vt 0.276781 0.581951
vt 0.276781 0.537071
vt 0.323488 0.537071
vt 0.323488 0.581951
vt 0.427448 0.744143
vt 0.467655 0.803198
vt 0.368772 0.803198
vt 0.359884 0.790144
vt 0.810290 0.483058
vt 0.851593 0.424765
vt 0.915677 0.470172
vt 0.906547 0.483058
vt 0.922339 0.365692
vt 0.881036 0.423985
vt 0.816952 0.378578
vt 0.826082 0.365692
vt 0.817719 0.243240
vt 0.782797 0.184186
vt 0.876395 0.184186
vt 0.885283 0.197240
vt 0.876395 0.139306
vt 0.892188 0.139306
vt 0.892188 0.184186
vt 0.782797 0.139306
vt 0.817719 0.080251
vt 0.885283 0.126251
vt 0.922339 0.483058
vt 0.922339 0.529765
vt 0.906547 0.529765
vt 0.851593 0.588058
vt 0.810290 0.529765
vt 0.915677 0.542651
vt 0.368772 0.848078
vt 0.352979 0.848078
vt 0.352979 0.803198
vt 0.467655 0.848078
vt 0.427448 0.907133
vt 0.359884 0.861132
vt 0.810290 0.365692
vt 0.810290 0.318985
vt 0.826082 0.318985
vt 0.881036 0.260692
vt 0.922339 0.318985
vt 0.816952 0.306099
vn 0.0000 -0.0000 1.0000
vn 0.4227 -0.4130 -0.8067
vn -0.4227 -0.4130 -0.8067
vn -0.4227 0.4130 -0.8067
vn 0.4227 0.4130 -0.8067
vn -0.6987 -0.6993 0.1509
vn -0.6033 -0.7225 -0.3376
vn -0.6923 -0.7176 0.0755
vn 0.6987 0.6993 0.1509
vn 0.7185 0.6911 0.0784
vn 0.7268 0.6030 -0.3288
vn -0.7185 -0.6911 0.0784
vn -0.7268 -0.6030 -0.3288
vn 0.6033 0.7225 -0.3376
vn 0.6923 0.7176 0.0755
vn -0.6033 0.7225 -0.3376
vn -0.6923 0.7176 0.0755
vn -0.6987 0.6993 0.1509
vn 0.7185 -0.6911 0.0784
vn 0.7268 -0.6030 -0.3288
vn 0.6987 -0.6993 0.1509
vn 0.6033 -0.7225 -0.3376
vn 0.6923 -0.7176 0.0755
vn -0.7185 0.6911 0.0784
vn -0.7268 0.6030 -0.3288
# usemtl Material.003
s off
f 213/305/132 214/306/132 217/307/132 218/308/132
f 214/306/132 211/309/132 222/310/132 221/311/132
f 211/309/132 212/312/132 226/313/132 225/314/132
f 212/312/132 213/305/132 230/315/132 229/316/132
f 213/305/132 212/312/132 211/309/132 214/306/132
s 1
f 208/317/133 207/318/134 210/319/135
f 208/317/133 210/319/135 209/320/136
f 212/321/137 207/322/134 223/323/138 226/324/139
f 209/325/136 214/326/140 221/327/141 220/328/142
f 207/329/134 212/330/137 229/331/143 227/332/144
f 214/333/140 209/334/136 215/335/145 217/336/146
f 216/337/147 218/338/148 217/339/146 215/335/145
f 210/340/135 213/341/149 218/342/148 216/337/147
f 209/334/136 210/340/135 216/337/147 215/335/145
f 220/328/142 221/343/141 222/344/150 219/345/151
f 211/346/152 208/347/133 219/345/151 222/348/150
f 208/347/133 209/325/136 220/328/142 219/345/151
f 224/349/153 225/350/154 226/351/139 223/323/138
f 207/322/134 208/352/133 224/349/153 223/323/138
f 208/352/133 211/353/152 225/354/154 224/349/153
f 227/332/144 229/355/143 230/356/155 228/357/156
f 213/358/149 210/359/135 228/357/156 230/360/155
f 210/359/135 207/329/134 227/332/144 228/357/156
g LB-HAND_L.000_LB-HAND_L.011
v 4.478600 -0.145400 2.543200
v 4.478600 -0.145401 5.129500
v 3.981300 0.716099 5.129500
v 5.473400 -0.145400 2.543200
v 5.473400 -0.145401 5.129500
v 5.970700 0.716100 2.543200
v 5.970700 0.716099 5.129500
v 5.473400 1.577600 2.543200
v 5.473400 1.577599 5.129500
v 4.478600 1.577600 2.543200
v 3.981300 0.716100 2.543200
v 4.478600 1.577599 5.129500
v 3.908700 1.504501 -3.762300
v 6.022700 1.504501 -3.762300
v 6.022700 -0.082799 -3.762300
v 3.908700 -0.082799 -3.762300
v 6.022700 -0.082799 -3.172300
v 6.022700 1.504501 -3.172300
v 3.908700 1.504501 -3.172300
v 3.908700 -0.082799 -3.172300
v 4.398900 0.112901 -3.513300
v 4.398900 0.112900 2.548100
v 4.398900 1.304400 2.548100
v 5.545300 0.112900 2.548100
v 5.545300 0.112901 -3.513300
v 5.545300 1.304401 -3.513300
v 5.545300 1.304400 2.548100
v 4.398900 1.304401 -3.513300
vt 0.546113 0.996838
vt 0.516800 0.946058
vt 0.546113 0.895278
vt 0.839602 0.690399
vt 0.810290 0.639619
vt 0.839602 0.588839
vt 0.604750 0.895278
vt 0.634063 0.946058
vt 0.604750 0.996838
vt 0.898240 0.588839
vt 0.927553 0.639619
vt 0.898240 0.690399
vt 0.509456 0.665410
vt 0.634063 0.665410
vt 0.634063 0.758971
vt 0.509456 0.758971
vt 0.634063 0.537071
vt 0.634063 0.630633
vt 0.509456 0.630633
vt 0.093952 0.897370
vt 0.093952 0.932147
vt 0.000390 0.932147
vt 0.218559 0.897370
vt 0.218559 0.932147
vt 0.312121 0.897370
vt 0.509456 0.537071
vt 0.000390 0.897370
vt 0.312121 0.932147
vt 0.274078 0.260692
vt 0.274078 0.617975
vt 0.205768 0.617975
vt 0.067963 0.617975
vt 0.067964 0.260692
vt 0.138195 0.260692
vt 0.138195 0.617975
vt 0.205768 0.260692
vt 0.000390 0.617975
vt 0.000390 0.260692
vt 0.352198 0.756635
vt 0.352198 0.896590
vt 0.293565 0.896590
vt 0.059028 0.756635
vt 0.059028 0.896590
vt 0.000390 0.896590
vt 0.117661 0.756635
vt 0.117661 0.896590
vt 0.176294 0.756635
vt 0.176294 0.896590
vt 0.234932 0.756635
vt 0.293565 0.756635
vt 0.234932 0.896590
vt 0.000390 0.756635
vn -0.3962 0.6862 0.6100
vn -0.7924 -0.0000 0.6100
vn -0.3962 -0.6862 0.6100
vn -0.3962 -0.6862 -0.6100
vn -0.7924 0.0000 -0.6100
vn -0.3962 0.6862 -0.6100
vn 0.3962 -0.6862 0.6100
vn 0.7924 -0.0000 0.6100
vn 0.3962 0.6862 0.6100
vn 0.3962 0.6862 -0.6100
vn 0.7924 -0.0000 -0.6100
vn 0.3962 -0.6862 -0.6100
vn -0.5774 0.5774 -0.5774
vn 0.5774 0.5774 -0.5774
vn 0.5774 -0.5774 -0.5774
vn -0.5774 -0.5774 -0.5774
vn 0.5774 -0.5774 0.5774
vn 0.5774 0.5774 0.5774
vn -0.5774 0.5774 0.5774
vn -0.5774 -0.5774 0.5774
vn -0.7071 -0.7071 -0.0000
vn -0.7071 0.7071 0.0000
vn 0.7071 -0.7071 -0.0000
vn 0.7071 0.7071 0.0000
# usemtl Material.003
s 1
f 242/361/157 233/362/158 232/363/159
f 231/364/160 241/365/161 240/366/162
f 242/361/157 232/363/159 235/367/163
f 242/361/157 235/367/163 237/368/164
f 242/361/157 237/368/164 239/369/165
f 231/364/160 240/366/162 238/370/166
f 231/364/160 238/370/166 236/371/167
f 231/364/160 236/371/167 234/372/168
f 243/373/169 244/374/170 245/375/171
f 243/373/169 245/375/171 246/376/172
f 247/377/173 248/378/174 249/379/175
f 246/380/172 250/381/176 249/382/175
f 245/383/171 247/384/173 250/381/176
f 247/384/173 245/383/171 244/385/170
f 248/378/174 244/374/170 243/373/169
f 247/377/173 249/379/175 250/386/176
f 246/380/172 249/382/175 243/387/169
f 245/383/171 250/381/176 246/380/172
f 247/384/173 244/385/170 248/388/174
f 248/378/174 243/373/169 249/379/175
f 251/389/177 252/390/177 253/391/178
f 254/392/179 255/393/179 256/394/180
f 257/395/180 256/394/180 258/396/178
f 255/393/179 254/392/179 252/397/177
f 251/389/177 253/391/178 258/396/178
f 254/392/179 256/394/180 257/395/180
f 257/395/180 258/396/178 253/391/178
f 255/393/179 252/397/177 251/398/177
f 231/399/160 232/400/159 233/401/158
f 234/402/168 235/403/163 232/404/159
f 235/403/163 234/402/168 236/405/167
f 237/406/164 236/405/167 238/407/166
f 239/408/165 238/407/166 240/409/162
f 241/410/161 233/401/158 242/411/157
f 231/399/160 233/401/158 241/410/161
f 234/402/168 232/404/159 231/412/160
f 235/403/163 236/405/167 237/406/164
f 237/406/164 238/407/166 239/408/165
f 239/408/165 240/409/162 242/411/157
f 241/410/161 242/411/157 240/409/162
g LB-HAND_L.001_LB-HAND_L.007
v 6.102400 4.179400 -1.523399
v 6.102400 5.482700 -2.877599
v 6.102400 6.307400 0.000601
v 3.140200 6.308800 0.000601
v 3.459400 5.484000 -2.877599
v 3.812400 4.180800 -1.523399
v 3.812500 4.180799 1.524601
v 3.506700 5.781000 1.143601
v 6.102400 5.779600 1.143601
v 6.102400 4.179399 1.524601
v 3.913200 2.812800 1.066700
v 6.027200 2.812800 1.066700
v 6.027200 3.257100 1.066700
v 6.027200 3.257100 -1.047300
v 6.027200 2.812800 -1.047300
v 3.913200 2.812800 -1.047300
v 4.065600 2.660400 -0.894900
v 5.874800 2.660400 -0.894900
v 5.874800 2.660400 0.914300
v 3.913200 3.257100 -1.047300
v 4.065600 3.409500 0.914301
v 5.874800 3.409500 0.914301
v 5.874800 3.409500 -0.894899
v 3.913200 3.257100 1.066700
v 4.065600 3.409500 -0.894899
v 6.027200 -0.387600 1.524600
v 6.027200 1.809400 1.524600
v 3.913200 1.809400 1.524600
v 3.913200 1.809400 -1.523400
v 6.027200 1.809400 -1.523400
v 6.027200 -0.387600 -1.523400
v 3.913200 -0.387600 -1.523400
v 3.913200 -0.387600 1.524600
v 4.065600 2.660400 0.914300
v 5.537000 -0.297600 0.605900
v 5.537000 -0.297600 -0.585500
v 5.537000 5.763800 -0.585499
v 4.390600 -0.297600 -0.585500
v 4.390600 5.763800 -0.585499
v 4.390600 5.763800 0.605901
v 5.537000 5.763800 0.605901
v 4.390600 -0.297600 0.605900
v 2.286000 5.209500 -0.532799
v 3.810000 5.209500 -0.532799
v 3.810000 4.747500 -0.266099
v 3.810000 4.747500 0.267301
v 2.286000 4.747500 0.267301
v 2.286000 4.747500 -0.266099
v 3.810000 5.209500 0.534001
v 2.286000 5.209500 0.534001
v 3.810000 5.671400 0.267301
v 2.286000 5.671400 0.267301
v 3.810000 5.671400 -0.266099
v 2.286000 5.671400 -0.266099
vt 0.634891 0.622165
vt 0.787892 0.622159
vt 0.769819 0.710461
vt 0.634906 0.547956
vt 0.809509 0.547955
vt 0.790670 0.371476
vt 0.769825 0.260703
vt 0.634882 0.371476
vt 0.634844 0.710476
vt 0.634844 0.260692
vt 0.636802 0.030305
vt 0.728839 0.029822
vt 0.728976 0.052667
vt 0.393125 0.054885
vt 0.394941 0.014832
vt 0.534989 0.025879
vt 0.849461 0.026825
vt 0.892968 0.136599
vt 0.999610 0.136599
vt 0.999610 0.243240
vt 0.535444 0.051647
vt 0.892968 0.029177
vt 0.999610 0.029177
vt 0.999610 0.135819
vt 0.728988 0.017168
vt 0.636397 0.066644
vt 0.636818 0.054454
vt 0.406748 0.073127
vt 0.535944 0.011182
vt 0.728318 0.063802
vt 0.847373 0.060953
vt 0.838008 0.011354
vt 0.534985 0.066014
vt 0.000390 0.618755
vt 0.129890 0.618755
vt 0.129890 0.743363
vt 0.309551 0.743363
vt 0.309551 0.618755
vt 0.439051 0.618755
vt 0.522624 0.080251
vt 0.522624 0.259912
vt 0.393125 0.259912
vt 0.266912 0.080251
vt 0.343733 0.000429
vt 0.392344 0.170081
vt 0.000390 0.170084
vt 0.052385 0.000390
vt 0.131930 0.080251
vt 0.131936 0.259912
vt 0.035581 0.238898
vt 0.892968 0.243240
vt 0.892968 0.135819
vt 0.637068 0.019788
vt 0.407081 0.000390
vt 0.837099 0.073127
vt 0.000390 0.743363
vt 0.439051 0.743363
vt 0.393125 0.080251
vt 0.361234 0.237454
vt 0.266911 0.259912
vt 0.276781 0.330918
vt 0.276781 0.262614
vt 0.634063 0.262614
vt 0.276781 0.534369
vt 0.276781 0.468717
vt 0.634063 0.468717
vt 0.634063 0.398491
vt 0.634063 0.330918
vt 0.276781 0.398491
vt 0.634063 0.534369
vt 0.647232 0.259912
vt 0.647232 0.080251
vt 0.776731 0.080251
vt 0.776731 0.259912
vt 0.869448 0.719904
vt 0.959279 0.719904
vt 0.959279 0.751348
vt 0.959279 0.782788
vt 0.869448 0.782788
vt 0.869448 0.751348
vt 0.959279 0.814232
vt 0.869448 0.814232
vt 0.959279 0.845671
vt 0.869448 0.845671
vt 0.959279 0.877112
vt 0.869448 0.877112
vt 0.959279 0.908550
vt 0.869448 0.908550
vn 0.6208 0.4964 0.6068
vn -0.5611 0.4465 0.6971
vn -0.4830 -0.5607 0.6725
vn 0.6366 0.7690 0.0592
vn -0.7536 0.6522 0.0814
vn -0.5731 0.1696 -0.8017
vn -0.5167 -0.8067 -0.2870
vn 0.5544 0.2002 -0.8078
vn 0.5660 -0.5110 0.6469
vn 0.6313 -0.7193 -0.2899
vn -0.6507 -0.3914 0.6507
vn 0.6507 -0.3914 0.6507
vn 0.6507 0.3914 0.6507
vn 0.6507 0.3914 -0.6507
vn 0.6507 -0.3914 -0.6507
vn -0.6507 -0.3914 -0.6507
vn -0.3002 -0.9054 -0.3002
vn 0.3002 -0.9054 -0.3002
vn 0.3002 -0.9054 0.3002
vn -0.6507 0.3914 -0.6507
vn -0.3002 0.9054 0.3002
vn 0.3002 0.9054 0.3002
vn 0.3002 0.9054 -0.3002
vn -0.6507 0.3914 0.6507
vn -0.3002 0.9054 -0.3002
vn 0.5774 -0.5774 0.5774
vn 0.5774 0.5774 0.5774
vn -0.5774 0.5774 0.5774
vn -0.5774 0.5774 -0.5774
vn 0.5774 0.5774 -0.5774
vn 0.5774 -0.5774 -0.5774
vn -0.5774 -0.5774 -0.5774
vn -0.5774 -0.5774 0.5774
vn -0.3002 -0.9054 0.3002
vn 0.7071 -0.0000 0.7071
vn 0.7071 0.0000 -0.7071
vn -0.7071 0.0000 -0.7071
vn -0.7071 -0.0000 0.7071
vn 0.0000 0.0002 -1.0000
vn 0.0003 0.0001 -1.0000
vn 0.0000 -0.8660 -0.5000
vn 0.0000 -0.8660 0.5000
vn 0.0000 0.0000 1.0000
vn 0.0000 0.8660 0.5000
vn 0.0001 0.8660 -0.5001
vn -0.0002 0.8662 -0.4998
# usemtl Material.003
s 1
f 267/413/181 266/414/182 265/415/183
f 261/416/184 262/417/185 266/414/182
f 263/418/186 262/417/185 261/416/184
f 264/419/187 263/418/186 260/420/188
f 267/413/181 265/415/183 268/421/189
f 261/416/184 266/414/182 267/413/181
f 263/418/186 261/416/184 260/420/188
f 264/419/187 260/420/188 259/422/190
f 269/423/191 270/424/192 271/425/193
f 272/426/194 273/427/195 274/428/196
f 271/425/193 270/424/192 273/429/195
f 275/430/197 276/431/198 277/432/199
f 278/433/200 274/428/196 269/423/191
f 279/434/201 280/435/202 281/436/203
f 277/437/199 270/424/192 269/423/191
f 279/438/201 282/439/204 271/425/193
f 281/440/203 272/426/194 278/433/200
f 275/441/197 274/428/196 273/427/195
f 280/442/202 271/425/193 272/443/194
f 276/444/198 273/429/195 270/424/192
f 269/423/191 274/428/196 275/441/197
f 283/445/205 278/433/200 282/439/204
f 284/446/206 285/447/207 286/448/208
f 287/449/209 288/450/210 289/451/211
f 290/452/212 291/453/213 286/454/208
f 259/455/190 260/456/188 261/457/184
f 262/458/185 263/459/186 264/460/187
f 262/458/185 265/461/183 266/462/182
f 265/461/183 264/460/187 259/455/190
f 269/423/191 271/425/193 282/439/204
f 272/426/194 274/428/196 278/433/200
f 271/425/193 273/429/195 272/443/194
f 275/430/197 277/432/199 292/463/214
f 278/433/200 269/423/191 282/439/204
f 279/434/201 281/436/203 283/464/205
f 277/437/199 269/423/191 292/465/214
f 279/438/201 271/425/193 280/442/202
f 281/440/203 278/433/200 283/445/205
f 275/441/197 273/427/195 276/466/198
f 280/442/202 272/443/194 281/467/203
f 276/444/198 270/424/192 277/437/199
f 269/423/191 275/441/197 292/465/214
f 283/445/205 282/439/204 279/438/201
f 284/446/206 286/448/208 291/468/213
f 287/449/209 289/451/211 290/469/212
f 290/452/212 286/454/208 287/470/209
f 259/455/190 261/457/184 267/471/181
f 259/455/190 267/471/181 268/472/189
f 262/458/185 264/460/187 265/461/183
f 265/461/183 259/455/190 268/472/189
f 293/473/215 294/474/216 295/475/216
f 294/476/216 296/477/217 297/478/217
f 298/479/218 297/478/217 296/477/217
f 299/480/215 298/479/218 300/481/218
f 293/473/215 295/475/216 299/480/215
f 294/476/216 297/478/217 295/482/216
f 298/479/218 296/477/217 300/481/218
f 299/480/215 300/481/218 293/473/215
f 284/483/206 289/484/211 288/485/210
f 284/483/206 288/485/210 285/486/207
f 285/447/207 288/450/210 287/449/209
f 289/484/211 284/483/206 291/453/213
f 285/447/207 287/449/209 286/448/208
f 289/484/211 291/453/213 290/452/212
f 301/487/219 302/488/220 303/489/221
f 304/490/222 305/491/222 306/492/221
f 307/493/223 308/494/223 305/491/222
f 309/495/224 310/496/224 308/494/223
f 310/496/224 309/495/224 311/497/225
f 312/498/226 311/497/225 302/499/220
f 301/487/219 303/489/221 306/492/221
f 304/490/222 306/492/221 303/489/221
f 307/493/223 305/491/222 304/490/222
f 309/495/224 308/494/223 307/493/223
f 310/496/224 311/497/225 312/498/226
f 312/498/226 302/499/220 301/500/219
g LB-NECK.001
v -0.308100 3.965300 -0.532999
v -0.308100 -0.102300 -0.533000
v -0.616200 -0.102300 0.000600
v 0.308100 3.965300 -0.532999
v 0.308100 -0.102300 -0.533000
v 0.616200 3.965300 0.000601
v 0.616200 -0.102300 0.000600
v 0.308100 3.965300 0.534201
v -0.308100 3.965300 0.534201
v -0.308100 -0.102300 0.534200
v 0.308100 -0.102300 0.534200
v -0.616200 3.965300 0.000601
vt 0.951536 0.312915
vt 0.951536 0.562492
vt 0.917286 0.562492
vt 0.983867 0.312915
vt 0.783310 0.562492
vt 0.783310 0.312915
vt 0.814534 0.312915
vt 0.814534 0.562492
vt 0.848784 0.312915
vt 0.883036 0.312915
vt 0.883036 0.562492
vt 0.848784 0.562492
vt 0.917286 0.312915
vt 0.983867 0.562492
vn -0.5000 0.0000 -0.8660
vn -1.0000 -0.0000 0.0000
vn 0.5000 0.0000 -0.8660
vn 1.0000 0.0000 0.0000
vn 0.5000 -0.0000 0.8660
vn -0.5000 -0.0000 0.8660
# usemtl Material.002
s 1
f 313/501/227 314/502/227 315/503/228
f 314/502/227 313/501/227 316/504/229
f 317/505/229 316/506/229 318/507/230
f 319/508/230 318/507/230 320/509/231
f 321/510/232 322/511/232 323/512/231
f 324/513/228 315/503/228 322/511/232
f 313/501/227 315/503/228 324/513/228
f 314/502/227 316/504/229 317/514/229
f 317/505/229 318/507/230 319/508/230
f 319/508/230 320/509/231 323/512/231
f 321/510/232 323/512/231 320/509/231
f 324/513/228 322/511/232 321/510/232
g LB_WAIST.003_LB_WAIST.004
v -1.150600 -1.420100 -1.912000
v -1.150600 -1.191500 -1.912000
v 1.135400 -1.191500 -1.912000
v 1.135400 -1.420100 -1.912000
v 1.905000 -1.191500 -1.142400
v 1.905000 -1.420100 -1.142400
v 1.905000 -1.191500 1.143600
v 1.135400 -1.191500 1.898000
v 1.135400 -1.420100 1.898000
v 1.905000 -1.420100 1.143600
v -1.150600 -1.191500 1.898000
v -1.150600 -1.420100 1.898000
v -1.905000 -1.191500 1.143600
v -1.905000 -1.420100 1.143600
v -1.905000 -1.191500 -1.142400
v -1.905000 -1.420100 -1.142400
v -0.723900 0.064100 1.269000
v 0.723900 0.064100 1.269000
v 0.723900 0.064100 -1.267800
v 1.447800 -1.189800 -1.142400
v -0.723900 0.064100 -1.267800
v -1.447800 -1.189800 -1.142400
v -1.447800 -1.189800 1.143600
v 1.447800 -1.189800 1.143600
v -0.457200 -1.189800 -1.913400
v -0.582600 0.064100 -1.180500
v 0.582600 0.064100 -1.180500
v 0.582600 0.064100 1.181700
v -0.582600 0.064100 1.181700
v -0.457200 -1.189800 1.899000
v 0.457200 -1.189800 1.899000
v 0.457200 -1.189800 -1.913400
v -1.150600 -1.420100 -1.912000
v -1.150600 -1.191500 -1.912000
v 1.135400 -1.191500 -1.912000
v 1.135400 -1.420100 -1.912000
v 1.905000 -1.191500 -1.142400
v 1.905000 -1.420100 -1.142400
v 1.905000 -1.191500 1.143600
v 1.135400 -1.191500 1.898000
v 1.135400 -1.420100 1.898000
v 1.905000 -1.420100 1.143600
v -1.150600 -1.191500 1.898000
v -1.150600 -1.420100 1.898000
v -1.905000 -1.191500 1.143600
v -1.905000 -1.420100 1.143600
v -1.905000 -1.191500 -1.142400
v -1.905000 -1.420100 -1.142400
vt 0.971664 0.714016
vt 0.991351 0.714016
vt 0.991351 0.840243
vt 0.971664 0.097314
vt 0.991351 0.097314
vt 0.991351 0.157411
vt 0.971664 0.157411
vt 0.991351 0.283638
vt 0.991351 0.343145
vt 0.971664 0.343145
vt 0.971664 0.283638
vt 0.991351 0.469372
vt 0.971664 0.469372
vt 0.991351 0.528283
vt 0.971664 0.528283
vt 0.991351 0.654509
vt 0.971664 0.654509
vt 0.971664 0.840243
vt 0.957700 0.487949
vt 0.957700 0.580206
vt 0.775005 0.580206
vt 0.957700 0.672195
vt 0.957700 0.580206
vt 0.775005 0.580206
vt 0.775005 0.580206
vt 0.957700 0.580206
vt 0.957700 0.672195
vt 0.794880 0.410018
vt 0.961140 0.410018
vt 0.919575 0.473783
vt 0.681918 0.519812
vt 0.733873 0.599517
vt 0.526053 0.599517
vt 0.707916 0.721797
vt 0.700615 0.625849
vt 0.768451 0.625850
vt 0.371242 0.317474
vt 0.480376 0.317474
vt 0.468631 0.436711
vt 0.783743 0.008235
vt 0.985802 0.008235
vt 0.946958 0.084021
vt 0.386026 0.078810
vt 0.461441 0.040157
vt 0.461441 0.241223
vt 0.959022 0.779133
vt 0.958531 0.822583
vt 0.884575 0.887758
vt 0.761809 0.822583
vt 0.761317 0.779133
vt 0.788642 0.347321
vt 0.788642 0.227649
vt 0.824148 0.187361
vt 0.835272 0.713959
vt 0.775005 0.487949
vt 0.775005 0.672194
vt 0.775005 0.672194
vt 0.836445 0.473783
vt 0.578008 0.519812
vt 0.761151 0.721797
vt 0.382987 0.436711
vt 0.821760 0.084021
vt 0.386026 0.203393
vt 0.885067 0.713959
vt 0.835764 0.887758
vt 0.929611 0.187361
vt 0.964415 0.227650
vt 0.964415 0.347321
vt 0.929611 0.386814
vt 0.824148 0.386814
vn -0.3873 0.0000 -0.9220
vn 0.3827 0.0000 -0.9239
vn 0.9239 0.0000 -0.3827
vn 0.9220 0.0000 0.3873
vn 0.3781 0.0000 0.9258
vn -0.3827 0.0000 0.9239
vn -0.9239 0.0000 0.3827
vn -0.9258 0.0000 -0.3781
vn -0.3983 0.6521 0.6450
vn 0.3983 0.6521 0.6450
vn 0.3983 0.6521 -0.6450
vn 0.7487 0.3778 -0.5447
vn -0.3983 0.6521 -0.6450
vn -0.7487 0.3778 -0.5447
vn -0.7487 0.3778 0.5447
vn 0.7487 0.3778 0.5447
vn -0.5429 0.3827 -0.7476
vn -0.8321 0.2155 -0.5110
vn 0.8321 0.2155 -0.5110
vn 0.8307 0.2115 0.5150
vn -0.8307 0.2115 0.5150
vn -0.5461 0.3742 0.7495
vn 0.5461 0.3742 0.7495
vn 0.5429 0.3827 -0.7476
vn -0.0000 -1.0000 -0.0000
vn -0.0000 1.0000 0.0000
# usemtl Material.001
s 1
f 325/515/233 326/516/233 327/517/234
f 328/518/234 327/519/234 329/520/235
f 330/521/235 329/520/235 331/522/236
f 332/523/237 333/524/237 334/525/236
f 335/526/238 336/527/238 333/524/237
f 337/528/239 338/529/239 336/527/238
f 339/530/240 340/531/240 338/529/239
f 326/516/233 325/515/233 340/531/240
f 325/515/233 327/517/234 328/532/234
f 328/518/234 329/520/235 330/521/235
f 330/521/235 331/522/236 334/525/236
f 332/523/237 334/525/236 331/522/236
f 335/526/238 333/524/237 332/523/237
f 337/528/239 336/527/238 335/526/238
f 339/530/240 338/529/239 337/528/239
f 326/516/233 340/531/240 339/530/240
f 341/533/241 342/534/242 343/535/243
f 344/536/244 343/537/243 342/538/242
f 341/539/241 345/540/245 346/541/246
f 347/542/247 348/543/248 342/544/242
f 343/545/243 344/546/244 346/547/246
f 349/548/249 350/549/250 351/550/251
f 352/551/252 353/552/253 354/553/254
f 355/554/255 356/555/256 351/556/251
f 350/557/250 349/558/249 354/559/254
f 366/560/257 365/561/257 368/562/257
f 372/563/257 357/564/257 368/562/257
f 363/565/258 361/566/258 359/567/258
f 368/562/257 357/564/257 360/568/257
f 341/533/241 343/535/243 345/569/245
f 344/536/244 342/538/242 348/570/248
f 341/539/241 346/541/246 347/571/247
f 347/542/247 342/544/242 341/572/241
f 343/545/243 346/547/246 345/573/245
f 349/548/249 351/550/251 356/574/256
f 352/551/252 354/553/254 355/575/255
f 355/554/255 351/556/251 352/576/252
f 350/557/250 354/559/254 353/577/253
f 366/560/257 368/562/257 360/568/257
f 366/560/257 360/568/257 362/578/257
f 372/563/257 368/562/257 370/579/257
f 363/565/258 359/567/258 358/580/258
f 363/565/258 358/580/258 371/581/258
f 363/565/258 371/581/258 369/582/258
f 363/565/258 369/582/258 367/583/258
f 363/565/258 367/583/258 364/584/258
g LB-NECK
v 1.139800 5.484000 -2.877699
v 2.667000 5.484000 -2.877699
v 3.048000 4.180700 -1.523499
v 0.723900 5.060500 -1.313999
v -3.048000 4.180700 -1.523499
v -2.667000 5.484000 -2.877699
v -1.139800 5.484000 -2.877699
v -1.139800 5.780900 1.143501
v -2.667000 5.780900 1.143501
v -3.048000 4.180699 1.524501
v -0.723900 5.060500 1.315101
v 3.048000 4.180699 1.524501
v 0.723900 5.060500 1.315101
v 2.667000 5.780900 1.143501
v 1.139800 5.780900 1.143501
v 2.286000 6.308700 0.000501
v -2.286000 6.308700 0.000501
v -0.723900 5.060500 -1.313999
v -1.444600 6.308700 0.000501
v 1.444600 6.308700 0.000501
v 1.905000 1.132700 -1.142500
v 1.447800 1.132700 -1.142500
v 0.723900 2.386500 -1.267900
v -1.905000 1.132700 -1.142500
v -0.723900 2.386500 -1.267900
v 1.447800 1.132700 1.143500
v 1.905000 1.132700 1.143500
v 0.723900 2.386500 1.268900
v -0.723900 2.386500 1.268900
v -1.905000 1.132700 1.143500
v -1.447800 1.132700 1.143500
v -1.447800 1.132700 -1.142500
v -1.139800 5.780900 -2.872899
v -2.667000 5.780900 -2.872899
v -2.286000 6.308700 -0.761499
v -1.444600 6.308700 -0.761499
v 2.286000 6.308700 -0.761499
v 2.667000 5.780900 -2.872899
v 1.139800 5.780900 -2.872899
v 1.444600 6.308700 -0.761499
v -0.571500 5.746300 -0.656699
v -0.571500 5.746300 0.657801
v 0.571500 5.746300 -0.656699
v 0.571500 5.746300 0.657801
vt 0.861036 0.083778
vt 0.944262 0.000599
vt 0.999723 0.177287
vt 0.962270 0.248777
vt 0.861036 0.270795
vt 0.000277 0.177287
vt 0.055738 0.000599
vt 0.138964 0.083778
vt 0.138964 0.270795
vt 0.037730 0.248778
vt 0.633248 0.247418
vt 0.633248 0.107155
vt 0.661301 0.107155
vt 0.366752 0.247418
vt 0.338699 0.247418
vt 0.338699 0.107155
vt 0.544417 0.255112
vt 0.544417 0.099461
vt 0.455583 0.255112
vt 0.455583 0.099461
vt 0.366752 0.107155
vt 0.661301 0.247418
vt 0.000203 0.130532
vt 0.037523 0.000203
vt 0.999797 0.130532
vt 0.962477 0.000203
vt 0.673642 0.288863
vt 0.764477 0.311877
vt 0.758815 0.429406
vt 0.616215 0.373915
vt 0.384780 0.429406
vt 0.379118 0.311877
vt 0.469953 0.288863
vt 0.688720 0.617893
vt 0.660668 0.617898
vt 0.616215 0.540605
vt 0.454881 0.617891
vt 0.527381 0.540605
vt 0.374644 0.294216
vt 0.465479 0.271201
vt 0.678117 0.271201
vt 0.768952 0.294215
vt 0.527381 0.373915
vt 0.482934 0.617902
vt 0.276090 0.271205
vt 0.304143 0.271210
vt 0.374238 0.459697
vt 0.231637 0.348497
vt 0.000203 0.459697
vt 0.142804 0.348497
vt 0.070304 0.271212
vt 0.098356 0.271201
vt 0.117285 0.560625
vt 0.023580 0.560625
vt 0.142804 0.515187
vt 0.231637 0.515187
vt 0.350861 0.560625
vt 0.257156 0.560625
vt 0.327484 0.637873
vt 0.046957 0.637873
vt 0.117285 0.818164
vt 0.023580 0.818164
vt 0.046957 0.684627
vt 0.098583 0.637873
vt 0.098583 0.684627
vt 0.327484 0.684627
vt 0.350861 0.818164
vt 0.257156 0.818164
vt 0.275857 0.684627
vt 0.275857 0.637873
vt 0.764095 0.748347
vt 0.908751 0.658879
vt 0.892684 0.866297
vt 0.755411 0.815654
vt 0.750672 0.914586
vt 0.835150 0.946413
vt 0.753616 0.982728
vt 0.578087 0.748275
vt 0.447007 0.862908
vt 0.439468 0.658879
vt 0.585985 0.813833
vt 0.580353 0.914420
vt 0.494348 0.942068
vt 0.566487 0.979248
vt 0.927050 0.816669
vt 0.947292 0.665434
vt 0.415204 0.813782
vt 0.401327 0.664933
vn 0.8245 -0.2015 -0.5288
vn 0.6486 -0.2459 -0.7203
vn 0.5174 0.8439 0.1418
vn 0.6369 0.5767 0.5116
vn 0.7364 0.0105 0.6764
vn -0.5174 0.8439 0.1418
vn -0.6486 -0.2459 -0.7203
vn -0.8244 -0.2018 -0.5288
vn -0.7363 0.0102 0.6765
vn -0.6369 0.5767 0.5116
vn -0.3975 -0.7219 0.5665
vn -0.3975 -0.7219 -0.5665
vn 0.4575 -0.6957 -0.5538
vn 0.3951 -0.7179 0.5732
vn -0.4550 -0.6931 0.5591
vn -0.4550 -0.6931 -0.5591
vn -0.2540 -0.5478 0.7971
vn -0.2540 -0.5478 -0.7971
vn 0.2520 -0.5486 0.7972
vn 0.2520 -0.5486 -0.7972
vn 0.3951 -0.7179 -0.5732
vn 0.4575 -0.6957 0.5538
vn -0.5073 0.8582 -0.0780
vn -0.6509 0.4979 -0.5731
vn 0.5073 0.8582 -0.0780
vn 0.6509 0.4979 -0.5731
vn -0.6442 -0.3324 -0.6888
vn -0.3779 0.3486 -0.8577
vn 0.6442 -0.3324 -0.6888
vn 0.6398 0.4983 -0.5850
vn -0.6398 0.4983 -0.5850
vn 0.3779 0.3486 -0.8577
vn 0.2190 0.6482 0.7293
vn 0.0800 0.3846 0.9196
vn -0.0800 0.3846 0.9196
vn -0.2190 0.6482 0.7293
vn 0.2668 0.9574 0.1101
vn 0.5409 0.8373 -0.0794
vn -0.5409 0.8373 -0.0794
vn -0.2668 0.9574 0.1101
vn 0.0615 0.8765 -0.4775
vn 0.2628 0.8830 0.3889
vn -0.0615 0.8765 -0.4775
vn -0.2628 0.8830 0.3889
# usemtl Material.002
s 1
f 375/585/259 374/586/260 388/587/261
f 386/588/262 384/589/263 388/587/261
f 389/590/264 378/591/265 377/592/266
f 389/590/264 382/593/267 381/594/268
f 398/595/269 394/596/270 393/597/271
f 403/598/272 402/599/273 396/600/274
f 398/595/269 400/601/275 395/602/276
f 400/601/275 401/603/277 397/604/278
f 404/605/279 397/604/278 401/603/277
f 375/585/259 384/589/263 399/606/280
f 382/593/267 377/592/266 396/600/274
f 378/591/265 389/590/264 407/607/281
f 378/591/265 407/607/281 406/608/282
f 409/609/283 388/587/261 374/586/260
f 410/610/284 409/609/283 374/586/260
f 375/585/259 388/587/261 384/589/263
f 389/590/264 377/592/266 382/593/267
f 398/595/269 393/597/271 399/606/280
f 403/598/272 396/600/274 404/605/279
f 398/595/269 395/602/276 394/596/270
f 400/601/275 397/604/278 395/602/276
f 404/605/279 401/603/277 403/598/272
f 375/585/259 399/606/280 393/597/271
f 382/593/267 396/600/274 402/599/273
f 373/611/285 374/612/260 375/613/259
f 376/614/286 373/611/285 375/613/259
f 377/615/266 378/616/265 379/617/287
f 375/613/259 393/618/271 394/619/270
f 377/615/266 375/613/259 395/620/276
f 396/621/274 377/615/266 397/622/278
f 378/616/265 406/623/282 405/624/288
f 373/611/285 411/625/289 410/626/284
f 379/617/287 390/627/290 377/615/266
f 390/627/290 376/614/286 375/613/259
f 375/613/259 394/619/270 395/620/276
f 377/615/266 395/620/276 397/622/278
f 396/621/274 397/622/278 404/628/279
f 378/616/265 405/624/288 379/617/287
f 373/611/285 410/626/284 374/612/260
f 390/627/290 375/613/259 377/615/266
f 398/629/269 399/630/280 384/631/263
f 400/632/275 384/631/263 382/633/267
f 401/634/277 382/633/267 402/635/273
f 398/629/269 384/631/263 400/632/275
f 400/632/275 382/633/267 401/634/277
f 401/634/277 402/635/273 403/636/272
f 380/637/291 381/638/268 382/633/267
f 383/639/292 382/633/267 384/631/263
f 385/640/293 384/631/263 386/641/262
f 387/642/294 386/641/262 388/643/261
f 389/644/264 381/638/268 380/637/291
f 405/645/288 406/646/282 407/647/281
f 391/648/295 408/649/296 407/647/281
f 409/650/283 410/651/284 411/652/289
f 388/643/261 409/650/283 412/653/297
f 380/637/291 382/633/267 383/639/292
f 383/639/292 384/631/263 385/640/293
f 385/640/293 386/641/262 387/642/294
f 387/642/294 388/643/261 392/654/298
f 389/644/264 380/637/291 391/648/295
f 405/645/288 407/647/281 408/649/296
f 391/648/295 407/647/281 389/644/264
f 409/650/283 411/652/289 412/653/297
f 388/643/261 412/653/297 392/654/298
f 390/655/290 379/656/287 391/657/295
f 413/658/299 390/655/290 391/657/295
f 414/659/300 413/658/299 391/657/295
f 414/659/300 391/657/295 380/660/291
f 383/661/292 414/659/300 380/660/291
f 376/662/286 390/655/290 413/658/299
f 392/663/298 373/664/285 376/662/286
f 392/663/298 376/662/286 415/665/301
f 392/663/298 415/665/301 416/666/302
f 387/667/294 392/663/298 416/666/302
f 387/667/294 416/666/302 385/668/293
f 414/659/300 383/661/292 385/668/293
f 416/666/302 415/665/301 413/658/299
f 408/669/296 391/657/295 379/656/287
f 405/670/288 408/669/296 379/656/287
f 373/664/285 392/663/298 412/671/297
f 373/664/285 412/671/297 411/672/289
f 376/662/286 413/658/299 415/665/301
f 414/659/300 385/668/293 416/666/302
f 416/666/302 413/658/299 414/659/300
g LB-HEAD
v -0.672300 7.620599 1.600801
v -1.176400 7.990699 1.981801
v -1.176400 7.990700 0.381601
v 1.176400 7.990700 0.381601
v 1.176400 7.990699 1.981801
v 0.672300 7.620599 1.600801
v 0.818800 7.990900 0.381601
v 0.818800 7.990899 1.981801
v -0.819000 7.990399 1.981801
v -0.672300 7.620600 -0.372799
v -0.672300 7.620600 -0.761399
v -0.819000 7.990400 -0.760899
v -1.176400 7.990700 -0.760899
v 0.672300 7.620600 -0.372799
v 0.672300 7.620600 -0.761399
v 1.176400 7.990700 -0.760899
v -0.819000 7.990400 -0.372799
v 0.818800 7.990900 -0.760899
v -0.819000 7.990400 0.381601
v 0.672300 8.665500 1.600801
v 0.672300 8.665500 -0.760899
v 0.943000 8.303200 0.381601
v 0.943000 8.303200 -0.372799
v -0.672300 8.665500 1.600801
v -0.943000 8.303200 0.381601
v -0.672300 8.665500 -0.760899
v -0.943000 8.303200 -0.372799
v -1.176400 7.990700 -0.372799
v 0.818800 7.990900 -0.372799
v 1.176400 7.990700 -0.372799
v -0.672300 7.620600 0.381601
v 0.672300 7.620600 0.381601
v 0.710100 7.716400 1.600801
v -0.819000 7.990700 0.991201
v 0.818800 7.991200 0.991201
v 0.710100 7.716400 0.991201
v -0.710300 7.716400 1.600801
v -0.710300 7.716400 0.991201
v 0.211400 8.979800 0.305401
v 0.420200 8.665500 1.600801
v 0.420200 7.761200 1.067401
v 0.420200 8.325000 -1.791999
v 0.211400 8.979800 -0.685198
v 0.420200 8.665500 -1.980599
v -0.420200 7.761200 1.067401
v -0.420200 8.665500 1.600801
v -0.208800 8.979800 0.305401
v -0.420200 8.325000 -1.791999
v -0.208800 8.979800 -0.685198
v -0.420200 8.665500 -1.980599
v 0.818800 7.991199 1.600801
v -0.819000 7.990699 1.600801
vt 0.991674 0.317932
vt 0.891403 0.363635
vt 0.891403 0.171682
vt 0.620592 0.171665
vt 0.620592 0.363619
vt 0.526421 0.317915
vt 0.931873 0.807783
vt 0.931873 0.999737
vt 0.669270 0.999737
vt 0.995724 0.954033
vt 0.050227 0.398652
vt 0.003612 0.398652
vt 0.003672 0.334864
vt 0.891403 0.034632
vt 0.991675 0.034572
vt 0.991675 0.081187
vt 0.526421 0.081170
vt 0.526421 0.034555
vt 0.620592 0.034615
vt 0.050227 0.334864
vt 0.003672 0.072261
vt 0.003612 0.008410
vt 0.050226 0.008410
vt 0.669270 0.807783
vt 0.605482 0.954033
vt 0.755645 0.317915
vt 0.755645 0.034615
vt 0.683130 0.171665
vt 0.683130 0.081170
vt 0.756350 0.317932
vt 0.828865 0.171682
vt 0.756350 0.034632
vt 0.828864 0.081187
vt 0.006918 0.634413
vt 0.087745 0.590017
vt 0.064223 0.634377
vt 0.326826 0.634437
vt 0.303336 0.590017
vt 0.384163 0.634413
vt 0.044341 0.671899
vt 0.064223 0.709948
vt 0.087745 0.754308
vt 0.006918 0.709912
vt 0.384163 0.709912
vt 0.303336 0.754308
vt 0.326826 0.709888
vt 0.044341 0.672426
vt 0.006918 0.852956
vt 0.006918 0.762461
vt 0.309317 0.762461
vt 0.946726 0.374813
vt 0.565252 0.374843
vt 0.064255 0.457423
vt 0.006918 0.457430
vt 0.087784 0.364491
vt 0.303375 0.364542
vt 0.384163 0.457518
vt 0.326858 0.457536
vt 0.937597 0.009261
vt 0.574420 0.009182
vt 0.654933 0.000263
vt 0.857146 0.000263
vt 0.087902 0.081191
vt 0.303494 0.081242
vt 0.121560 0.465810
vt 0.384163 0.465750
vt 0.366734 0.498714
vt 0.366734 0.571839
vt 0.138989 0.571839
vt 0.991675 0.171682
vt 0.526421 0.171665
vt 0.995724 0.807783
vt 0.891403 0.081187
vt 0.620592 0.081170
vt 0.050226 0.072261
vt 0.605482 0.807783
vt 0.346740 0.671899
vt 0.346740 0.672426
vt 0.309317 0.852956
vt 0.064447 0.000263
vt 0.327049 0.000265
vt 0.138989 0.498714
vt 0.954264 0.650475
vt 0.900547 0.807256
vt 0.756350 0.742272
vt 0.844065 0.398879
vt 0.954264 0.531647
vt 0.897988 0.375370
vt 0.718297 0.742302
vt 0.574120 0.807311
vt 0.520320 0.650496
vt 0.630647 0.398901
vt 0.520321 0.531668
vt 0.576741 0.375370
vt 0.384867 0.396562
vt 0.519616 0.396562
vt 0.485720 0.556461
vt 0.418346 0.556461
vt 0.485720 0.675290
vt 0.519616 0.835189
vt 0.384867 0.835189
vt 0.418346 0.675290
vt 0.519616 0.349870
vt 0.384867 0.349870
vt 0.384867 0.000263
vt 0.519616 0.000263
vt 0.553668 0.883667
vt 0.591871 0.982541
vt 0.016251 0.982361
vt 0.054455 0.883667
vn 0.5926 -0.7747 0.2205
vn -0.7247 -0.1105 0.6802
vn -0.8079 -0.1204 -0.5769
vn 0.8079 -0.1204 -0.5769
vn 0.7244 -0.1110 0.6804
vn -0.5923 -0.7750 0.2204
vn -0.2711 -0.1843 -0.9448
vn -0.1783 -0.2482 0.9522
vn 0.1780 -0.2491 0.9520
vn 0.5136 -0.6651 0.5420
vn 0.5134 -0.6648 -0.5426
vn 0.2714 -0.1835 -0.9448
vn -0.8079 -0.1203 -0.5768
vn -0.5133 -0.6653 0.5421
vn -0.5131 -0.6651 -0.5426
vn 0.8079 -0.1203 -0.5768
vn 0.2711 -0.1841 0.9448
vn -0.2713 -0.1838 -0.9448
vn 0.2711 -0.1841 -0.9448
vn 0.3518 0.8408 0.4115
vn 0.3520 0.7023 -0.6188
vn 0.8296 0.2746 -0.4861
vn 0.8296 0.2746 0.4861
vn -0.3520 0.8408 0.4114
vn -0.8296 0.2746 -0.4861
vn -0.3520 0.7023 -0.6188
vn -0.8296 0.2746 0.4861
vn -0.8079 -0.1204 0.5769
vn -0.2711 -0.1843 0.9448
vn 0.8079 -0.1204 0.5769
vn 0.5136 -0.6651 -0.5420
vn -0.5133 -0.6653 -0.5421
vn -0.0002 0.0002 -1.0000
vn 0.0002 -0.0001 -1.0000
vn 0.0000 -0.6278 -0.7784
vn -0.0000 -0.6278 0.7784
vn 0.0000 -0.6277 0.7785
vn 0.0000 -0.6277 -0.7785
vn 0.6002 0.7960 0.0782
vn 0.6469 0.7584 0.0798
vn 0.8121 -0.5543 -0.1824
vn 0.6719 -0.6020 -0.4314
vn 0.5599 0.8252 -0.0744
vn 0.6079 0.3375 -0.7188
vn -0.8125 -0.5534 -0.1831
vn -0.6470 0.7585 0.0784
vn -0.5992 0.7968 0.0781
vn -0.6724 -0.6017 -0.4311
vn -0.5584 0.8262 -0.0743
vn -0.6084 0.3376 -0.7183
vn -0.0001 0.0003 1.0000
vn 0.0001 -0.0001 1.0000
# usemtl Material
s 1
f 417/673/303 418/674/304 419/675/305
f 420/676/306 421/677/307 422/678/308
f 423/679/309 424/680/310 425/681/311
f 422/682/308 424/680/310 423/679/309
f 426/683/312 427/684/313 428/685/314
f 429/686/315 427/687/313 426/688/312
f 430/689/316 431/690/317 432/691/318
f 433/692/319 428/685/314 434/693/320
f 434/693/320 431/694/317 430/695/316
f 435/696/321 425/681/311 417/697/303
f 436/698/322 421/677/307 420/676/306
f 437/699/323 436/698/322 438/700/324
f 432/691/318 437/699/323 439/701/325
f 419/675/305 418/674/304 440/702/326
f 441/703/327 440/702/326 442/704/328
f 443/705/329 442/704/328 429/686/315
f 444/706/330 426/707/312 433/708/319
f 445/709/331 430/710/316 446/711/332
f 443/712/329 444/706/330 433/708/319
f 435/713/321 447/714/333 419/715/305
f 420/716/306 448/717/334 423/718/309
f 435/713/321 419/715/305 441/719/327
f 441/720/327 443/721/329 439/722/325
f 418/674/304 417/673/303 425/723/311
f 424/724/310 422/678/308 421/677/307
f 424/725/310 421/726/307 436/727/322
f 440/728/326 418/729/304 425/730/311
f 428/731/314 427/687/313 429/686/315
f 432/691/318 431/690/317 434/732/320
f 437/699/323 432/691/318 434/733/320
f 428/734/314 429/686/315 442/704/328
f 436/727/322 437/735/323 442/736/328
f 450/737/335 451/738/336 452/739/337
f 452/739/337 449/740/338 453/741/339
f 417/673/303 419/675/305 447/742/333
f 420/676/306 422/678/308 448/743/334
f 423/679/309 425/681/311 435/696/321
f 422/682/308 423/679/309 448/744/334
f 426/683/312 428/685/314 433/692/319
f 429/686/315 426/688/312 444/745/330
f 430/689/316 432/691/318 446/746/332
f 433/692/319 434/693/320 445/747/331
f 434/693/320 430/695/316 445/747/331
f 435/696/321 417/697/303 447/748/333
f 436/698/322 420/676/306 438/700/324
f 437/699/323 438/700/324 439/701/325
f 432/691/318 439/701/325 446/746/332
f 419/675/305 440/702/326 441/703/327
f 441/703/327 442/704/328 443/705/329
f 443/705/329 429/686/315 444/745/330
f 445/709/331 446/711/332 439/749/325
f 443/712/329 433/708/319 445/709/331
f 443/712/329 445/709/331 439/749/325
f 420/716/306 423/718/309 438/750/324
f 435/713/321 441/719/327 438/750/324
f 435/713/321 438/750/324 423/718/309
f 441/720/327 439/722/325 438/751/324
f 424/725/310 436/727/322 440/728/326
f 440/728/326 425/730/311 424/725/310
f 437/735/323 434/752/320 442/736/328
f 428/753/314 442/736/328 434/752/320
f 436/727/322 442/736/328 440/728/326
f 450/737/335 452/739/337 454/754/340
f 452/739/337 453/741/339 454/754/340
f 455/755/341 456/756/342 457/757/343
f 455/755/341 457/757/343 458/758/344
f 459/759/345 455/755/341 458/758/344
f 460/760/346 459/759/345 458/758/344
f 461/761/347 462/762/348 463/763/349
f 464/764/350 461/761/347 463/763/349
f 464/764/350 463/763/349 465/765/351
f 464/764/350 465/765/351 466/766/352
f 460/767/346 466/768/352 465/769/351
f 459/770/345 465/769/351 463/771/349
f 463/771/349 462/772/348 456/773/342
f 460/767/346 465/769/351 459/770/345
f 459/770/345 463/771/349 455/774/341
f 463/771/349 456/773/342 455/774/341
f 464/775/350 458/776/344 457/777/343
f 458/776/344 464/775/350 466/768/352
f 464/775/350 457/777/343 461/778/347
f 458/776/344 466/768/352 460/767/346
f 449/779/338 467/780/353 468/781/354
f 449/779/338 468/781/354 453/782/339
