# Blender v3.2.2 OBJ File: ''
# www.blender.org
mtllib stormtrooper.mtl
o Icosphere
v -0.404509 1.701363 -0.293893
v -0.700629 1.445145 -0.509037
v -0.809017 1.095145 -0.587785
v -0.154509 1.701363 -0.475528
v -0.267617 1.445145 -0.823639
v 0.000000 1.795145 0.000000
v -0.154509 1.701363 0.475528
v -0.267616 1.445145 0.823639
v -0.404509 1.701363 0.293893
v -0.700629 1.445145 0.509037
v -0.809017 1.002741 0.587786
v -0.500000 1.701363 0.000000
v -0.866026 1.445145 0.000000
v -0.309017 1.004333 -0.958290
v -0.133128 0.934211 -0.958290
v -0.809017 0.934211 -0.587785
v -0.158864 0.841079 -0.944219
v -0.113370 0.756795 -0.955486
v -0.525628 0.658460 -0.770685
v -0.520928 0.558971 -0.763141
v -0.671161 0.694021 -0.684534
v -0.705628 0.608074 -0.654222
v -0.730384 0.776442 -0.636332
v -0.798008 0.730792 -0.578933
v -0.852484 0.934211 -0.514926
v -1.023740 0.285713 0.154394
v -0.502574 0.524133 -0.725743
v -0.689855 0.573738 -0.615005
v -0.780805 0.692672 -0.533549
v -1.019518 0.303313 0.086605
v -1.000000 0.919203 -0.164010
v -1.042863 0.288733 0.007254
v -0.316306 0.934211 -0.958290
v -1.000000 0.713681 -0.249140
v -1.107666 0.713681 -0.192616
v -1.000000 0.508158 -0.164010
v -1.107666 0.548127 -0.124041
v -1.000000 0.423028 0.041513
v -1.107666 0.479552 0.041513
v -1.107666 0.548127 0.207067
v -1.000000 0.713681 0.332165
v -1.107666 0.713681 0.275641
v -1.000000 0.919203 0.247035
v -1.107666 0.879235 0.207067
v -1.107666 0.947809 0.041513
v -1.107666 0.879235 -0.124041
v -1.169629 0.102193 0.165698
v -1.184062 0.102193 0.067158
v -0.809017 0.285626 0.678019
v -0.309017 0.285626 1.041290
v -0.351793 0.097873 1.185431
v -1.155648 -0.118674 0.067158
v -0.345233 -0.079876 1.163326
v -1.141215 -0.118674 0.165698
v -0.302987 -0.209163 1.020972
v -0.330194 1.269922 0.839515
v -0.547702 1.269922 0.683521
v -0.867289 1.220634 -0.260606
v 0.000000 0.863317 -1.002787
v -0.977912 0.285626 0.154378
v -1.000000 0.508158 0.247035
v -0.921006 0.097873 0.771874
v -1.123025 0.089577 0.165025
v -0.903831 -0.079876 0.757480
v -0.793231 -0.209163 0.664789
v -1.102279 -0.086814 0.161808
v -0.989464 -0.214299 0.047750
v -0.968424 -0.214193 0.142622
v -0.990171 0.275550 -0.001201
v -1.123025 0.089577 0.060809
v -1.102279 -0.086814 0.060809
v -0.989464 -0.216524 -0.174727
v -0.934910 0.247983 -0.355666
v -1.103514 0.118224 -0.302923
v -1.109112 -0.107861 -0.213383
v -0.833225 -0.424415 -0.694862
v -0.748267 -0.009335 -0.951318
v -0.938636 -0.128369 -0.867553
v -0.938660 -0.296365 -0.775182
v -0.090294 -0.214741 -0.974995
v -0.726948 -0.028040 -1.095068
v -0.939218 -0.145951 -0.939195
v -0.939248 -0.352863 -0.825426
v -0.651559 -0.554591 -1.040414
v -0.622438 -0.184822 -1.185668
v -0.739175 -0.304701 -1.138704
v -0.589811 0.096311 -0.963379
v -0.398052 -0.024715 -1.103853
v -0.809388 -0.510577 -0.726499
v -0.559028 -0.366886 -0.948163
v -0.548540 -0.237810 -1.002205
v -0.587937 -0.333996 -0.964439
v -0.440350 -0.248493 -0.989078
v -0.318289 -0.364302 -1.075220
v -0.490338 -0.366271 -0.942973
v -0.326153 -0.212452 -1.103853
v -0.140096 -0.157151 -1.134637
v -0.258210 -0.447996 -0.901715
v -0.477732 -0.603210 -0.777845
v -0.231881 -0.252335 -0.996959
v -0.603624 -0.150883 0.507627
v -0.736941 -0.195874 0.112830
v -0.752951 -0.223218 -0.127110
v -0.108087 -0.371255 -0.639903
v 0.404509 1.701363 -0.293893
v 0.700629 1.445145 -0.509037
v 0.154509 1.701363 -0.475528
v 0.267617 1.445145 -0.823639
v 0.154509 1.701363 0.475528
v 0.267616 1.445145 0.823639
v 0.404509 1.701363 0.293893
v 0.700629 1.445145 0.509037
v 0.809017 1.002741 0.587786
v 0.500000 1.701363 0.000000
v 0.866026 1.445145 0.000000
v 1.000000 1.095145 0.000000
v 0.309017 1.004333 -0.958290
v 0.133128 0.934211 -0.958290
v 0.309017 1.002741 0.951057
v 0.809017 0.934211 -0.587785
v 0.158864 0.841079 -0.944219
v 0.113370 0.756795 -0.955486
v 0.525628 0.658460 -0.770685
v 0.520928 0.558971 -0.763141
v 0.671161 0.694021 -0.684534
v 0.705628 0.608074 -0.654222
v 0.730384 0.776442 -0.636332
v 0.798008 0.730792 -0.578933
v 0.852484 0.934211 -0.514926
v 1.023740 0.285713 0.154394
v 0.502574 0.524133 -0.725743
v 0.689855 0.573738 -0.615005
v 0.780805 0.692672 -0.533549
v 1.019518 0.303313 0.086605
v 0.742074 0.911890 -0.575422
v 0.495370 0.682897 -0.715030
v 1.000000 0.919203 -0.164010
v 1.042863 0.288733 0.007254
v 0.316306 0.934211 -0.958290
v 1.000000 0.713681 -0.249140
v 1.107666 0.713681 -0.192616
v 1.000000 0.508158 -0.164010
v 1.107666 0.548127 -0.124041
v 1.000000 0.423028 0.041513
v 1.107666 0.479552 0.041513
v 1.107666 0.548127 0.207067
v 1.000000 0.713681 0.332165
v 1.107666 0.713681 0.275641
v 1.000000 0.919203 0.247035
v 1.107666 0.879235 0.207067
v 1.107666 0.947809 0.041513
v 1.107666 0.879235 -0.124041
v 1.169629 0.102193 0.165698
v 1.184062 0.102193 0.067158
v 0.809017 0.285626 0.678019
v 0.309017 0.285626 1.041290
v 0.351793 0.097873 1.185431
v 1.155648 -0.118674 0.067158
v 0.345233 -0.079876 1.163326
v 1.141215 -0.118674 0.165698
v 0.302987 -0.209163 1.020972
v 0.649260 1.002741 0.703856
v 0.330194 1.269922 0.839515
v 0.547702 1.269922 0.683521
v 0.892694 1.095145 -0.330255
v 0.933032 1.220083 -0.058918
v 0.977912 0.285626 0.154378
v 1.000000 0.508158 0.247035
v 0.921006 0.097873 0.771874
v 1.123025 0.089577 0.165025
v 0.903831 -0.079876 0.757480
v 0.793231 -0.209163 0.664789
v 1.102279 -0.086814 0.161808
v 0.989464 -0.214299 0.047750
v 0.968424 -0.214193 0.142622
v 0.990171 0.275550 -0.001201
v 1.123025 0.089577 0.060809
v 1.102279 -0.086814 0.060809
v 0.989464 -0.216524 -0.174727
v 0.934910 0.247983 -0.355666
v 1.103514 0.118224 -0.302923
v 1.109112 -0.107861 -0.213383
v 0.833225 -0.424415 -0.694862
v 0.748267 -0.009335 -0.951318
v 0.938636 -0.128369 -0.867553
v 0.938660 -0.296365 -0.775182
v 0.090294 -0.214741 -0.974995
v 0.726948 -0.028040 -1.095068
v 0.939218 -0.145951 -0.939195
v 0.939248 -0.352863 -0.825426
v 0.651559 -0.554591 -1.040414
v 0.622438 -0.184822 -1.185668
v 0.589811 0.096311 -0.963379
v 0.452134 -0.139940 -1.201743
v 0.398052 -0.024715 -1.103853
v 0.809388 -0.510577 -0.726499
v 0.488780 -0.220670 -1.004750
v 0.318289 -0.364302 -1.075220
v 0.474642 -0.541772 -1.033622
v 0.490338 -0.366271 -0.942973
v 0.211996 0.092358 -1.134637
v 0.326153 -0.212452 -1.103853
v 0.140096 -0.157151 -1.134637
v 0.258210 -0.447996 -0.901715
v 0.477732 -0.603210 -0.777845
v 0.231881 -0.252335 -0.996959
v 0.142039 -0.544966 -0.853481
v 0.140898 -0.343533 -0.873052
v 0.603624 -0.150883 0.507627
v 0.736941 -0.195874 0.112830
v 0.752951 -0.204049 0.041099
v 0.752951 -0.223218 -0.127110
v 0.634058 -0.357588 -0.519974
v -0.309017 1.095145 -0.951056
v -1.000000 1.095145 0.000000
v -0.858023 1.095145 -0.623390
v -0.327736 1.095145 -1.008666
v -1.060574 1.095145 0.000000
v -0.858023 1.004333 -0.623390
v -0.327736 1.004333 -1.008666
v -1.060574 1.004333 0.041513
v -0.809017 1.004333 -0.587785
v -1.000000 1.004333 0.041513
v -0.892694 1.095145 -0.330255
v -0.734085 -0.458671 -1.080543
v -0.452134 -0.139940 -1.201743
v -0.589549 -0.280715 -0.987219
v -0.488780 -0.220670 -1.004750
v -0.435591 -0.310931 -0.962156
v -0.474642 -0.541772 -1.033622
v 0.809017 1.095145 -0.587785
v 0.309017 1.095145 -0.951056
v 0.858023 1.095145 -0.623390
v 0.327736 1.095145 -1.008666
v 1.060574 1.095145 0.000000
v 0.858023 1.004333 -0.623390
v 0.327736 1.004333 -1.008666
v 1.060574 1.004333 0.041513
v 0.809017 1.004333 -0.587785
v 1.000000 1.004333 0.041513
v 0.739175 -0.304701 -1.138704
v 0.734085 -0.458671 -1.080543
v 0.559028 -0.366886 -0.948163
v 0.548540 -0.237810 -1.002205
v 0.589549 -0.280715 -0.987219
v 0.587937 -0.333996 -0.964439
v 0.440350 -0.248493 -0.989078
v 0.435591 -0.310931 -0.962156
v -0.309017 1.002741 0.951057
v -0.166809 0.911859 -0.888946
v -0.742074 0.911890 -0.575422
v -0.189448 0.832729 -0.878388
v -0.495370 0.682897 -0.715030
v -0.616197 0.710917 -0.648548
v -0.674472 0.777757 -0.615284
v -0.649260 1.002741 0.703856
v -0.933032 1.220083 -0.058918
v -0.202251 0.202529 -1.121856
v -0.211996 0.092358 -1.134637
v 0.000000 0.222271 -1.184271
v -0.061232 -0.298046 -1.076536
v -0.142039 -0.544966 -0.853481
v -0.140898 -0.343533 -0.873052
v 0.000000 -0.376777 -1.120234
v -0.116102 -0.417591 -0.987997
v 0.000000 -0.151367 -1.213095
v 0.000000 -0.515259 -0.999135
v -0.230564 -0.120193 0.776928
v -0.752951 -0.204049 0.041099
v -0.634058 -0.357588 -0.519974
v -0.363539 -0.364738 -0.582716
v 0.166809 0.911859 -0.888946
v 0.189448 0.832729 -0.878388
v 0.616197 0.710917 -0.648548
v 0.674472 0.777757 -0.615284
v 0.867289 1.220634 -0.260606
v 0.202251 0.202529 -1.121856
v 0.000000 0.451658 -1.110366
v 0.061232 -0.298046 -1.076536
v 0.116102 -0.417591 -0.987997
v 0.230564 -0.120193 0.776928
v 0.363539 -0.364738 -0.582716
v 0.108087 -0.371255 -0.639903
vt 0.600000 0.500000
vt 0.600000 0.500000
vt 0.520346 0.500000
vt 0.375000 0.500000
vt 0.375000 0.500000
vt 0.375000 0.500000
vt 0.800000 0.500000
vt 0.800000 0.666667
vt 0.700000 0.500000
vt 0.500000 0.500000
vt 0.500000 0.500000
vt 0.500000 0.500000
vt 0.700000 0.833333
vt 0.650000 1.000000
vt 0.600000 0.833333
vt 0.700000 0.666667
vt 0.600000 0.666667
vt 0.500000 0.833333
vt 0.500000 0.666667
vt 0.600000 0.500000
vt 0.500000 0.500000
vt 0.550000 1.000000
vt 0.500000 0.500000
vt 0.500000 0.666667
vt 0.900000 0.666667
vt 0.900000 0.500000
vt 0.900000 0.500000
vt 0.900000 0.666667
vt 0.900000 0.833333
vt 0.850000 1.000000
vt 0.800000 0.833333
vt 0.520346 0.500000
vt 0.500000 0.500000
vt 0.500000 0.500000
vt 0.750000 1.000000
vt 0.500000 0.500000
vt 0.500000 0.500000
vt 0.375000 0.500000
vt 0.625000 0.500000
vt 0.625000 0.500000
vt 0.700000 0.500000
vt 0.375000 0.500000
vt 0.375000 0.500000
vt 0.625000 0.500000
vt 0.700000 0.500000
vt 0.500000 0.500000
vt 0.500000 0.500000
vt 0.500000 0.500000
vt 0.500000 0.500000
vt 0.500000 0.500000
vt 0.500000 0.500000
vt 0.500000 0.500000
vt 0.500000 0.500000
vt 0.375000 0.500000
vt 0.500000 0.500000
vt 0.500000 0.500000
vt 0.500000 0.500000
vt 0.500000 0.500000
vt 0.500000 0.500000
vt 0.750000 0.333333
vt 0.750000 0.500000
vt 0.625000 0.500000
vt 0.625000 0.333333
vt 0.500000 0.500000
vt 0.500000 0.333333
vt 0.375000 0.500000
vt 0.375000 0.333333
vt 0.900000 0.500000
vt 0.800000 0.500000
vt 0.800000 0.500000
vt 0.900000 0.500000
vt 0.375000 0.500000
vt 0.000000 0.000000
vt 0.000000 0.000000
vt 0.125000 0.333333
vt 0.125000 0.500000
vt 0.000000 0.500000
vt 0.000000 0.333333
vt 1.000000 0.333333
vt 1.000000 0.500000
vt 0.875000 0.500000
vt 0.875000 0.333333
vt 0.250000 0.333333
vt 0.625000 0.500000
vt 0.375000 0.500000
vt 0.500000 0.500000
vt 0.500000 0.500000
vt 0.500000 0.500000
vt 0.500000 0.833333
vt 0.831951 0.500000
vt 0.900000 0.500000
vt 0.800000 0.500000
vt 0.800000 0.500000
vt 0.900000 0.500000
vt 0.900000 0.833333
vt 0.950000 1.000000
vt 0.000000 0.000000
vt 0.840760 0.588148
vt 0.882895 0.590088
vt 0.643814 0.500000
vt 0.653421 0.559756
vt 0.689417 0.559494
vt 0.900000 0.500000
vt 0.900000 0.500000
vt 0.950000 0.500000
vt 0.900000 0.500000
vt 0.900000 0.500000
vt 0.450000 1.000000
vt 0.000000 0.000000
vt 0.000000 0.000000
vt 0.625000 0.500000
vt 0.500000 0.500000
vt 0.625000 0.500000
vt 0.625000 0.500000
vt 0.625000 0.500000
vt 0.600000 0.500000
vt 0.250000 0.500000
vt 0.625000 0.500000
vt 0.625000 0.500000
vt 0.625000 0.500000
vt 0.625000 0.500000
vt 0.625000 0.500000
vt 0.625000 0.500000
vt 0.625000 0.500000
vt 0.625000 0.500000
vt 0.625000 0.500000
vt 0.625000 0.500000
vt 0.625000 0.500000
vt 0.625000 0.500000
vt 0.625000 0.500000
vt 0.625000 0.500000
vt 0.625000 0.500000
vt 0.625000 0.500000
vt 0.000000 0.000000
vt 0.625000 0.500000
vt 0.625000 0.500000
vt 0.625000 0.500000
vt 0.625000 0.500000
vt 0.000000 0.000000
vt 0.625000 0.500000
vt 0.625000 0.500000
vt 0.625000 0.500000
vt 0.625000 0.500000
vt 0.625000 0.500000
vt 0.625000 0.500000
vt 0.625000 0.500000
vt 0.625000 0.500000
vt 0.500000 0.500000
vt 0.500000 0.500000
vt 0.000000 0.000000
vt 0.500000 0.500000
vt 0.500000 0.500000
vt 0.000000 0.000000
vt 0.625000 0.500000
vt 0.625000 0.500000
vt 0.625000 0.500000
vt 0.625000 0.500000
vt 0.625000 0.500000
vt 0.500000 0.500000
vt 0.500000 0.500000
vt 0.625000 0.500000
vt 0.625000 0.500000
vt 0.625000 0.500000
vt 0.625000 0.500000
vt 0.625000 0.500000
vt 0.625000 0.500000
vt 0.800000 0.500000
vt 0.900000 0.500000
vt 0.375000 0.500000
vt 0.625000 0.500000
vt 0.600000 0.500000
vt 0.600000 0.500000
vt 0.375000 0.500000
vt 0.375000 0.500000
vt 0.375000 0.500000
vt 0.800000 0.500000
vt 0.700000 0.500000
vt 0.800000 0.666667
vt 0.500000 0.500000
vt 0.500000 0.500000
vt 0.500000 0.500000
vt 0.700000 0.833333
vt 0.600000 0.833333
vt 0.700000 0.666667
vt 0.600000 0.666667
vt 0.600000 0.500000
vt 0.625000 0.500000
vt 0.625000 0.500000
vt 0.625000 0.500000
vt 0.625000 0.500000
vt 0.625000 0.500000
vt 0.625000 0.500000
vt 0.800000 0.833333
vt 0.500000 0.500000
vt 0.500000 0.500000
vt 0.625000 0.500000
vt 0.700000 0.500000
vt 0.000000 0.000000
vt 0.700000 0.500000
vt 0.500000 0.500000
vt 0.500000 0.500000
vt 0.500000 0.500000
vt 0.500000 0.500000
vt 0.500000 0.500000
vt 0.500000 0.500000
vt 0.500000 0.500000
vt 0.500000 0.500000
vt 0.375000 0.500000
vt 0.500000 0.500000
vt 0.500000 0.500000
vt 0.500000 0.500000
vt 0.500000 0.500000
vt 0.500000 0.500000
vt 0.750000 0.333333
vt 0.625000 0.333333
vt 0.625000 0.500000
vt 0.750000 0.500000
vt 0.500000 0.333333
vt 0.500000 0.500000
vt 0.375000 0.333333
vt 0.375000 0.500000
vt 0.800000 0.500000
vt 0.800000 0.500000
vt 0.375000 0.500000
vt 0.000000 0.000000
vt 0.000000 0.000000
vt 0.125000 0.333333
vt 0.000000 0.333333
vt 0.000000 0.500000
vt 0.125000 0.500000
vt 1.000000 0.333333
vt 0.875000 0.333333
vt 0.875000 0.500000
vt 1.000000 0.500000
vt 0.250000 0.333333
vt 0.625000 0.500000
vt 0.375000 0.500000
vt 0.500000 0.500000
vt 0.500000 0.500000
vt 0.625000 0.500000
vt 0.625000 0.500000
vt 0.800000 0.500000
vt 0.800000 0.500000
vt 0.500000 0.500000
vt 0.500000 0.500000
vt 0.000000 0.000000
vt 0.840760 0.588148
vt 0.882895 0.590088
vt 0.643814 0.500000
vt 0.653421 0.559756
vt 0.689417 0.559494
vt 0.625000 0.500000
vt 0.625000 0.500000
vt 0.625000 0.500000
vt 0.625000 0.500000
vt 0.625000 0.500000
vt 0.625000 0.500000
vt 0.000000 0.000000
vt 0.625000 0.500000
vt 0.500000 0.500000
vt 0.625000 0.500000
vt 0.625000 0.500000
vt 0.831951 0.500000
vt 0.625000 0.500000
vt 0.600000 0.500000
vt 0.250000 0.500000
vt 0.625000 0.500000
vt 0.625000 0.500000
vt 0.625000 0.500000
vt 0.625000 0.500000
vt 0.625000 0.500000
vt 0.625000 0.500000
vt 0.625000 0.500000
vt 0.625000 0.500000
vt 0.625000 0.500000
vt 0.625000 0.500000
vt 0.625000 0.500000
vt 0.625000 0.500000
vt 0.625000 0.500000
vt 0.000000 0.000000
vt 0.625000 0.500000
vt 0.625000 0.500000
vt 0.625000 0.500000
vt 0.000000 0.000000
vt 0.625000 0.500000
vt 0.625000 0.500000
vt 0.625000 0.500000
vt 0.625000 0.500000
vt 0.625000 0.500000
vt 0.625000 0.500000
vt 0.625000 0.500000
vt 0.625000 0.500000
vt 0.500000 0.500000
vt 0.000000 0.000000
vt 0.000000 0.000000
vt 0.500000 0.500000
vt 0.625000 0.500000
vt 0.625000 0.500000
vt 0.900000 0.500000
vt 0.800000 0.500000
vt 0.000000 0.000000
vt 0.950000 0.500000
vt 0.000000 0.000000
vt 0.500000 0.500000
vt 0.700000 0.500000
vt 0.600000 0.500000
vt 0.700000 0.500000
vt 0.600000 0.500000
vt 0.500000 0.500000
vt 0.500000 0.500000
vt 0.500000 0.500000
vt 0.500000 0.500000
vt 0.700000 0.500000
vt 0.700000 0.500000
vt 0.600000 0.500000
vt 0.600000 0.500000
vt 0.500000 0.500000
vt 0.625000 0.500000
vt 0.625000 0.500000
vt 0.500000 0.500000
vt 0.500000 0.500000
vt 0.625000 0.500000
vt 0.000000 0.000000
vn -0.6010 0.0000 -0.7992
vn 0.1042 -0.0059 0.9945
vn -0.8992 0.2801 0.3362
vn -0.6674 0.0549 -0.7426
vn -0.1840 0.9811 -0.0598
vn -0.5638 0.8054 -0.1832
vn -0.3484 0.8054 -0.4796
vn -0.5523 0.3421 -0.7602
vn -0.1137 0.9811 -0.1565
vn 0.0000 0.3421 -0.9397
vn 0.0000 0.2768 0.9609
vn -0.1137 0.9811 0.1565
vn 0.0000 0.0000 1.0000
vn -0.1840 0.9811 0.0598
vn -0.5638 0.8054 0.1832
vn -0.6420 -0.0129 -0.7666
vn -0.4808 -0.8723 0.0887
vn -0.9333 0.1493 0.3267
vn -0.0768 -0.9969 -0.0159
vn -0.7086 0.6519 -0.2700
vn 0.3041 0.4124 -0.8588
vn -0.2153 -0.8941 -0.3928
vn -0.8588 0.0000 -0.5123
vn -0.9187 0.2798 -0.2788
vn -0.9498 -0.2908 0.1158
vn 0.0269 -0.7248 -0.6884
vn 0.0150 0.0019 0.9999
vn -0.0000 -1.0000 -0.0000
vn 0.2765 0.6189 -0.7352
vn -0.8290 -0.2610 -0.4946
vn -0.4862 0.8661 -0.1160
vn -0.8924 -0.2351 -0.3852
vn -0.8937 0.3421 0.2904
vn -0.4364 -0.3443 -0.8313
vn -0.4364 -0.8313 -0.3443
vn -0.4364 -0.8313 0.3443
vn -0.3988 -0.7347 0.5489
vn -0.7719 0.5849 0.2490
vn -0.4364 0.8313 0.3443
vn -0.4364 0.8313 -0.3443
vn -0.4364 0.3443 -0.8313
vn -1.0000 -0.0000 0.0000
vn -0.9545 0.2755 0.1141
vn -0.9924 0.1188 -0.0310
vn -0.4731 -0.7483 -0.4649
vn -0.3396 -0.0481 -0.9393
vn -0.3484 0.8054 0.4796
vn -0.0118 0.9156 -0.4020
vn -0.8302 -0.5399 -0.1387
vn -0.3899 -0.0879 -0.9166
vn -0.3383 -0.0570 -0.9393
vn 0.0000 0.8054 -0.5928
vn 0.0000 1.0000 0.0000
vn 0.0000 0.5316 -0.8470
vn -0.4691 0.6026 0.6457
vn -0.5834 -0.1214 0.8030
vn 0.0000 0.9811 0.1935
vn -0.5234 -0.0890 -0.8474
vn 0.0000 0.8054 0.5928
vn -0.8349 0.0687 0.5461
vn -0.8759 0.1846 0.4457
vn -0.7359 0.6255 0.2591
vn -0.9300 -0.1406 0.3395
vn -0.9019 0.1984 -0.3837
vn -0.5610 0.2712 0.7822
vn -0.5763 0.2755 0.7694
vn -0.4364 -0.3443 0.8313
vn -0.8937 0.3421 -0.2904
vn 0.0000 0.6090 0.7932
vn 0.0000 -0.7403 0.6723
vn 0.0000 -0.1234 0.9924
vn 0.0000 0.9811 -0.1935
vn -0.0004 -0.3844 0.9232
vn -0.9290 -0.2170 0.2997
vn -0.6541 -0.7217 0.2264
vn -0.9419 -0.1165 0.3151
vn 0.0139 0.0471 0.9988
vn -0.9815 -0.1263 0.1438
vn -0.5942 0.0618 -0.8019
vn 0.1191 -0.0243 0.9926
vn -0.5641 0.2808 0.7765
vn -0.1081 -0.0134 -0.9941
vn -0.5667 0.2761 0.7763
vn -0.1958 -0.1624 -0.9671
vn -0.9885 0.1394 -0.0578
vn -0.9421 0.2413 0.2328
vn -0.1170 -0.0018 -0.9931
vn -0.2209 -0.8871 -0.4053
vn -0.7743 0.6225 0.1134
vn -0.4364 0.3443 0.8313
vn -0.2660 -0.5603 -0.7844
vn -0.6833 -0.7265 0.0728
vn -0.9986 0.0036 -0.0533
vn -0.6788 -0.7332 0.0401
vn -0.9655 -0.0748 -0.2493
vn -0.6170 0.6361 -0.4632
vn -0.8081 -0.3867 0.4443
vn -1.0000 0.0041 0.0071
vn -0.5793 0.7928 -0.1893
vn -0.6728 -0.6979 -0.2454
vn -0.7753 -0.2455 -0.5820
vn -0.5026 0.1563 -0.8503
vn -0.7908 -0.2112 -0.5745
vn -0.9798 -0.1407 -0.1418
vn -0.8216 0.1903 -0.5373
vn -0.7773 -0.2408 -0.5813
vn -0.7580 0.2496 -0.6026
vn -0.8557 0.3202 -0.4065
vn 0.0207 0.7161 -0.6977
vn -0.5547 0.8106 -0.1877
vn 0.6815 0.2610 -0.6837
vn -0.1108 0.6732 -0.7312
vn -0.3860 0.4896 -0.7819
vn -0.3343 0.5088 -0.7933
vn -0.6398 0.4688 -0.6091
vn 0.0728 -0.3902 -0.9178
vn -0.4326 0.3221 -0.8421
vn -0.5398 0.2128 -0.8144
vn -0.4308 0.3038 -0.8498
vn -0.1420 -0.0467 -0.9888
vn 0.6006 -0.4138 -0.6841
vn 0.0792 -0.9695 -0.2319
vn 0.5839 -0.6334 -0.5077
vn 0.1769 -0.8608 -0.4772
vn -0.1293 -0.9450 -0.3006
vn 0.7810 -0.0648 -0.6212
vn 0.2928 -0.8666 -0.4040
vn -0.0967 -0.5337 -0.8401
vn 0.0534 -0.3312 0.9421
vn 0.1178 -0.7795 0.6152
vn -0.0114 -0.9297 0.3682
vn -0.0303 -0.9995 0.0100
vn -0.1141 -0.5958 0.7950
vn 0.1820 -0.9731 -0.1413
vn 0.0768 -0.9969 -0.0162
vn 0.0431 -0.9990 -0.0084
vn 0.6010 0.0000 -0.7992
vn -0.1042 -0.0059 0.9945
vn 0.8992 0.2801 0.3362
vn 0.6674 0.0549 -0.7426
vn 0.1840 0.9811 -0.0598
vn 0.5638 0.8054 -0.1832
vn 0.3484 0.8054 -0.4796
vn 0.5523 0.3421 -0.7602
vn 0.1137 0.9811 -0.1565
vn -0.7301 -0.0899 -0.6774
vn 0.1141 -0.5958 0.7950
vn 0.1137 0.9811 0.1565
vn 0.1840 0.9811 0.0598
vn 0.5638 0.8054 0.1832
vn 0.6420 -0.0129 -0.7666
vn 0.4808 -0.8723 0.0887
vn 0.9333 0.1493 0.3267
vn -0.0768 -0.9969 -0.0162
vn 0.7086 0.6519 -0.2700
vn -0.3041 0.4124 -0.8588
vn 0.2153 -0.8941 -0.3928
vn 0.8588 0.0000 -0.5123
vn 0.9187 0.2798 -0.2788
vn 0.9498 -0.2908 0.1158
vn -0.0269 -0.7248 -0.6884
vn -0.0150 0.0019 0.9999
vn -0.2765 0.6189 -0.7352
vn 0.8290 -0.2610 -0.4946
vn 0.4862 0.8661 -0.1160
vn 0.8924 -0.2351 -0.3852
vn 0.8937 0.3421 0.2904
vn 0.4364 -0.3443 -0.8313
vn 0.4364 -0.8313 -0.3443
vn 0.4364 -0.8313 0.3443
vn 0.3988 -0.7347 0.5489
vn 0.7719 0.5849 0.2490
vn 0.4364 0.8313 0.3443
vn 0.4364 0.8313 -0.3443
vn 0.4364 0.3443 -0.8313
vn 1.0000 -0.0000 0.0000
vn 0.9545 0.2755 0.1141
vn 0.9924 0.1188 -0.0310
vn 0.4731 -0.7483 -0.4649
vn 0.3396 -0.0481 -0.9393
vn 0.3484 0.8054 0.4796
vn 0.0118 0.9156 -0.4020
vn 0.8302 -0.5399 -0.1387
vn 0.3899 -0.0879 -0.9166
vn 0.3383 -0.0570 -0.9393
vn -0.2646 -0.7683 0.5828
vn 0.5848 0.1013 0.8049
vn 0.4691 0.6026 0.6457
vn -0.2928 -0.8666 -0.4040
vn 0.5834 -0.1214 0.8030
vn 0.5234 -0.0890 -0.8474
vn 0.8349 0.0687 0.5461
vn 0.8759 0.1846 0.4457
vn 0.7359 0.6255 0.2591
vn 0.9300 -0.1406 0.3395
vn 0.9019 0.1984 -0.3837
vn 0.5610 0.2712 0.7822
vn 0.5763 0.2755 0.7694
vn 0.4364 -0.3443 0.8313
vn 0.8937 0.3421 -0.2904
vn -0.5526 -0.4237 -0.7177
vn -0.0792 -0.9695 -0.2319
vn 0.0114 -0.9297 0.3682
vn 0.5398 0.2128 -0.8144
vn 0.0004 -0.3844 0.9232
vn 0.9290 -0.2170 0.2997
vn 0.6541 -0.7217 0.2264
vn 0.9419 -0.1165 0.3151
vn -0.0139 0.0471 0.9988
vn 0.9815 -0.1263 0.1438
vn 0.5942 0.0618 -0.8019
vn -0.1191 -0.0243 0.9926
vn 0.5641 0.2808 0.7765
vn 0.1081 -0.0134 -0.9941
vn 0.5667 0.2761 0.7763
vn 0.1993 -0.1788 -0.9635
vn 0.9885 0.1394 -0.0578
vn 0.9421 0.2413 0.2328
vn 0.1170 -0.0018 -0.9931
vn 0.2209 -0.8871 -0.4053
vn 0.7743 0.6225 0.1134
vn 0.4364 0.3443 0.8313
vn 0.2660 -0.5603 -0.7844
vn 0.6736 -0.7391 0.0074
vn 0.9986 0.0036 -0.0533
vn 0.6328 0.7581 -0.1576
vn 0.7773 -0.6288 0.0178
vn 0.9598 -0.1351 -0.2459
vn 0.6170 0.6361 -0.4632
vn 0.8081 -0.3867 0.4443
vn 1.0000 0.0041 0.0071
vn 0.5793 0.7928 -0.1893
vn 0.6728 -0.6979 -0.2454
vn 0.8027 -0.2338 -0.5486
vn 0.5026 0.1563 -0.8503
vn 0.7908 -0.2112 -0.5745
vn 0.9798 -0.1407 -0.1418
vn 0.8216 0.1903 -0.5373
vn 0.7773 -0.2408 -0.5813
vn 0.7580 0.2496 -0.6026
vn 0.8557 0.3202 -0.4065
vn -0.0207 0.7161 -0.6977
vn 0.5547 0.8106 -0.1877
vn -0.6815 0.2610 -0.6837
vn 0.1108 0.6732 -0.7312
vn 0.3860 0.4896 -0.7819
vn 0.3343 0.5088 -0.7933
vn 0.6398 0.4688 -0.6091
vn -0.0728 -0.3902 -0.9178
vn 0.4326 0.3221 -0.8421
vn 0.3442 0.3201 -0.8826
vn 0.4308 0.3038 -0.8498
vn 0.1420 -0.0467 -0.9888
vn -0.8317 -0.3295 -0.4469
vn 0.2690 -0.9631 -0.0002
vn -0.2968 -0.8158 -0.4963
vn -0.1769 -0.8608 -0.4772
vn 0.1293 -0.9450 -0.3006
vn -0.3141 -0.0936 -0.9448
vn -0.2833 -0.6612 -0.6947
vn 0.0967 -0.5337 -0.8401
vn -0.0534 -0.3312 0.9421
vn -0.1464 -0.6675 0.7301
vn 0.0870 -0.9504 0.2987
vn -0.0462 -0.9925 0.1131
vn -0.0467 -0.9497 0.3097
vn -0.2642 -0.9287 -0.2602
vn -0.2995 -0.9541 0.0076
vn -0.0460 -0.9936 0.1030
vn 0.0000 -0.9395 -0.3425
vn -0.1395 -0.9714 -0.1920
vn -0.7234 -0.6732 -0.1530
vn 0.0303 -0.9995 0.0100
vn 0.0000 -0.7758 0.6310
vn 0.0000 0.1248 0.9922
vn 0.1887 0.3940 -0.8995
vn 0.6373 0.1475 -0.7564
vn 0.7824 -0.3000 -0.5458
vn 0.9655 -0.0748 -0.2493
vn 0.6788 -0.7332 0.0401
vn 0.8134 0.5818 0.0022
vn 0.9926 -0.1167 0.0337
vn 0.7435 -0.6651 0.0696
vn 0.1427 -0.2030 -0.9687
vn 0.0904 -0.9916 0.0928
vn 0.2995 -0.9541 0.0076
vn 0.2043 -0.9376 -0.2812
vn 0.0467 -0.9497 0.3097
vn 0.0462 -0.9925 0.1131
vn -0.0870 -0.9504 0.2987
vn 0.2713 -0.6840 0.6772
vn 0.2833 -0.6612 -0.6947
vn 0.0072 -0.4384 -0.8987
vn 0.4889 -0.8496 -0.1982
vn -0.2690 -0.9631 -0.0002
vn 0.9428 -0.0140 -0.3332
vn -0.3442 0.3201 -0.8826
vn -0.1887 0.3940 -0.8995
vn -0.6373 0.1475 -0.7564
vn -0.8010 -0.2883 -0.5246
vn -0.9598 -0.1351 -0.2459
vn -0.7773 -0.6288 0.0178
vn -0.9926 -0.1167 0.0337
vn -0.7485 -0.6631 0.0066
vn -0.1454 -0.2179 -0.9651
vn -0.5848 0.1013 0.8049
vn 0.0000 0.0000 -1.0000
vn 0.4796 -0.1382 -0.8665
vn 0.2701 0.0741 -0.9600
vn -0.2701 0.0741 -0.9600
vn -0.4796 -0.1382 -0.8665
vn -0.8134 0.5818 0.0022
vn -0.6328 0.7581 -0.1576
vn -0.9417 -0.1399 -0.3060
vn -0.9566 0.0000 -0.2914
vn 0.0000 0.4157 0.9095
vn -0.5878 0.0000 -0.8090
vn 0.5588 -0.7067 -0.4341
vn 0.2186 -0.9137 -0.3425
vn 0.7143 -0.2344 -0.6594
vn -0.2849 -0.7964 -0.5335
vn 0.5571 0.1222 -0.8214
vn -0.6711 -0.1708 -0.7214
vn -0.5779 0.3290 -0.7469
vn 0.0627 0.4624 -0.8844
vn 0.9417 -0.1399 -0.3060
vn 0.9566 0.0000 -0.2914
vn 0.5878 0.0000 -0.8090
vn -0.5588 -0.7067 -0.4341
vn -0.2186 -0.9137 -0.3425
vn -0.7143 -0.2344 -0.6594
vn 0.3509 -0.8418 -0.4102
vn -0.5571 0.1222 -0.8214
vn 0.7223 -0.1641 -0.6719
vn 0.5779 0.3290 -0.7469
vn -0.0026 0.4400 -0.8980
vn -0.0627 0.4624 -0.8844
vn 0.6052 -0.3537 -0.7132
vn 0.1650 -0.8821 -0.4411
vn 0.0026 0.4400 -0.8980
vn -0.7290 -0.3171 -0.6066
vn -0.2006 -0.8928 -0.4032
vn -0.5629 0.2769 0.7787
vn -0.4785 0.0198 -0.8779
vn -0.3800 0.2837 -0.8804
vn -0.2426 0.1329 -0.9610
vn -0.9389 0.0804 -0.3347
vn -0.9340 0.0942 -0.3446
vn -0.9793 -0.0141 -0.2022
vn -0.5326 -0.5609 -0.6338
vn -0.7120 -0.1765 -0.6796
vn -0.7545 -0.2500 -0.6068
vn 0.0000 -0.9462 0.3236
vn 0.5629 0.2769 0.7787
vn 0.7120 -0.1765 -0.6796
vn 0.4785 0.0198 -0.8779
vn 0.9457 0.1391 -0.2937
vn 0.3800 0.2837 -0.8804
vn 0.2426 0.1329 -0.9610
vn 0.9389 0.0804 -0.3347
vn 0.9153 0.1406 -0.3774
vn 0.9793 -0.0141 -0.2022
vn 0.5326 -0.5609 -0.6338
vn 0.5306 -0.5580 -0.6381
vn 0.7545 -0.2500 -0.6068
vn 0.0000 -0.9936 0.1132
vn 0.0954 0.1230 -0.9878
vn 0.0000 -0.9798 -0.1998
vn -0.5306 -0.5580 -0.6381
vn -0.9281 0.1880 -0.3213
vn -0.0954 0.1230 -0.9878
usemtl None
s off
f 16/1/1 222/2/1 33/3/1
f 66/4/2 63/5/2 54/6/2
f 11/7/3 10/8/3 215/9/3
f 24/10/4 25/11/4 23/12/4
f 12/13/5 6/14/5 1/15/5
f 13/16/6 12/13/6 1/15/6 2/17/6
f 2/17/7 1/15/7 4/18/7 5/19/7
f 3/20/8 2/17/8 5/19/8 214/21/8
f 1/15/9 6/22/9 4/18/9
f 232/23/10 214/21/10 5/19/10 108/24/10
f 8/25/11 249/26/11 119/27/11 110/28/11
f 7/29/12 6/30/12 9/31/12
f 139/32/13 118/33/13 15/34/13
f 9/31/14 6/35/14 12/13/14
f 10/8/15 9/31/15 12/13/15 13/16/15
f 21/36/16 22/37/16 24/10/16 23/12/16
f 68/38/17 54/6/17 52/39/17 67/40/17
f 11/7/18 215/9/18 223/41/18
f 175/42/19 210/43/19 174/44/19
f 223/41/20 25/11/20 31/45/20
f 255/46/21 23/12/21 16/47/21 251/48/21
f 16/1/22 15/34/22 250/49/22
f 16/47/23 25/11/23 222/2/23
f 223/41/24 222/2/24 25/11/24
f 25/11/25 24/10/25 29/50/25
f 20/51/26 18/52/26 27/53/26
f 63/5/27 47/54/27 54/6/27
f 16/1/28 33/3/28 15/34/28
f 21/36/29 23/12/29 255/46/29 254/55/29
f 25/11/30 16/47/30 23/12/30
f 17/56/31 19/57/31 253/58/31 252/59/31
f 25/11/32 29/50/32 31/45/32
f 10/8/33 13/16/33 215/9/33
f 35/60/34 34/61/34 36/62/34 37/63/34
f 37/63/35 36/62/35 38/64/35 39/65/35
f 39/65/36 38/64/36 61/66/36 40/67/36
f 53/68/37 64/69/37 65/70/37 55/71/37
f 60/72/38 63/5/38 62/73/38 49/74/38
f 44/75/39 43/76/39 223/77/39 45/78/39
f 45/79/40 223/80/40 31/81/40 46/82/40
f 46/82/41 31/81/41 34/61/41 35/60/41
f 35/60/42 37/63/42 39/65/42 40/67/42 42/83/42 44/75/42 45/79/42 46/82/42
f 38/64/43 36/62/43 32/84/43
f 26/85/44 61/66/44 30/86/44
f 28/87/45 22/37/45 20/51/45 27/53/45
f 15/34/46 59/88/46 17/56/46
f 8/25/47 7/29/47 9/31/47 10/8/47
f 19/57/48 21/36/48 254/55/48 253/58/48
f 22/37/49 28/87/49 29/50/49 24/10/49
f 20/51/50 19/57/50 17/56/50 18/52/50
f 17/56/51 59/88/51 18/52/51
f 108/24/52 5/19/52 4/18/52 107/89/52
f 249/26/53 256/90/53 11/7/53
f 118/33/54 59/88/54 15/34/54
f 50/91/55 49/92/55 62/93/55 51/94/55
f 51/94/56 62/93/56 64/69/56 53/68/56
f 7/29/57 109/95/57 6/96/57
f 19/57/58 20/51/58 22/37/58 21/36/58
f 8/25/59 110/28/59 109/95/59 7/29/59
f 49/92/60 11/7/60 41/97/60
f 41/97/61 11/7/61 43/76/61
f 43/76/62 11/7/62 223/41/62
f 41/97/63 61/66/63 49/92/63
f 250/49/64 15/34/64 17/56/64 252/59/64
f 57/98/65 56/99/65 8/25/65
f 8/25/66 56/99/66 249/26/66
f 42/83/67 40/67/67 61/66/67 41/97/67
f 224/100/68 58/101/68 2/17/68 3/20/68
f 13/16/68 257/102/68 215/9/68
f 2/17/68 58/101/68 257/102/68 13/16/68
f 51/94/69 157/103/69 156/104/69 50/91/69
f 53/68/70 55/105/70 161/106/70 159/107/70
f 51/94/71 53/68/71 159/107/71 157/103/71
f 107/89/72 4/18/72 6/108/72
f 61/66/73 26/85/73 60/72/73
f 49/74/74 61/66/74 60/72/74
f 64/109/75 66/4/75 68/38/75 65/110/75
f 62/93/76 63/5/76 66/4/76 64/69/76
f 60/72/77 26/85/77 47/54/77 63/5/77
f 47/54/78 48/111/78 52/39/78 54/6/78
f 222/2/79 14/112/79 33/3/79
f 66/4/80 54/6/80 68/38/80
f 10/8/81 57/98/81 8/25/81
f 52/39/82 48/111/82 70/113/82 71/114/82
f 11/7/83 256/90/83 57/98/83 10/8/83
f 48/111/84 32/84/84 69/115/84
f 61/66/85 38/64/85 30/86/85
f 30/86/86 38/64/86 32/84/86
f 67/40/87 52/39/87 71/114/87
f 251/116/88 16/1/88 250/49/88
f 30/86/89 32/84/89 48/111/89 47/54/89 26/85/89
f 44/75/90 42/83/90 41/117/90 43/76/90
f 32/84/91 36/62/91 69/115/91
f 71/114/92 75/118/92 72/119/92
f 70/113/93 74/120/93 75/118/93
f 72/119/94 75/118/94 79/121/94
f 75/118/95 74/120/95 78/122/95
f 74/120/96 73/123/96 77/124/96 78/122/96
f 76/125/97 79/121/97 83/126/97 89/127/97
f 79/121/98 78/122/98 82/128/98 83/126/98
f 78/122/99 77/124/99 81/129/99 82/128/99
f 89/127/100 83/126/100 225/130/100 84/131/100
f 82/128/101 86/132/101 225/130/101
f 81/129/102 85/133/102 86/132/102
f 28/87/103 36/62/103 29/50/103
f 69/115/104 36/62/104 73/123/104
f 28/87/105 73/134/105 36/62/105
f 36/62/106 34/61/106 29/50/106
f 29/50/107 34/61/107 31/81/107
f 77/124/108 73/134/108 28/87/108
f 81/129/109 87/135/109 226/136/109
f 81/129/110 77/124/110 87/135/110
f 226/136/111 88/137/111 96/138/111
f 226/136/112 87/135/112 88/137/112
f 28/87/113 87/135/113 77/124/113
f 28/87/114 27/53/114 87/135/114
f 27/53/115 18/52/115 87/139/115
f 91/140/116 228/141/116 93/142/116 229/143/116 95/144/116 90/145/116 92/146/116 227/147/116
f 18/52/117 258/148/117 87/139/117
f 18/52/118 59/88/118 278/149/118
f 88/150/119 87/139/119 258/148/119
f 88/150/120 259/151/120 97/152/120 96/153/120
f 96/138/121 100/154/121 98/155/121
f 84/131/122 230/156/122 99/157/122
f 230/156/123 94/158/123 98/155/123
f 100/154/124 96/138/124 97/152/124
f 97/152/125 266/159/125 80/160/125
f 100/154/126 263/161/126 262/162/126
f 100/154/127 97/152/127 80/160/127
f 98/155/128 262/162/128 99/157/128
f 99/157/129 76/125/129 89/127/129
f 262/162/130 104/163/130 271/164/130
f 72/119/131 76/125/131 270/165/131
f 67/40/132 72/119/132 103/166/132
f 76/125/133 99/157/133 271/164/133
f 65/70/134 101/167/134 268/168/134
f 65/110/135 68/38/135 102/169/135
f 68/38/136 67/40/136 269/170/136
f 120/171/137 139/32/137 239/172/137
f 173/173/138 160/174/138 170/175/138
f 113/176/139 116/177/139 112/178/139
f 128/179/140 127/180/140 129/181/140
f 114/182/141 105/183/141 6/14/141
f 115/184/142 106/185/142 105/183/142 114/182/142
f 106/185/143 108/24/143 107/89/143 105/183/143
f 231/186/144 232/23/144 108/24/144 106/185/144
f 105/183/145 107/89/145 6/22/145
f 202/187/146 198/188/146 206/189/146
f 205/190/147 183/191/147 282/192/147
f 109/95/148 111/193/148 6/30/148
f 111/193/149 114/182/149 6/35/149
f 112/178/150 115/184/150 114/182/150 111/193/150
f 125/194/151 127/180/151 128/179/151 126/195/151
f 175/42/152 174/44/152 158/196/152 160/174/152
f 113/176/153 240/197/153 116/177/153
f 175/42/154 172/198/154 210/43/154
f 240/197/155 137/199/155 129/181/155
f 275/200/156 135/201/156 120/202/156 127/180/156
f 120/171/157 272/203/157 118/33/157
f 120/202/158 239/172/158 129/181/158
f 240/197/159 129/181/159 239/172/159
f 129/181/160 133/204/160 128/179/160
f 124/205/161 131/206/161 122/207/161
f 170/175/162 160/174/162 153/208/162
f 120/171/28 118/33/28 139/32/28
f 125/194/163 274/209/163 275/200/163 127/180/163
f 129/181/164 127/180/164 120/202/164
f 121/210/165 273/211/165 136/212/165 123/213/165
f 129/181/166 137/199/166 133/204/166
f 112/178/167 116/177/167 115/184/167
f 141/214/168 143/215/168 142/216/168 140/217/168
f 143/215/169 145/218/169 144/219/169 142/216/169
f 145/218/170 146/220/170 168/221/170 144/219/170
f 159/107/171 161/106/171 172/222/171 171/223/171
f 167/224/172 155/225/172 169/226/172 170/175/172
f 150/227/173 151/228/173 240/229/173 149/230/173
f 151/231/174 152/232/174 137/233/174 240/234/174
f 152/232/175 141/214/175 140/217/175 137/233/175
f 141/214/176 152/232/176 151/231/176 150/227/176 148/235/176 146/220/176 145/218/176 143/215/176
f 144/219/177 138/236/177 142/216/177
f 130/237/178 134/238/178 168/221/178
f 132/239/179 131/206/179 124/205/179 126/195/179
f 118/33/180 121/210/180 59/88/180
f 110/28/181 112/178/181 111/193/181 109/95/181
f 123/213/182 136/212/182 274/209/182 125/194/182
f 126/195/183 128/179/183 133/204/183 132/239/183
f 124/205/184 122/207/184 121/210/184 123/213/184
f 121/210/185 122/207/185 59/88/185
f 207/240/186 205/190/186 283/241/186
f 119/27/187 156/104/187 155/242/187 113/176/187
f 156/104/188 157/103/188 169/243/188 155/242/188
f 203/244/189 206/189/189 187/245/189
f 157/103/190 159/107/190 171/223/190 169/243/190
f 123/213/191 125/194/191 126/195/191 124/205/191
f 155/242/192 147/246/192 113/176/192
f 147/246/193 149/230/193 113/176/193
f 149/230/194 240/197/194 113/176/194
f 147/246/195 155/242/195 168/221/195
f 272/203/196 273/211/196 121/210/196 118/33/196
f 164/247/197 110/28/197 163/248/197
f 110/28/198 119/27/198 163/248/198
f 148/235/199 147/246/199 168/221/199 146/220/199
f 165/249/200 231/186/200 106/185/200 276/250/200
f 115/184/200 116/177/200 166/251/200
f 106/185/200 115/184/200 166/251/200 276/250/200
f 206/189/201 204/252/201 208/253/201
f 199/254/202 191/255/202 205/190/202
f 183/191/203 179/256/203 213/257/203
f 59/88/204 122/207/204 278/149/204
f 168/221/205 167/224/205 130/237/205
f 155/225/206 167/224/206 168/221/206
f 171/258/207 172/198/207 175/42/207 173/173/207
f 169/243/208 171/223/208 173/173/208 170/175/208
f 167/224/209 170/175/209 153/208/209 130/237/209
f 153/208/210 160/174/210 158/196/210 154/259/210
f 239/172/211 139/32/211 117/260/211
f 173/173/212 175/42/212 160/174/212
f 112/178/213 110/28/213 164/247/213
f 158/196/214 178/261/214 177/262/214 154/259/214
f 113/176/215 112/178/215 164/247/215 162/263/215
f 177/262/216 176/264/216 138/236/216
f 168/221/217 134/238/217 144/219/217
f 134/238/218 138/236/218 144/219/218
f 174/44/219 178/261/219 158/196/219
f 135/265/220 272/203/220 120/171/220
f 134/238/221 130/237/221 153/208/221 154/259/221 138/236/221
f 150/227/222 149/230/222 147/266/222 148/235/222
f 138/236/223 176/264/223 142/216/223
f 174/44/224 179/256/224 182/267/224
f 182/267/225 181/268/225 177/262/225
f 181/268/226 180/269/226 176/264/226
f 179/256/227 183/191/227 186/270/227
f 182/267/228 186/270/228 185/271/228
f 181/268/229 185/271/229 184/272/229 180/269/229
f 183/191/230 196/273/230 190/274/230 186/270/230
f 186/270/231 190/274/231 189/275/231 185/271/231
f 185/271/232 189/275/232 188/276/232 184/272/232
f 196/273/233 191/255/233 242/277/233 190/274/233
f 190/274/234 242/277/234 241/278/234
f 241/278/235 192/279/235 188/276/235
f 132/239/236 133/204/236 142/216/236
f 176/264/237 180/269/237 142/216/237
f 132/239/238 142/216/238 180/280/238
f 142/216/239 133/204/239 140/217/239
f 133/204/240 137/233/240 140/217/240
f 184/272/241 132/239/241 180/280/241
f 194/281/242 193/282/242 188/276/242
f 188/276/243 193/282/243 184/272/243
f 194/281/244 202/187/244 195/283/244
f 194/281/245 195/283/245 193/282/245
f 132/239/246 184/272/246 193/282/246
f 132/239/247 193/282/247 131/206/247
f 131/206/248 193/284/248 122/207/248
f 244/285/249 245/286/249 246/287/249 243/288/249 200/289/249 248/290/249 247/291/249 197/292/249
f 122/207/250 193/284/250 277/293/250
f 122/207/251 277/293/251 278/149/251
f 195/294/252 277/293/252 193/284/252
f 195/294/253 202/295/253 203/244/253 201/296/253
f 198/188/254 204/252/254 206/189/254
f 191/255/255 196/273/255 205/190/255
f 205/190/256 204/252/256 198/188/256
f 206/189/257 203/244/257 202/187/257
f 203/244/258 187/245/258 266/159/258
f 204/252/259 207/240/259 208/253/259
f 206/189/260 208/253/260 187/245/260
f 204/252/261 205/190/261 207/240/261
f 205/190/262 196/273/262 183/191/262
f 205/190/263 282/192/263 283/241/263
f 179/256/264 212/297/264 213/257/264
f 174/44/265 211/298/265 212/297/265
f 183/191/266 213/257/266 282/192/266
f 161/106/267 281/299/267 209/300/267
f 172/198/268 209/301/268 210/43/268
f 210/43/269 211/298/269 174/44/269
f 55/71/270 268/302/270 281/299/270 161/106/270
f 172/222/271 161/106/271 209/300/271
f 199/254/272 205/190/272 198/188/272
f 179/256/273 174/44/273 212/297/273
f 262/162/274 207/240/274 283/241/274 104/163/274
f 50/91/275 156/104/275 119/27/275 249/26/275
f 192/279/276 194/281/276 188/276/276
f 189/275/277 241/278/277 188/276/277
f 189/275/278 190/274/278 241/278/278
f 181/268/279 182/267/279 185/271/279
f 182/267/280 179/256/280 186/270/280
f 177/262/281 181/268/281 176/264/281
f 178/261/282 182/267/282 177/262/282
f 178/261/283 174/44/283 182/267/283
f 154/259/284 177/262/284 138/236/284
f 162/263/13 119/27/13 113/176/13
f 102/169/285 68/38/285 269/170/285
f 101/303/286 65/110/286 102/169/286
f 55/71/287 65/70/287 268/168/287
f 270/165/288 76/125/288 271/164/288
f 269/170/289 67/40/289 103/166/289
f 103/166/290 72/119/290 270/165/290
f 99/157/291 262/162/291 271/164/291
f 263/161/292 100/154/292 80/160/292
f 98/155/293 100/154/293 262/162/293
f 99/157/294 230/156/294 98/155/294
f 89/127/295 84/131/295 99/157/295
f 94/158/296 96/138/296 98/155/296
f 258/148/297 18/52/297 278/149/297
f 85/133/298 81/129/298 226/136/298
f 82/128/299 81/129/299 86/132/299
f 83/126/300 82/128/300 225/130/300
f 79/121/301 75/118/301 78/122/301
f 76/125/302 72/119/302 79/121/302
f 71/114/303 70/113/303 75/118/303
f 67/40/304 71/114/304 72/119/304
f 70/113/305 48/111/305 69/115/305
f 50/91/306 249/26/306 11/7/306 49/92/306
f 117/260/307 139/32/307 33/3/307 14/112/307
f 33/3/307 139/32/307 15/34/307
f 203/244/308 266/159/308 201/296/308
f 201/296/309 266/159/309 260/304/309
f 259/151/310 260/304/310 266/159/310
f 97/152/311 259/151/311 266/159/311
f 70/113/312 69/115/312 74/120/312
f 73/123/313 74/120/313 69/115/313
f 218/305/314 216/306/314 221/307/314
f 216/306/315 219/308/315 221/307/315
f 3/20/53 214/21/53 217/309/53 216/306/53
f 221/307/28 219/308/28 222/2/28 223/41/28
f 219/308/28 220/310/28 14/112/28 222/2/28
f 218/305/316 221/307/316 223/41/316 215/9/316
f 232/23/53 234/311/53 217/309/53 214/21/53
f 117/260/28 14/112/28 220/310/28 237/312/28
f 219/308/317 216/306/317 217/309/317 220/310/317
f 86/132/318 85/133/318 91/140/318 227/147/318
f 85/133/319 226/136/319 228/141/319 91/140/319
f 225/130/320 86/132/320 227/147/320 92/146/320
f 96/138/321 93/142/321 228/141/321
f 84/131/322 225/130/322 92/146/322 90/145/322
f 93/142/323 96/138/323 94/158/323
f 229/143/324 94/158/324 230/156/324 95/144/324
f 90/145/325 95/144/325 230/156/325
f 234/311/307 237/312/307 220/310/307 217/309/307
f 235/313/326 238/314/326 233/315/326
f 233/315/327 238/314/327 236/316/327
f 231/186/53 233/315/53 234/311/53 232/23/53
f 233/315/53 231/186/53 165/249/53
f 238/314/28 240/197/28 239/172/28 236/316/28
f 236/316/28 239/172/28 117/260/28 237/312/28
f 235/313/316 116/177/316 240/197/316 238/314/316
f 236/316/328 237/312/328 234/311/328 233/315/328
f 241/278/329 245/286/329 244/285/329 192/279/329
f 192/279/330 244/285/330 197/292/330 194/281/330
f 242/277/331 246/287/331 245/286/331 241/278/331
f 194/281/332 197/292/332 247/291/332
f 191/255/333 243/288/333 246/287/333 242/277/333
f 248/290/334 198/188/334 202/187/334
f 248/290/335 200/289/335 199/254/335 198/188/335
f 243/288/336 191/255/336 199/254/336
f 200/289/337 243/288/337 199/254/337
f 247/291/338 248/290/338 202/187/338
f 202/187/339 194/281/339 247/291/339
f 84/131/340 90/145/340 230/156/340
f 229/143/341 93/142/341 94/158/341
f 226/136/342 96/138/342 228/141/342
f 224/100/53 3/20/53 216/306/53
f 224/100/53 216/306/53 218/305/53 215/9/53
f 235/313/53 233/315/53 165/249/53 116/177/53
f 215/9/68 257/102/68 58/101/68 224/100/68
f 256/90/343 249/26/343 56/99/343 57/98/343
f 250/49/344 252/59/344 253/58/344 254/55/344 255/46/344 251/48/344
f 278/149/345 260/304/345 259/151/345
f 88/150/346 258/148/346 259/151/346
f 80/160/347 266/159/347 261/317/347
f 263/161/348 80/160/348 261/317/348
f 262/162/349 263/161/349 265/318/349
f 262/162/350 265/318/350 267/319/350
f 265/318/351 261/317/351 264/320/351
f 261/317/352 266/159/352 264/320/352
f 103/166/353 270/165/353 213/257/353 212/297/353
f 116/177/200 165/249/200 276/250/200 166/251/200
f 162/263/354 164/247/354 163/248/354 119/27/354
f 279/321/355 280/322/355 264/320/355
f 272/203/356 135/201/356 275/200/356 274/209/356 136/212/356 273/211/356
f 208/253/357 280/322/357 187/245/357
f 201/296/358 260/304/358 278/149/358
f 195/294/359 201/296/359 277/293/359
f 187/245/360 279/321/360 266/159/360
f 280/322/361 279/321/361 187/245/361
f 207/240/362 280/322/362 208/253/362
f 207/240/363 267/319/363 280/322/363
f 280/322/364 267/319/364 264/320/364
f 279/321/365 264/320/365 266/159/365
f 269/170/366 103/166/366 212/297/366 211/298/366 210/43/366 209/300/366 281/299/366 268/168/366 101/167/366 102/169/366
f 277/293/367 201/296/367 278/149/367
f 262/162/368 267/319/368 207/240/368
f 270/165/366 271/164/366 104/163/366 283/323/366 282/192/366 213/257/366
f 267/319/369 265/318/369 264/320/369
f 265/318/370 263/161/370 261/317/370
f 258/148/371 278/149/371 259/151/371
