# Blender v3.2.2 OBJ File: ''
# www.blender.org
mtllib stormtrooper_goodface.mtl
o Icosphere.004
v -1.109112 -0.107861 -0.213383
v -0.989464 -0.216524 -0.174727
v -1.103514 0.118224 -0.302923
v -0.938660 -0.296365 -0.775182
v -0.938636 -0.128369 -0.867553
v -0.934910 0.247983 -0.355666
v -0.748267 -0.009335 -0.842414
v -0.833225 -0.424415 -0.694862
v -0.939248 -0.352863 -0.825426
v -0.809388 -0.510577 -0.726499
v -0.939218 -0.145951 -0.939195
v -0.726948 -0.028040 -1.095068
v -0.734085 -0.458671 -1.080543
v -0.651559 -0.554591 -1.040414
v -0.739175 -0.304701 -1.138704
v -0.622438 -0.184822 -1.185668
v -0.589811 0.096311 -0.963379
v -0.452134 -0.139940 -1.201743
v -0.398052 -0.024715 -1.103853
v -0.326153 -0.212452 -1.103853
v -0.548540 -0.237810 -1.002205
v -0.488780 -0.220670 -1.004750
v -0.440350 -0.248493 -0.989078
v -0.435591 -0.310931 -0.962156
v -0.490338 -0.366271 -0.942973
v -0.559028 -0.366886 -0.948163
v -0.587937 -0.333996 -0.964439
v -0.589549 -0.280715 -0.987219
v 0.004083 0.509022 -1.052394
v -0.214846 -0.117957 -1.178908
v -0.196874 -0.252335 -0.996959
v -0.258210 -0.447996 -0.901715
v -0.474642 -0.541772 -1.033622
v -0.477732 -0.603210 -0.777845
v -0.318289 -0.364302 -1.075220
v -0.058665 -0.113119 -1.118429
v -0.142039 -0.544966 -0.853481
v -0.108087 -0.371255 -0.639903
v -0.363539 -0.364738 -0.582716
v -0.634058 -0.357588 -0.519974
v -0.752951 -0.223218 -0.127110
v 0.326153 -0.212452 -1.103853
v 0.318289 -0.364302 -1.075220
v 0.477732 -0.603210 -0.777845
v 0.833225 -0.424415 -0.694862
v 0.363539 -0.364738 -0.582716
v 0.108087 -0.371255 -0.639903
v 0.214846 -0.117957 -1.178908
v 0.058665 -0.113119 -1.118429
v 0.258210 -0.447996 -0.901715
v 0.196874 -0.252335 -0.996959
v 0.474642 -0.541772 -1.033622
v 0.651559 -0.554591 -1.040414
v 0.989464 -0.216524 -0.174727
v 0.634058 -0.357588 -0.519974
v 1.109112 -0.107861 -0.213383
v 1.103514 0.118224 -0.302923
v 0.934910 0.247983 -0.355666
v 0.938660 -0.296365 -0.775182
v 0.938636 -0.128369 -0.867553
v 0.748267 -0.009335 -0.842414
v 0.809388 -0.510577 -0.726499
v 0.939248 -0.352863 -0.825426
v 0.939218 -0.145951 -0.939195
v 0.726948 -0.028040 -1.095068
v 0.734085 -0.458671 -1.080543
v 0.739175 -0.304701 -1.138704
v 0.622438 -0.184822 -1.185668
v 0.452134 -0.139940 -1.201743
v 0.589811 0.096311 -0.963379
v 0.398052 -0.024715 -1.103853
v 0.548540 -0.237810 -1.002205
v 0.589549 -0.280715 -0.987219
v 0.587937 -0.333996 -0.964439
v 0.559028 -0.366886 -0.948163
v 0.490338 -0.366271 -0.942973
v 0.435591 -0.310931 -0.962156
v 0.440350 -0.248493 -0.989078
v 0.488780 -0.220670 -1.004750
v 0.752951 -0.223218 -0.127110
v -0.000000 -0.041616 -1.213095
v -0.044070 -0.175918 -1.134958
v 0.000000 -0.376777 -1.070239
v 0.044070 -0.175918 -1.134958
v 0.142039 -0.544966 -0.853481
vt 0.625000 0.500000
vt 0.625000 0.500000
vt 0.625000 0.500000
vt 0.625000 0.500000
vt 0.625000 0.500000
vt 0.625000 0.500000
vt 0.500000 0.500000
vt 0.625000 0.500000
vt 0.625000 0.500000
vt 0.625000 0.500000
vt 0.625000 0.500000
vt 0.625000 0.500000
vt 0.625000 0.500000
vt 0.625000 0.500000
vt 0.625000 0.500000
vt 0.625000 0.500000
vt 0.625000 0.500000
vt 0.625000 0.500000
vt 0.625000 0.500000
vt 0.625000 0.500000
vt 0.625000 0.500000
vt 0.625000 0.500000
vt 0.625000 0.500000
vt 0.625000 0.500000
vt 0.625000 0.500000
vt 0.625000 0.500000
vt 0.625000 0.500000
vt 0.625000 0.500000
vt 0.625000 0.500000
vt 0.625000 0.500000
vt 0.625000 0.500000
vt 0.625000 0.500000
vt 0.625000 0.500000
vt 0.625000 0.500000
vt 0.625000 0.500000
vt 0.625000 0.500000
vt 0.625000 0.500000
vt 0.625000 0.500000
vt 0.625000 0.500000
vt 0.625000 0.500000
vt 0.625000 0.500000
vt 0.625000 0.500000
vt 0.625000 0.500000
vt 0.625000 0.500000
vt 0.625000 0.500000
vt 0.625000 0.500000
vt 0.625000 0.500000
vt 0.625000 0.500000
vt 0.625000 0.500000
vt 0.000000 0.000000
vt 0.000000 0.000000
vt 0.500000 0.500000
vt 0.500000 0.500000
vt 0.500000 0.500000
vt 0.000000 0.000000
vt 0.625000 0.500000
vt 0.625000 0.500000
vt 0.625000 0.500000
vt 0.500000 0.500000
vt 0.625000 0.500000
vt 0.625000 0.500000
vt 0.625000 0.500000
vt 0.625000 0.500000
vt 0.625000 0.500000
vt 0.000000 0.000000
vt 0.625000 0.500000
vt 0.625000 0.500000
vt 0.000000 0.000000
vt 0.625000 0.500000
vt 0.625000 0.500000
vt 0.625000 0.500000
vt 0.625000 0.500000
vt 0.625000 0.500000
vt 0.625000 0.500000
vt 0.625000 0.500000
vt 0.625000 0.500000
vt 0.000000 0.000000
vt 0.625000 0.500000
vt 0.625000 0.500000
vt 0.625000 0.500000
vt 0.625000 0.500000
vt 0.000000 0.000000
vt 0.000000 0.000000
vt 0.625000 0.500000
vt 0.625000 0.500000
vt 0.625000 0.500000
vt 0.500000 0.500000
vt 0.500000 0.500000
vt 0.000000 0.000000
vt 0.625000 0.500000
vt 0.625000 0.500000
vt 0.500000 0.500000
vt 0.500000 0.500000
vt 0.625000 0.500000
vt 0.625000 0.500000
vn -0.9670 -0.0491 -0.2499
vn -0.9669 -0.0486 -0.2505
vn -0.9711 -0.0920 -0.2203
vn 0.2331 -0.8073 -0.5421
vn 0.2405 -0.7862 -0.5692
vn 0.4018 -0.7200 -0.5658
vn -0.4765 -0.4366 -0.7631
vn -0.5708 -0.3833 -0.7261
vn -0.5762 -0.3840 -0.7215
vn 0.1140 0.6229 -0.7740
vn 0.0942 0.6070 -0.7891
vn -0.0217 0.6473 -0.7620
vn -0.1811 -0.9101 -0.3727
vn -0.2659 -0.8182 -0.5097
vn -0.1591 -0.9033 -0.3983
vn -0.7535 -0.4148 -0.5101
vn -0.6915 -0.3099 -0.6525
vn -0.7313 -0.4232 -0.5350
vn 0.6300 -0.7706 0.0957
vn 0.7356 -0.6735 0.0726
vn 0.7106 -0.6901 0.1372
vn 0.9581 -0.1667 -0.2329
vn 0.9549 -0.1697 -0.2435
vn 0.9643 -0.1104 -0.2406
vn -0.8081 -0.3867 0.4443
vn -1.0000 0.0041 0.0071
vn -0.5170 0.8493 -0.1065
vn -0.6728 -0.6979 -0.2454
vn 0.7916 -0.2058 -0.5753
vn 0.8125 -0.1960 -0.5490
vn 0.7934 -0.2624 -0.5493
vn 0.6151 0.2641 -0.7429
vn 0.4842 0.2590 -0.8358
vn 0.4780 0.3015 -0.8250
vn -0.3450 -0.8554 -0.3863
vn -0.0745 -0.9907 -0.1141
vn -0.3236 -0.8975 -0.2998
vn -0.1123 0.7110 -0.6941
vn -0.1094 0.7548 -0.6468
vn 0.0160 0.7579 -0.6522
vn 0.0148 0.4369 -0.8994
vn 0.0142 0.4335 -0.9011
vn -0.0399 0.4651 -0.8844
vn -0.6079 0.7864 -0.1095
vn 0.6815 0.2610 -0.6837
vn -0.1068 0.4777 -0.8720
vn -0.0545 0.4486 -0.8921
vn -0.1093 0.4640 -0.8791
vn 0.0728 -0.3902 -0.9178
vn -0.3847 0.3713 -0.8451
vn -0.2432 0.2770 -0.9296
vn -0.2433 0.2772 -0.9295
vn -0.2548 0.2466 -0.9350
vn -0.2469 0.2451 -0.9375
vn 0.7414 -0.4670 -0.4820
vn 0.6114 -0.1159 -0.7827
vn 0.7413 -0.4670 -0.4820
vn 0.6114 -0.1159 -0.7828
vn -0.1464 -0.6675 0.7301
vn -0.2646 -0.7683 0.5828
vn 0.2189 -0.8390 -0.4981
vn -0.0967 -0.5337 -0.8401
vn 0.0967 -0.1376 0.9857
vn 0.2004 -0.4297 0.8804
vn 0.2219 -0.3958 0.8911
vn -0.6204 -0.7835 0.0346
vn -0.6240 -0.7798 0.0509
vn -0.7245 -0.6892 0.0052
vn -0.6277 0.6294 -0.4582
vn -0.5869 0.5546 -0.5898
vn -0.7585 0.4542 -0.4673
vn -0.7491 0.4854 -0.4508
vn -0.7875 -0.3217 -0.5257
vn -0.7668 -0.2741 -0.5803
vn -0.7558 -0.2948 -0.5846
vn 0.3688 -0.9278 0.0560
vn 0.3804 -0.9212 0.0813
vn 0.1345 -0.9646 -0.2270
vn 0.2524 -0.7663 -0.5909
vn -0.0156 0.4526 -0.8916
vn -0.0167 0.4544 -0.8907
vn 0.0356 0.4882 -0.8720
vn -0.4468 -0.1711 -0.8781
vn 0.2626 -0.8821 -0.3910
vn 0.3450 -0.8554 -0.3863
vn -0.0325 -0.9591 -0.2813
vn 0.0339 -0.9310 0.3636
vn 0.0204 -0.9182 0.3957
vn -0.0560 -0.9431 0.3276
vn -0.6150 0.2513 -0.7474
vn -0.6151 0.2641 -0.7429
vn -0.4780 0.3015 -0.8250
vn 0.4765 -0.4366 -0.7631
vn 0.5762 -0.3840 -0.7215
vn 0.4823 -0.4315 -0.7624
vn 0.1123 -0.9633 0.2438
vn 0.1292 -0.9574 0.2582
vn 0.0446 -0.9481 0.3149
vn 0.8081 -0.3867 0.4443
vn 1.0000 0.0041 0.0071
vn 0.5796 0.7925 -0.1898
vn 0.6728 -0.6979 -0.2454
vn -0.0805 -0.6587 0.7481
vn -0.0770 -0.6567 0.7502
vn 0.2093 -0.5707 0.7940
vn 0.1439 -0.9039 -0.4027
vn 0.3291 -0.8638 -0.3815
vn 0.3241 -0.8863 -0.3307
vn -0.0942 0.6070 -0.7891
vn 0.0214 0.6695 -0.7425
vn 0.0217 0.6473 -0.7620
vn 0.6079 0.7864 -0.1095
vn -0.6815 0.2610 -0.6837
vn 0.6079 0.4963 -0.6198
vn 0.5869 0.5546 -0.5898
vn 0.7491 0.4854 -0.4508
vn -0.8125 -0.2501 -0.5266
vn -0.8183 -0.2380 -0.5233
vn -0.7950 -0.1949 -0.5745
vn -0.2219 -0.3958 0.8911
vn -0.0082 -0.1272 0.9918
vn -0.0967 -0.1376 0.9857
vn -0.0728 -0.3902 -0.9178
vn 0.3874 0.3675 -0.8455
vn -0.5839 -0.6334 -0.5078
vn -0.4889 -0.8496 -0.1982
vn -0.6115 -0.1160 -0.7827
vn -0.7413 -0.4670 -0.4820
vn 0.9669 -0.0486 -0.2505
vn 0.9610 -0.1084 -0.2543
vn 0.9650 -0.0504 -0.2572
vn -0.2189 -0.8390 -0.4981
vn -0.0063 -0.4393 -0.8983
vn 0.4468 -0.1711 -0.8781
vn 0.0967 -0.5337 -0.8401
vn 0.5170 0.8493 -0.1065
vn 0.7727 -0.3275 -0.5438
vn 0.7958 -0.2620 -0.5460
vn 0.7912 -0.3173 -0.5228
vn -0.0467 -0.9497 0.3097
vn 0.7205 -0.0979 -0.6865
vn 0.7481 -0.1103 -0.6544
vn 0.6354 -0.3028 -0.7103
vn 0.0000 -0.7758 0.6310
vn 0.1887 0.3940 -0.8995
vn -0.1292 -0.9574 0.2582
vn -0.0562 -0.9419 0.3311
vn -0.1299 -0.9317 0.3391
vn -0.6114 -0.1159 -0.7827
vn -0.0202 -0.9181 0.3959
vn 0.0643 -0.9390 0.3378
vn -0.0084 -0.9139 0.4060
vn 0.4764 -0.4366 -0.7631
vn 0.5750 -0.3950 -0.7165
vn 0.5762 -0.3839 -0.7215
vn 0.1178 -0.7795 0.6152
vn 0.2712 -0.6840 0.6772
vn 0.0467 -0.9497 0.3097
vn -0.9549 -0.1697 -0.2435
vn -0.9549 -0.1252 -0.2691
vn -0.9548 -0.1688 -0.2448
vn -0.0902 -0.3910 0.9160
vn -0.2093 -0.5707 0.7940
vn 0.0770 -0.6567 0.7502
vn -0.5796 0.7925 -0.1898
vn 0.0063 -0.4393 -0.8983
vn -0.1887 0.3940 -0.8995
vn -0.3804 -0.9212 0.0813
vn -0.0191 -0.9984 0.0534
vn -0.3599 -0.9300 0.0750
vn 0.4889 -0.8495 -0.1982
vn 0.5839 -0.6334 -0.5077
vn 0.6492 0.0478 -0.7591
vn 0.6506 0.0356 -0.7585
vn 0.5203 0.0085 -0.8540
vn 0.5588 -0.7067 -0.4341
vn 0.2186 -0.9137 -0.3425
vn 0.7143 -0.2344 -0.6594
vn 0.5571 0.1222 -0.8214
vn -0.5779 0.3290 -0.7469
vn 0.1094 0.7548 -0.6468
vn -0.0227 0.7530 -0.6576
vn -0.0160 0.7579 -0.6522
vn -0.5839 -0.6334 -0.5077
vn -0.4889 -0.8495 -0.1982
vn -0.5588 -0.7067 -0.4341
vn -0.2186 -0.9137 -0.3425
vn -0.7143 -0.2344 -0.6594
vn -0.4206 -0.7602 -0.4952
vn -0.3409 -0.7079 -0.6187
vn -0.2704 -0.8217 -0.5018
vn -0.5571 0.1222 -0.8214
vn -0.6555 -0.1186 -0.7459
vn -0.6461 -0.1203 -0.7537
vn -0.7329 -0.2429 -0.6355
vn 0.5779 0.3290 -0.7469
vn 0.0521 0.4026 -0.9139
vn 0.1075 0.4294 -0.8967
vn 0.1130 0.4113 -0.9045
vn -0.8182 -0.5749 0.0073
vn -0.7336 -0.6769 0.0598
vn -0.8207 -0.5710 0.0208
vn 0.1179 -0.7795 0.6153
vn 0.2713 -0.6840 0.6772
vn -0.6506 0.0356 -0.7585
vn -0.5209 0.0570 -0.8517
vn -0.5203 0.0085 -0.8540
vn -0.6794 0.0350 -0.7329
vn 0.0000 -0.7980 -0.6027
vn -0.2519 -0.7664 -0.5909
vn -0.2524 -0.7663 -0.5909
vn -0.2528 -0.7662 -0.5908
vn 0.6794 0.0350 -0.7329
vn 0.0000 0.2545 -0.9671
vn 0.7156 -0.6985 -0.0053
vn 0.7337 -0.6755 -0.0728
vn 0.8076 -0.5889 -0.0309
vn 0.4889 -0.8496 -0.1982
vn 0.5839 -0.6335 -0.5077
vn 0.0000 -0.3067 -0.9518
vn 0.0000 -0.7901 -0.6130
vn 0.5071 -0.4727 -0.7207
vn 0.6484 -0.3036 -0.6981
vn 0.5979 -0.4983 -0.6279
vn 0.3925 0.7424 -0.5430
vn 0.6277 0.6294 -0.4582
vn -0.3925 0.7424 -0.5430
vn -0.4764 -0.4366 -0.7631
vn -0.5762 -0.3839 -0.7215
vn -0.4844 -0.4445 -0.7535
vn 0.2438 0.2743 -0.9302
vn 0.2437 0.2743 -0.9302
vn 0.2416 0.2425 -0.9396
vn 0.2472 0.2422 -0.9382
usemtl None.001
s off
f 1/1/1 3/2/2 5/3/3
f 78/4/4 42/5/5 79/6/6
f 83/7/7 37/8/8 31/9/9
f 69/10/10 71/11/11 65/12/12
f 18/13/13 20/14/14 22/15/15
f 24/16/16 23/17/17 35/18/18
f 56/19/19 54/20/20 45/21/21
f 56/19/22 59/22/23 60/23/24
f 8/24/25 4/25/25 9/26/25 10/27/25
f 4/25/26 5/3/26 11/28/26 9/26/26
f 5/3/27 7/29/27 12/30/27
f 10/27/28 9/26/28 13/31/28 14/32/28
f 63/33/29 66/34/30 67/35/31
f 64/36/32 67/35/33 68/37/34
f 52/38/35 53/39/36 44/40/37
f 17/41/38 19/42/39 12/30/40
f 75/43/41 53/39/42 52/38/43
f 12/30/44 7/29/44 17/41/44
f 18/13/45 19/42/45 20/14/45
f 76/44/46 75/43/47 52/38/48
f 21/45/49 22/15/49 23/17/49 24/16/49 25/46/49 26/47/49 27/48/49 28/49/49
f 19/50/50 17/51/50 29/52/50
f 19/50/51 29/52/52 81/53/53 30/54/54
f 31/55/55 35/18/56 20/14/56
f 31/55/57 32/56/57 35/18/58
f 46/57/59 85/58/60 44/40/59
f 30/54/61 81/53/61 36/59/61
f 32/56/62 37/8/62 34/60/62
f 62/61/63 45/21/64 46/57/65
f 46/57/59 47/62/60 85/58/60
f 2/63/66 1/1/67 4/25/68
f 3/2/69 6/64/69 5/3/69
f 17/41/70 7/29/71 6/65/72
f 9/26/73 11/28/74 15/66/75
f 53/39/76 62/61/77 44/40/78
f 30/54/79 36/59/79 31/9/79 20/14/79
f 33/67/80 14/32/81 25/46/82
f 30/54/83 20/68/83 19/50/83
f 14/32/84 33/67/85 34/60/86
f 2/63/87 8/24/88 40/69/89
f 15/66/90 11/28/91 16/70/92
f 83/7/93 51/71/94 85/58/95
f 54/20/96 80/72/97 55/73/98
f 45/21/99 62/61/99 63/33/99 59/22/99
f 59/22/100 63/33/100 64/36/100 60/23/100
f 60/23/101 64/36/101 65/12/101
f 62/61/102 53/39/102 66/34/102 63/33/102
f 34/60/103 39/74/104 10/27/105
f 42/5/106 69/10/107 79/6/108
f 19/42/109 18/13/110 12/30/111
f 65/12/112 70/75/112 61/76/112
f 69/10/113 42/5/113 71/11/113
f 61/76/114 70/75/115 58/77/116
f 13/31/117 9/26/118 15/66/119
f 39/74/120 8/24/121 10/27/122
f 72/78/123 73/79/123 74/80/123 75/43/123 76/44/123 77/81/123 78/4/123 79/6/123
f 71/82/124 29/52/124 70/83/124
f 50/84/125 52/38/126 44/40/126
f 51/71/127 43/85/128 50/84/128
f 57/86/129 56/19/130 60/23/131
f 48/87/132 49/88/132 81/53/132
f 50/84/133 85/58/133 51/71/133
f 48/87/134 71/82/134 42/89/134
f 50/84/135 44/40/135 85/58/135
f 61/76/136 60/23/136 65/12/136
f 64/36/137 63/33/138 67/35/139
f 45/21/140 55/73/140 46/57/140
f 77/81/141 43/85/142 42/5/143
f 37/8/144 85/58/144 47/62/144 38/90/144
f 68/37/145 69/10/145 65/12/145
f 41/91/146 2/63/147 40/69/148
f 51/71/149 42/5/149 43/85/128
f 45/21/150 54/20/151 55/73/152
f 83/7/153 84/92/154 51/71/155
f 37/8/156 38/90/156 39/74/157
f 40/69/158 8/24/158 39/74/158
f 4/25/159 1/1/160 5/3/161
f 44/40/162 62/61/163 46/57/164
f 11/28/165 5/3/165 12/30/165
f 32/56/166 31/9/166 37/8/166
f 16/70/167 12/30/167 18/13/167
f 10/27/168 14/32/169 34/60/170
f 32/56/171 33/67/172 35/18/172
f 65/12/173 64/36/174 68/37/175
f 15/66/176 16/70/176 21/45/176 28/49/176
f 16/70/177 18/13/177 22/15/177 21/45/177
f 13/31/178 15/66/178 28/49/178 27/48/178
f 14/32/179 13/31/179 27/48/179 26/47/179
f 24/16/180 35/18/180 33/67/180 25/46/180
f 71/11/181 70/75/182 65/12/183
f 50/84/184 43/85/184 52/38/185
f 67/35/186 73/79/186 72/78/186 68/37/186
f 68/37/187 72/78/187 79/6/187 69/10/187
f 66/34/188 74/80/188 73/79/188 67/35/188
f 20/14/189 23/17/190 22/15/191
f 53/39/192 75/43/192 74/80/192 66/34/192
f 23/17/193 20/14/194 35/18/195
f 77/81/196 76/44/196 52/38/196 43/85/196
f 14/32/197 26/47/198 25/46/199
f 8/24/200 2/63/201 4/25/202
f 37/8/203 39/74/204 34/60/204
f 11/28/205 12/30/206 16/70/207
f 31/9/208 36/59/208 82/93/208
f 36/59/209 81/53/209 49/88/209
f 48/87/210 42/5/211 51/71/211 49/88/212
f 84/92/213 49/88/213 51/71/213
f 36/59/214 49/88/214 84/92/214 82/93/214
f 59/22/215 56/19/216 45/21/217
f 32/56/218 34/60/218 33/67/219
f 83/7/220 82/93/220 84/92/220
f 37/8/221 83/94/221 85/58/221
f 78/4/222 77/81/223 42/5/224
f 58/95/225 60/23/225 61/76/225
f 60/23/226 58/95/226 57/86/226
f 5/3/227 6/64/227 7/29/227
f 83/7/228 31/9/229 82/93/230
f 81/53/231 29/52/232 71/82/233 48/87/234
