# Blender v3.2.2 OBJ File: ''
# www.blender.org
o Icosphere
v 0.000000 -0.000000 1.000000
v -0.425323 -0.309011 0.850654
v 0.162456 -0.499995 0.850654
v -0.723607 -0.525725 0.447220
v -0.850648 -0.000000 0.525736
v 0.525730 -0.000000 0.850652
v 0.162456 0.499995 0.850654
v -0.425323 0.309011 0.850654
v -0.951058 -0.309013 -0.000000
v 0.276388 -0.850649 0.447220
v -0.262869 -0.809012 0.525738
v 0.000000 -1.000000 -0.000000
v 0.894426 -0.000000 0.447216
v 0.688189 -0.499997 0.525736
v 0.951058 -0.309013 -0.000000
v 0.276388 0.850649 0.447220
v 0.688189 0.499997 0.525736
v 0.587786 0.809017 0.000000
v -0.723607 0.525725 0.447219
v -0.262869 0.809012 0.525738
v -0.587786 0.809017 0.000000
v -0.587786 -0.809017 -0.000000
v 0.587786 -0.809017 -0.000000
v 0.951058 0.309013 0.000000
v 0.000000 1.000000 0.000000
v -0.951058 0.309013 0.000000
v -0.688189 -0.499997 -0.422252
v -0.894426 0.000000 -0.422252
v -0.688189 0.499997 -0.422252
v -0.276388 0.850649 -0.422252
v 0.262869 0.809012 -0.422252
v 0.723607 0.525725 -0.422252
v 0.850648 0.000000 -0.422252
v 0.723607 -0.525725 -0.422252
v 0.262869 -0.809012 -0.422252
v -0.276388 -0.850649 -0.422252
v -0.688189 -0.499997 -0.422252
v -0.894426 0.000000 -0.422252
v -0.688189 0.499997 -0.422252
v -0.276388 0.850649 -0.422252
v 0.262869 0.809012 -0.422252
v 0.723607 0.525725 -0.422252
v 0.850648 0.000000 -0.422252
v 0.723607 -0.525725 -0.422252
v 0.262869 -0.809012 -0.422252
v -0.276388 -0.850649 -0.422252
s off
f 1 2 3
f 4 2 5
f 1 3 6
f 1 6 7
f 1 7 8
f 4 5 9
f 10 11 12
f 13 14 15
f 16 17 18
f 19 20 21
f 4 9 22
f 10 12 23
f 13 15 24
f 16 18 25
f 19 21 26
f 26 29 28
f 26 21 29
f 21 30 29
f 25 31 30
f 25 18 31
f 18 32 31
f 24 33 32
f 24 15 33
f 15 34 33
f 23 35 34
f 23 12 35
f 12 36 35
f 22 27 36
f 22 9 27
f 9 28 27
f 21 25 30
f 21 20 25
f 20 16 25
f 18 24 32
f 18 17 24
f 17 13 24
f 15 23 34
f 15 14 23
f 14 10 23
f 12 22 36
f 12 11 22
f 11 4 22
f 9 26 28
f 9 5 26
f 5 19 26
f 8 20 19
f 8 7 20
f 7 16 20
f 7 17 16
f 7 6 17
f 6 13 17
f 6 14 13
f 6 3 14
f 3 10 14
f 5 8 19
f 5 2 8
f 2 1 8
f 3 11 10
f 3 2 11
f 2 4 11
f 37 38 39 40 41 42 43 44 45 46
